<?xml version="1.0" standalone="no"?>
<!DOCTYPE svg PUBLIC "-//W3C//DTD SVG 1.1//EN" "http://www.w3.org/Graphics/SVG/1.1/DTD/svg11.dtd" >
<svg xmlns="http://www.w3.org/2000/svg" xmlns:xlink="http://www.w3.org/1999/xlink" version="1.1">
<metadata>
Created by FontForge 20180930 at Mon Oct  8 19:13:13 2018
 By root
Copyright (c) 2015 by . All rights reserved.
</metadata>
<defs>
<font id="COCOGOOSE-UltraLight" horiz-adv-x="448" >
  <font-face 
    font-family="COCOGOOSE "
    font-weight="250"
    font-stretch="normal"
    units-per-em="2000"
    panose-1="0 0 0 0 0 0 0 0 0 0"
    ascent="1500"
    descent="-500"
    x-height="1265"
    cap-height="1486"
    bbox="-335 -489 2628 2056"
    underline-thickness="100"
    underline-position="-200"
    unicode-range="U+0020-2122"
  />
    <missing-glyph />
    <glyph glyph-name="space" unicode=" " horiz-adv-x="627" 
 />
    <glyph glyph-name="I" unicode="I" 
d="M160 1450q0 16 9.5 26t27.5 10h52q16 0 26.5 -9.5t10.5 -26.5v-1414q0 -36 -37 -36h-52q-37 0 -37 36v1414z" />
    <glyph glyph-name="J" unicode="J" 
d="M164 1451q0 15 8.5 25t26.5 10h54q36 0 36 -36v-1435v-31.5t-1 -30.5q-2 -73 -30 -134.5t-75 -105.5t-109.5 -69t-133.5 -25q-78 0 -148 25.5t-115 79.5q-12 12 -12 26q0 7 7 18t17.5 22t22.5 20t22 12q13 0 29 -12.5t39.5 -27.5t56 -27.5t79.5 -12.5q50 0 91 18.5
t70.5 49t46 70t18.5 82.5v1489z" />
    <glyph glyph-name="K" unicode="K" horiz-adv-x="1413" 
d="M275 46q0 -46 -47 -46h-24q-44 0 -44 46v1395q0 18 11.5 31t32.5 13h27q18 0 31 -12t13 -32v-832l796 845q14 14 26.5 22.5t24.5 8.5h110q21 0 21 -9q0 -7 -10 -17q-1 1 -1 2l-1 1q-1 0 2 -6l-561 -587l697 -829q15 -18 15 -28q0 -12 -22 -12h-92q-11 0 -21 8t-23 23
l-631 757l-330 -348v-394z" />
    <glyph glyph-name="L" unicode="L" horiz-adv-x="1159" 
d="M1071 125q17 0 27 -9.5t10 -27.5v-52q0 -16 -10 -26t-27 -10h-870q-36 0 -36 36v1414q0 16 9.5 26t27.5 10h52q17 0 26.5 -9t9.5 -27v-1325h781z" />
    <glyph glyph-name="M" unicode="M" horiz-adv-x="1771" 
d="M1540 1447q33 -355 66 -704.5t67 -704.5v-2q0 -36 -36 -36h-42q-36 0 -38 37l-112 1227l-508 -1131q-5 -12 -18.5 -19.5t-22.5 -7.5h-26q-15 0 -23 3.5t-18 23.5q-128 284 -254.5 565.5t-254.5 565.5l-112 -1227q0 -38 -37 -38h-42q-18 0 -27 11.5t-9 28.5l132 1408
q2 20 15 29t27 9h4h62q17 -3 27 -25l522 -1170l522 1169q5 13 16 19.5t24.5 8t28.5 1t27 -0.5q18 0 28.5 -9.5t11.5 -23.5v-7v0z" />
    <glyph glyph-name="P" unicode="P" horiz-adv-x="1237" 
d="M159 1439q0 20 13 33t33 13h474q96 0 180 -36.5t146.5 -99t99 -146.5t36.5 -180t-36.5 -180t-99 -146.5t-146 -99t-178.5 -36.5h-408v-515q0 -46 -46 -46h-24q-44 0 -44 46v1393zM1028 1023q0 73 -27.5 137t-74.5 112t-111 75.5t-136 27.5h-406v-704h406q72 0 136 27.5
t111 75.5t74.5 112t27.5 137z" />
    <glyph glyph-name="R" unicode="R" horiz-adv-x="1332" 
d="M770 1486q97 -1 181.5 -38t147 -100.5t98.5 -148t36 -180.5q0 -71 -20 -136t-56.5 -120t-87 -98.5t-111.5 -70.5l251 -550q5 -12 5 -18q0 -10 -2 -15t-11 -7.5t-28 -3t-54 -0.5q-18 0 -26 19l-246 545q-20 -5 -40.5 -7.5t-46.5 -2.5h-487v-518q0 -36 -36 -36h-43
q-36 0 -36 36v1417q6 18 13 25.5t23 7.5h576zM712 669h16q39 0 77 2t75 15q52 18 96 50t75.5 75.5t49 96.5t17.5 111q0 72 -27 136.5t-74.5 112.5t-111.5 76t-138 28h-494v-703h439z" />
    <glyph glyph-name="S" unicode="S" horiz-adv-x="1309" 
d="M105 267q20 20 33 31t33 11q11 0 19 -7t13 -14q42 -47 92.5 -83.5t107 -61.5t115.5 -38t117 -13q81 0 160.5 18t142.5 57.5t102 101.5t39 150q0 51 -19.5 90.5t-53.5 69t-79 51t-95.5 37.5t-103.5 28.5t-103 23.5q-124 28 -216.5 63t-153.5 81t-91 105t-30 136
q0 92 36.5 166t103.5 126t162 80t212 28q131 0 247.5 -44.5t208.5 -135.5q13 -13 19.5 -20.5t6.5 -15.5t-10 -18.5t-30 -29.5q-9 -8 -15 -13t-12 -5q-13 0 -35 19q-35 30 -73.5 57t-84.5 48t-101.5 33.5t-123.5 12.5q-98 0 -171 -22.5t-122 -61.5t-73.5 -91t-24.5 -110
q0 -45 16 -79.5t44.5 -62t67 -48t83 -37t93.5 -29.5t98 -24q58 -14 120.5 -30t122.5 -37.5t113.5 -50t94 -68.5t64 -93t23.5 -123q0 -110 -44 -193t-120 -139t-178.5 -84.5t-218.5 -28.5q-76 0 -149 13.5t-139.5 43t-125.5 75t-108 108.5q-7 8 -11 15t-4 16q0 8 9 16z" />
    <glyph glyph-name="T" unicode="T" horiz-adv-x="1253" 
d="M1156 1486q17 0 27.5 -9t12.5 -27v-41q0 -17 -10 -28t-30 -11h-464v-1333q0 -37 -37 -37h-41q-37 0 -37 37v1333h-468q-36 0 -36 39v41q0 17 9.5 26.5t26.5 9.5h1047z" />
    <glyph glyph-name="A" unicode="A" horiz-adv-x="1435" 
d="M75 36q7 23 14.5 42.5t14.5 35.5l562 1346q5 11 12 20t23 9h4h33h4q17 0 24 -9t13 -18l587 -1414q1 -2 2 -9.5t1 -10.5q0 -24 -32 -28h-53q-2 0 -4 -0.5t-4 -0.5q-25 0 -36 28l-140 340h-758q-39 -96 -74.5 -183t-64.5 -159q-11 -25 -35 -25q-6 0 -9 1h-53q-32 3 -32 26
v4.5t1 4.5zM394 493h655l-326 799z" />
    <glyph glyph-name="U" unicode="U" horiz-adv-x="1502" 
d="M259 595q0 -106 36.5 -198.5t102 -160.5t156 -107.5t198.5 -39.5q110 0 201 39.5t156 108t101 160.5t36 198v855q0 16 10 26t28 10h38q17 0 28 -9.5t11 -26.5v-870q-1 -131 -49 -241.5t-130.5 -191t-193 -126t-236.5 -45.5q-84 0 -162 21.5t-145.5 61.5t-123 95.5
t-95 123t-61.5 145.5t-22 162v865q0 14 9 25t26 11h44q14 0 25.5 -10t11.5 -26v-855z" />
    <glyph glyph-name="V" unicode="V" horiz-adv-x="1393" 
d="M690 185q35 86 77.5 188.5t88.5 214t94.5 228t95 229t89.5 217.5t80 195q5 12 8.5 18t11.5 8t23.5 2h45.5q31 -4 31 -29q0 -2 -0.5 -9t-2.5 -9l-588 -1412q-5 -11 -12 -19t-27 -8h-29q-29 0 -40 29l-585 1398q-2 4 -5 13.5t-3 20.5q0 20 30 25h44q17 0 26.5 -4.5
t17.5 -21.5q36 -90 79.5 -195t90.5 -218t95.5 -229.5t95 -228.5t89.5 -214.5t79 -188.5z" />
    <glyph glyph-name="W" unicode="W" horiz-adv-x="2092" 
d="M1213 1462q3 5 10.5 14t22.5 9h48q30 0 30 -16q0 -8 -6 -23l-234 -560q74 -179 147.5 -355t147.5 -354l531 1282q6 15 14 21.5t22 6.5h55q27 -4 27 -23q0 -7 -3 -16l-592 -1420q-3 -9 -8 -15q-5 -5 -12.5 -9.5t-18.5 -4.5h-30q-18 0 -27.5 8t-11.5 21l-301 717l-299 -717
q-5 -17 -16 -23t-24 -6h-27q-17 0 -26 8.5t-13 20.5l-591 1417q0 3 -1.5 8.5t-1.5 9.5q0 19 28 23h57q23 0 35 -28q132 -322 264 -640.5t266 -640.5z" />
    <glyph glyph-name="X" unicode="X" horiz-adv-x="1236" 
d="M618 838l407 602q19 28 34 36t40 8h38q34 0 34 -14q0 -11 -19 -39l-469 -689l475 -701q11 -17 11 -28q0 -14 -23 -14h-52q-36 0 -56 31l-420 617l-420 -617q-22 -31 -56 -31h-52q-24 0 -24 14q0 10 12 28l475 701l-469 689q-19 26 -19 39q0 14 34 14h38q25 0 40 -8
t34 -36z" />
    <glyph glyph-name="Y" unicode="Y" horiz-adv-x="1210" 
d="M67 1428q-9 15 -9 28q0 29 36 29h35q11 0 18.5 -1.5t14 -6t13 -14.5t16.5 -26l400 -671l414 684q22 35 50 35h49q29 0 29 -19q-1 -5 -3 -12t-7 -15l-473 -786v-607q0 -46 -46 -46h-24q-44 0 -44 46v599z" />
    <glyph glyph-name="Z" unicode="Z" horiz-adv-x="1307" 
d="M1150 115q37 0 37 -37v-40q0 -17 -10 -27.5t-27 -10.5h-1064q-15 0 -23.5 6t-12 16.5t-4 24.5t-0.5 30q0 10 2.5 19t10.5 16l971 1258h-910q-38 0 -38 38v42q0 36 38 36h1033q16 0 27 -10t11 -27v-47q0 -18 -10 -28l-969 -1259h938z" />
    <glyph glyph-name="bar" unicode="|" horiz-adv-x="502" 
d="M166 1588q0 18 8 29.5t25 11.5h57q16 0 26 -10.5t10 -30.5v-1893q0 -23 -9.5 -32.5t-26.5 -9.5h-57q-17 0 -25 9.5t-8 32.5v1893z" />
    <glyph glyph-name="brokenbar" unicode="&#xa6;" horiz-adv-x="598" 
d="M186 1575q0 17 8 30.5t25 13.5h56q15 0 25.5 -11.5t10.5 -32.5v-746q0 -45 -36 -45h-56q-33 0 -33 45v746zM186 434q0 18 8 31t25 13h56q15 0 25.5 -11.5t10.5 -32.5v-746q0 -45 -36 -45h-56q-33 0 -33 45v746z" />
    <glyph glyph-name="bracketleft" unicode="[" horiz-adv-x="513" 
d="M164 1693q0 33 33 33h275q34 0 34 -33v-57q0 -36 -34 -36h-183v-1724h183q14 0 24 -9.5t10 -25.5v-58q-3 -33 -34 -33h-275q-33 0 -33 33v1910z" />
    <glyph glyph-name="bracketright" unicode="]" horiz-adv-x="513" 
d="M340 -221q0 -33 -33 -33h-274q-32 0 -35 33v58q0 16 10.5 25t24.5 9h181v1725h-181q-35 0 -35 35v57q0 15 10 24t25 9h274q33 0 33 -33v-1909z" />
    <glyph glyph-name="braceleft" unicode="{" horiz-adv-x="722" 
d="M620 1594q-42 0 -82 -16.5t-70.5 -46t-49.5 -71.5t-19 -93v-375q0 -88 -20 -150.5t-80 -105.5q32 -23 52 -53.5t30.5 -67.5t14 -79t3.5 -87v-346q0 -24 6.5 -45.5t17.5 -38.5q9 -39 30.5 -65t50 -42t61 -24.5t62.5 -14.5q23 -10 28 -31t5 -44q0 -22 -7.5 -34.5
t-32.5 -14.5l-11 2q-14 0 -27 2t-26 5q-110 23 -181.5 97.5t-87.5 189.5q-7 39 -10 80t-3 84v236q0 31 -2.5 65t-11.5 64t-26.5 53t-47.5 32q-21 8 -42.5 9.5t-38 4t-27 10t-10.5 26.5v52q0 23 14 30.5t40 7.5h10q54 3 83 27t42 62.5t15 87t2 100.5v189q0 43 3.5 83.5
t10.5 79.5q10 66 39 119t72 90.5t99 58.5t122 24q20 -1 30 -11t10 -27v-52q0 -36 -40 -36z" />
    <glyph glyph-name="underscore" unicode="_" horiz-adv-x="1306" 
d="M1124 128q18 0 26 -9t10.5 -23.5t2 -31.5t-0.5 -33q0 -17 -10 -22.5t-28 -5.5h-920q-38 0 -38 37v52q0 36 38 36h920z" />
    <glyph glyph-name="endash" unicode="&#x2013;" horiz-adv-x="1346" 
d="M1139 635q37 0 37 -36v-50q0 -16 -9.5 -27.5t-27.5 -11.5h-934q-38 0 -38 39v50q0 36 38 36h934z" />
    <glyph glyph-name="bullet" unicode="&#x2022;" horiz-adv-x="475" 
d="M121 543q0 24 9.5 45.5t25.5 37.5t37.5 25t45.5 9t45.5 -9t37.5 -25t25.5 -37.5t9.5 -45.5t-9.5 -45.5t-25.5 -37.5t-37.5 -25.5t-45.5 -9.5t-45.5 9.5t-37.5 25.5t-25.5 37.5t-9.5 45.5z" />
    <glyph glyph-name="asciicircum" unicode="^" horiz-adv-x="977" 
d="M158 1324q154 157 311 314q6 9 18 9q5 -1 11 -2t14 -9l286 -285q13 -13 23.5 -27.5t11.5 -25.5q0 -10 -10 -20l-40 -42q-7 -10 -19 -10q-15 0 -26 8.5t-22 19.5l-225 228l-245 -248q-11 -8 -21 -8q-5 0 -13.5 3t-13.5 8l-40 39q-8 8 -8 21q0 2 1 12t7 15z" />
    <glyph glyph-name="backslash" unicode="\" horiz-adv-x="808" 
d="M649 9q-17 20 -30.5 44.5t-25.5 53.5l-544 1337q-4 8 -4 17q0 14 11.5 18.5t18.5 6.5h57q4 1 11 1q26 0 37 -29l31 -80l543 -1340q0 -7 1.5 -9.5t1.5 -6.5q0 -14 -12.5 -18.5t-36.5 -4.5q-33 0 -59 10z" />
    <glyph glyph-name="asciitilde" unicode="~" horiz-adv-x="1055" 
d="M847 729q7 9 17 9q4 0 17 -5.5t27.5 -14.5t26 -22t11.5 -28q0 -3 -0.5 -7t-2.5 -6l-27 -37q-88 -106 -215 -106q-40 0 -78.5 14t-76.5 38q-19 12 -37 24t-37 22t-38.5 16.5t-40.5 6.5q-52 0 -87 -32q-7 -6 -16.5 -17.5l-19 -23t-19.5 -20t-18 -9.5q-6 0 -19.5 6t-28 15.5
t-25.5 21.5t-11 23q0 10 2 12q44 69 105 110t146 41q37 0 76 -14t75 -37q18 -12 36.5 -24t37 -22.5t38 -17t40.5 -6.5q26 0 48 8.5t39 23.5q6 6 13.5 14.5l15 17t14.5 16t12 10.5z" />
    <glyph glyph-name="braceright" unicode="}" horiz-adv-x="714" 
d="M79 1594q-40 0 -40 36v52q0 17 10 27t30 11q92 -4 158 -38t108 -93t61.5 -141t19.5 -183v-189q0 -41 1 -85.5t10 -83t28 -65.5t55 -33q21 -6 41 -7.5t35.5 -4.5t25 -10.5t9.5 -25.5v-52q0 -23 -13 -30t-41 -7h-11q-49 -5 -77 -25.5t-42 -52t-17.5 -70t-3.5 -79.5v-236
q0 -43 -3.5 -84t-9.5 -80q-9 -65 -37 -118t-71.5 -91.5t-101 -61t-124.5 -25.5q-40 3 -40 39v25t3 24.5t10 21t20 14.5q43 6 84 21t73 42.5t51.5 68.5t19.5 98v346q0 46 3 88t13.5 78.5t30.5 67t53 53.5q-30 21 -49.5 47.5t-31 58t-15.5 69t-4 81.5v375q0 48 -17 89.5
t-47 72t-70.5 48t-86.5 17.5z" />
    <glyph glyph-name="Euro" unicode="&#x20ac;" horiz-adv-x="1542" 
d="M159 651q-2 23 -3.5 46t-1.5 47q0 36 3 72h-61q-46 0 -46 46v24q0 44 46 44h81q31 123 100.5 228.5t167 182.5t219 120.5t256.5 43.5q129 0 250 -42.5t219 -120.5q21 -14 21 -31q0 -11 -8 -21l-27 -34q-7 -8 -13.5 -13t-14.5 -5q-15 0 -40 18q-87 63 -183.5 98.5
t-201.5 35.5q-112 0 -212.5 -35.5t-182 -97.5t-141 -146t-89.5 -181h415q18 0 31 -11t13 -33v-24q0 -18 -12 -32t-32 -14h-439q-2 -18 -3 -36t-1 -36q0 -24 1.5 -47t5.5 -46h439q18 0 31 -11t13 -33v-24q0 -18 -12 -32t-32 -14h-409q34 -95 95.5 -176.5t141.5 -141.5
t174.5 -94.5t193.5 -34.5q51 0 105.5 10t107.5 29t103.5 46.5t92.5 62.5q12 9 25 9q21 0 37 -25l15 -24q7 -12 7 -25q0 -22 -20 -37q-98 -75 -216 -116.5t-252 -41.5q-131 0 -249 42t-214.5 116t-166.5 176.5t-104 224.5h-83q-46 0 -46 46v24q0 44 46 44h60z" />
    <glyph glyph-name="E" unicode="E" horiz-adv-x="1265" 
d="M1163 1486q38 0 38 -38v-50q0 -17 -9.5 -27.5t-29.5 -10.5h-873v-521h702q17 0 27.5 -8.5t10.5 -28.5v-51q0 -17 -9.5 -27t-28.5 -10h-702v-589h886q38 0 38 -37v-52q0 -36 -37 -36h-981q-14 0 -23 8.5t-9 26.5v1414q0 20 10 28.5t27 8.5h963z" />
    <glyph glyph-name="grave" unicode="`" horiz-adv-x="522" 
d="M292 1404q16 -38 -21 -38h-41q-17 0 -30 7.5t-23 30.5l-100 234q-15 36 21 36h42q37 0 52 -36z" />
    <glyph glyph-name="ellipsis" unicode="&#x2026;" horiz-adv-x="1217" 
d="M147 86v18q0 20 15 26t35 6h34q33 0 42.5 -11.5t9.5 -38.5v-36q0 -23 -6 -36.5t-26 -13.5h-53q-26 0 -38.5 8.5t-12.5 28.5v49zM519 86v18q0 20 15 26t35 6h34q33 0 42.5 -11.5t9.5 -38.5v-36q0 -23 -6 -36.5t-26 -13.5h-53q-26 0 -38.5 8.5t-12.5 28.5v49zM866 86v18
q0 20 15 26t35 6h34q33 0 42.5 -11.5t9.5 -38.5v-36q0 -23 -6 -36.5t-26 -13.5h-53q-26 0 -38.5 8.5t-12.5 28.5v49z" />
    <glyph glyph-name="quoteleft" unicode="&#x2018;" horiz-adv-x="477" 
d="M301.046 1389.22q0 -23.3164 -15.2598 -28.249q-15.2598 -4.93164 -36.8027 -4.93164h-24.2373q-21.543 0 -32.7637 7.62207q-11.2207 7.62305 -11.2207 25.5586v67.2588q0 36.7686 5.83496 72.1924q5.83496 35.4229 16.1572 63.2236q10.3232 27.7998 23.7881 45.2871
q13.4648 17.4883 27.8271 17.4883q3.58984 0 8.97656 -2.69043q5.38574 -2.69043 8.07812 -6.27832l17.9531 -18.832q5.38574 -6.27734 5.38574 -18.833q-0.897461 -7.17383 -6.73242 -14.7969q-5.83496 -7.62207 -12.1182 -17.9355t-11.2207 -22.8682
q-4.93652 -12.5547 -4.93652 -30.4912v-24.2129q0 -9.86523 6.2832 -14.3486q6.2832 -4.48438 14.3623 -8.07129t14.3623 -8.96777t6.2832 -17.9355v-59.1885z" />
    <glyph glyph-name="quoteright" unicode="&#x2019;" horiz-adv-x="471" 
d="M140.963 1458.79q0 23.3203 15.2607 28.2529q15.2607 4.93359 36.8057 4.93359h24.2383q21.5449 0 32.7666 -7.62402q11.2207 -7.62402 11.2207 -25.5625v-67.2686q0 -36.7725 -5.83496 -72.2012q-5.83496 -35.4277 -16.1582 -63.2324
q-10.3242 -27.8037 -23.7891 -45.2939q-13.4658 -17.4893 -27.8291 -17.4893q-3.59082 0 -8.97754 2.69043q-5.38574 2.69043 -8.0791 6.27832l-17.9541 18.835q-5.38672 6.27832 -5.38672 18.8359q0.898438 7.1748 6.7334 14.7988t12.1191 17.9385t11.2207 22.8711
q4.9375 12.5566 4.9375 30.4951v24.2158q0 9.86621 -6.28418 14.3506q-6.2832 4.48535 -14.3633 8.07227q-8.0791 3.58789 -14.3633 8.96973q-6.2832 5.38086 -6.2832 17.9375v59.1963z" />
    <glyph glyph-name="quotedblleft" unicode="&#x201c;" horiz-adv-x="785" 
d="M319.046 1384.22q0 -23.3164 -15.2598 -28.249q-15.2598 -4.93164 -36.8027 -4.93164h-24.2373q-21.543 0 -32.7637 7.62207q-11.2207 7.62305 -11.2207 25.5586v67.2588q0 36.7686 5.83496 72.1924q5.83496 35.4229 16.1572 63.2236q10.3232 27.7998 23.7881 45.2871
q13.4648 17.4883 27.8271 17.4883q3.58984 0 8.97656 -2.69043q5.38574 -2.69043 8.07812 -6.27832l17.9531 -18.832q5.38574 -6.27734 5.38574 -18.833q-0.897461 -7.17383 -6.73242 -14.7969q-5.83496 -7.62207 -12.1182 -17.9355t-11.2207 -22.8682
q-4.93652 -12.5547 -4.93652 -30.4912v-24.2129q0 -9.86523 6.2832 -14.3486q6.2832 -4.48438 14.3623 -8.07129t14.3623 -8.96777t6.2832 -17.9355v-59.1885zM550.046 1384.22q0 -23.3164 -15.2598 -28.249q-15.2598 -4.93164 -36.8027 -4.93164h-24.2373
q-21.543 0 -32.7637 7.62207q-11.2207 7.62305 -11.2207 25.5586v67.2588q0 36.7686 5.83496 72.1924q5.83496 35.4229 16.1572 63.2236q10.3232 27.7998 23.7881 45.2871q13.4648 17.4883 27.8271 17.4883q3.58984 0 8.97656 -2.69043q5.38574 -2.69043 8.07812 -6.27832
l17.9531 -18.832q5.38574 -6.27734 5.38574 -18.833q-0.897461 -7.17383 -6.73242 -14.7969q-5.83496 -7.62207 -12.1182 -17.9355t-11.2207 -22.8682q-4.93652 -12.5547 -4.93652 -30.4912v-24.2129q0 -9.86523 6.2832 -14.3486q6.2832 -4.48438 14.3623 -8.07129
t14.3623 -8.96777t6.2832 -17.9355v-59.1885z" />
    <glyph glyph-name="quotedblright" unicode="&#x201d;" horiz-adv-x="680" 
d="M191.963 1458.79q0 23.3203 15.2607 28.2529q15.2607 4.93359 36.8057 4.93359h24.2383q21.5449 0 32.7666 -7.62402q11.2207 -7.62402 11.2207 -25.5625v-67.2686q0 -36.7725 -5.83496 -72.2012q-5.83496 -35.4277 -16.1582 -63.2324
q-10.3242 -27.8037 -23.7891 -45.2939q-13.4658 -17.4893 -27.8291 -17.4893q-3.59082 0 -8.97754 2.69043q-5.38574 2.69043 -8.0791 6.27832l-17.9541 18.835q-5.38672 6.27832 -5.38672 18.8359q0.898438 7.1748 6.7334 14.7988t12.1191 17.9385t11.2207 22.8711
q4.9375 12.5566 4.9375 30.4951v24.2158q0 9.86621 -6.28418 14.3506q-6.2832 4.48535 -14.3633 8.07227q-8.0791 3.58789 -14.3633 8.96973q-6.2832 5.38086 -6.2832 17.9375v59.1963zM422.963 1458.79q0 23.3203 15.2607 28.2529q15.2607 4.93359 36.8057 4.93359h24.2383
q21.5449 0 32.7666 -7.62402q11.2207 -7.62402 11.2207 -25.5625v-67.2686q0 -36.7725 -5.83496 -72.2012q-5.83496 -35.4277 -16.1582 -63.2324q-10.3242 -27.8037 -23.7891 -45.2939q-13.4658 -17.4893 -27.8291 -17.4893q-3.59082 0 -8.97754 2.69043
q-5.38574 2.69043 -8.0791 6.27832l-17.9541 18.835q-5.38672 6.27832 -5.38672 18.8359q0.898438 7.1748 6.7334 14.7988t12.1191 17.9385t11.2207 22.8711q4.9375 12.5566 4.9375 30.4951v24.2158q0 9.86621 -6.28418 14.3506q-6.2832 4.48535 -14.3633 8.07227
q-8.0791 3.58789 -14.3633 8.96973q-6.2832 5.38086 -6.2832 17.9375v59.1963z" />
    <glyph glyph-name="sterling" unicode="&#xa3;" horiz-adv-x="1283" 
d="M608 759q32 0 32 -31v-52q0 -31 -32 -31h-329v-530h801q31 0 31 -31v-52q0 -32 -31 -32h-885q-30 0 -30 29v616h-55q-30 0 -30 31v52q0 31 30 31h55v225q0 111 42.5 205.5t116 163.5t172 108t210.5 39q47 0 95 -9.5t94 -27t89 -41.5t79 -54q8 -5 10.5 -14t-2.5 -17
l-35 -53q-9 -15 -21 -15q-8 0 -18 8l-20 16q-55 44 -125.5 70.5t-146.5 26.5q-88 0 -165.5 -30.5t-135.5 -85t-91.5 -129.5t-33.5 -163v-223h329z" />
    <glyph glyph-name="cent" unicode="&#xa2;" horiz-adv-x="1264" 
d="M1129 1034l-5 -5t-8 -3q-8 0 -19 11q-12 12 -38.5 35t-70.5 46.5t-106.5 41t-146.5 17.5q-106 0 -203 -43t-171 -117t-118 -173t-44 -210t42.5 -210t115.5 -174t169.5 -119t204.5 -44q53 0 98.5 8t85 22.5t75 34.5t68.5 44q7 5 17.5 13.5t21 16t19.5 13t15 5.5
q9 0 20 -12q17 -23 24.5 -36.5t7.5 -20.5q0 -4 -4 -8q4 -6 4 -10q-22 -30 -64 -59q-67 -48 -143 -78.5t-164 -40.5v-181q0 -23 -9.5 -32.5t-26.5 -9.5h-57q-17 0 -25 9.5t-8 32.5v179q-125 10 -235 65.5t-192.5 143.5t-130 202.5t-47.5 242.5q0 129 47.5 243.5t130 202.5
t192.5 143t235 66v154q0 18 8 29.5t25 11.5h57q16 0 26 -10.5t10 -30.5v-157q100 -12 187.5 -51.5t153.5 -93.5v1l2 -3q9 -8 16.5 -15t7.5 -18q0 -10 -13 -25z" />
    <glyph glyph-name="dagger" unicode="&#x2020;" horiz-adv-x="854" 
d="M697 652q15 0 24 -8t9 -25v-58q0 -15 -8.5 -24.5t-24.5 -9.5h-243v-936q0 -33 -34 -33h-58q-33 0 -33 33v936h-246q-34 0 -34 34v58q0 33 34 33h246v840q0 15 8 24t25 9h58q14 0 24 -8.5t10 -24.5v-840h243z" />
    <glyph glyph-name="daggerdbl" unicode="&#x2021;" horiz-adv-x="884" 
d="M470 296v-706q-3 -30 -32 -32h-64q-30 3 -30 33v705h-245q-34 0 -34 35v57q0 33 34 33h245v345h-245q-34 0 -34 35v58q0 33 34 33h245v600q0 23 15.5 28t43.5 5h35q12 0 21 -8.5t11 -23.5v-601h243q14 0 23.5 -8t9.5 -25v-58q0 -14 -9 -24.5t-24 -10.5h-243v-345h243
q14 0 23.5 -8t9.5 -25v-57q0 -15 -9 -25t-24 -10h-243z" />
    <glyph glyph-name="florin" unicode="&#x192;" horiz-adv-x="766" 
d="M656 1024q38 0 38 -36v-45q0 -39 -38 -39h-195v-891q0 -21 -2.5 -41t-7.5 -38q-8 -62 -33 -115.5t-66 -94t-96 -65t-122 -26.5l-21 -3q-39 1 -39 36v51q0 18 11.5 27.5t26.5 9.5q42 0 78.5 14.5t65 39.5t48 58.5t25.5 70.5q6 40 6 82v885h-159q-37 0 -37 39v45
q0 36 37 36h159v136q0 80 28.5 143t76.5 108t111 70t132 28q20 -1 29.5 -11.5t9.5 -27.5v-50q0 -17 -12 -27t-26 -10q-50 0 -90.5 -18.5t-70 -49.5t-46 -72.5t-17.5 -86.5q0 -2 0.5 -3.5t0.5 -4.5v-124h195z" />
    <glyph glyph-name="trademark" unicode="&#x2122;" horiz-adv-x="1330" 
d="M101 1470q0 6 6 11.5t16 5.5h416q22 0 22 -17v-75q0 -8 -5.5 -14t-16.5 -6h-152v-477q0 -7 -5.5 -13.5t-12.5 -6.5h-75q-5 0 -12 6.5t-7 13.5v477h-152q-10 0 -16 6t-6 14v75zM636 1470q0 6 4.5 11.5t12.5 5.5h113q14 0 17 -13l132 -383l134 383q2 7 8.5 10t11.5 3h108
q7 0 13.5 -5.5t6.5 -11.5l28 -575q0 -17 -22 -17h-72q-18 0 -18 17l-24 403l-123 -378q-4 -8 -6.5 -12t-9.5 -4h-68q-9 0 -15 16l-123 378l-25 -403q0 -17 -19 -17h-75q-18 0 -18 17z" />
    <glyph glyph-name="tilde" unicode="&#x2dc;" horiz-adv-x="648" 
d="M121 1386q-10 -9 -21.5 -22t-21.5 -13q-4 0 -13 5.5t-18.5 14t-16.5 17t-7 14.5q0 8 6 14q68 108 182 108q33 -2 62.5 -16t56.5 -30.5t52.5 -30t51.5 -13.5h5q23 2 41.5 14t33 26t26 25.5t21.5 11.5q5 0 14 -6t17.5 -14t15 -16.5t6.5 -13.5q0 -4 -1.5 -9t-5.5 -9
q-37 -53 -75.5 -77t-89.5 -26q-33 0 -63 8.5t-61 29.5l-54 33q-14 8 -26.5 12.5t-29.5 6.5q-27 0 -48.5 -12t-38.5 -32z" />
    <glyph glyph-name="circumflex" unicode="&#x2c6;" horiz-adv-x="748" 
d="M355 1621q5 4 11 5t9 1q7 0 15 -7l240 -240q7 -6 14.5 -15.5t7.5 -19.5q0 -9 -7 -16l-28 -30q-10 -8 -19 -8q-10 0 -21 7l-204 199l-205 -198q-6 -3 -11.5 -4t-10.5 -1q-10 0 -16 6l-29 29q-7 6 -7 14q0 5 2.5 13t4.5 10z" />
    <glyph glyph-name="yen" unicode="&#xa5;" horiz-adv-x="1186" 
d="M527 449v135h-252q-46 0 -46 46v24q0 44 46 44h204l-421 730q-9 15 -9 28q0 29 36 29h35q11 0 18.5 -1.5t14 -6t13.5 -14.5t16 -26l400 -698l414 711q20 35 50 35h49q29 0 29 -19q0 -9 -10 -27l-430 -741h207q18 0 31 -11t13 -33v-24q0 -18 -12 -32t-32 -14h-250v-135
h250q18 0 31 -11t13 -33v-24q0 -18 -12 -32t-32 -14h-250v-289q0 -46 -46 -46h-24q-44 0 -44 46v289h-252q-46 0 -46 46v24q0 44 46 44h252z" />
    <glyph glyph-name="emdash" unicode="&#x2014;" horiz-adv-x="1669" 
d="M1476 635q17 0 27.5 -9t10.5 -27v-49q0 -17 -10 -28t-28 -11h-1277q-37 0 -37 39v49q0 36 37 36h1277z" />
    <glyph glyph-name="guilsinglright" unicode="&#x203a;" horiz-adv-x="855" 
d="M253 31q-10 -10 -20.5 -17.5t-21.5 -7.5q-7 0 -17 6.5t-19.5 16t-16 20.5t-6.5 20q0 4 2 12.5t7 13.5l461 461l-463 464q-5 5 -7 12.5t-2 13.5q0 10 5.5 16.5t13.5 10.5l34 25q6 7 15 7q4 -1 12 -5l37 -33l468 -465q11 -11 19.5 -21.5t16.5 -21.5q0 -8 -6 -16z" />
    <glyph glyph-name="N" unicode="N" horiz-adv-x="1559" 
d="M1286 1452q2 34 36 34h45q34 0 34 -32v-1421q-2 -33 -37 -33h-47q-20 0 -33 16l-1008 1277v-1257q0 -36 -37 -36h-42q-36 0 -36 36v1413q0 14 2 21.5t11.5 10.5t29 3.5t53.5 0.5q11 0 19 -10q118 -149 246 -310t258.5 -324.5t259 -324.5t246.5 -310v1246z" />
    <glyph glyph-name="exclamdown" unicode="&#xa1;" 
d="M156 1173.01q0 -17.999 11 -24.998q11 -7 37 -7h36q27 0 36.5 8q9.5 7.99902 9.5 36.9971v37.998q0 17.999 -5 30.498t-24 14.499h-54h-19q-17 -2 -22.5 -13.999t-5.5 -30.998v-50.9971zM162 -346.901q0 -31.998 34 -31.998h52q31 0 31 31.998v1169.93
q0 31.998 -32 31.998h-53q-32 0 -32 -31.998v-1169.93z" />
    <glyph glyph-name="acute" unicode="&#xb4;" horiz-adv-x="534" 
d="M340 1648q15 36 52 36h42q36 0 21 -36l-100 -234q-10 -23 -23 -30.5t-30 -7.5h-41q-37 0 -21 38z" />
    <glyph glyph-name="dieresis" unicode="&#xa8;" horiz-adv-x="833" 
d="M165 1430q0 15 7.5 24.5t19.5 14.5t26 6.5t28 1.5q23 0 36 -5.5t19.5 -15t8 -22.5t1.5 -28q0 -27 -5 -42t-14.5 -22t-24 -8.5t-33.5 -1.5q-29 0 -43.5 7.5t-20 20.5t-5.5 31v39zM520 1430q0 15 7.5 24.5t19 14.5t26 6.5t28.5 1.5q22 0 35 -5t19.5 -14t8 -21t1.5 -25
q0 -29 -4 -45.5t-13 -24t-24.5 -9t-39.5 -1.5q-22 0 -35 5t-19.5 13.5t-8.5 20.5t-2 26q0 8 0.5 16.5t0.5 16.5z" />
    <glyph glyph-name="questiondown" unicode="&#xbf;" horiz-adv-x="1137" 
d="M497.037 911.021q0 21.998 13.999 35.498q13.999 13.499 32.998 13.499h29.998q21.999 0 34.498 -14.999t12.499 -33.998v-168.99q0 -57.9961 -19.498 -102.993q-19.499 -44.9971 -50.9971 -81.9951t-71.4961 -67.4961q-39.9971 -30.498 -82.4941 -59.9961
q-42.498 -29.498 -82.4951 -60.4961q-39.998 -30.998 -71.4961 -67.9961t-50.9971 -81.9951q-19.498 -44.9971 -19.498 -103.993q0 -76.9961 28.998 -136.992t78.9951 -101.494q49.9971 -41.4971 117.492 -62.9961q67.4961 -21.498 143.492 -21.498
q75.9951 0 142.491 24.498q66.4951 24.499 115.492 68.9961t76.9961 107.493q27.998 62.9961 27.998 139.991q0 17.999 13.499 32.498t28.498 19.499h28.998q20.999 0 29.998 -9.99902q9 -10 16 -24.999v-12.999q-3 -99.9941 -41.498 -184.488
q-38.498 -84.4951 -103.993 -145.991q-65.4961 -61.4961 -151.991 -96.4941q-86.4941 -34.998 -184.488 -34.998q-99.9941 0 -186.989 30.998q-86.9941 30.998 -151.99 87.9951q-64.9961 56.9961 -102.494 137.991q-37.4971 80.9951 -37.4971 180.989
q0 93.9941 32.498 161.49q32.498 67.4951 81.4941 118.992q48.9971 51.4971 105.494 91.4941q56.4961 39.998 105.493 78.4951q48.9971 38.498 80.9951 79.9951q31.998 41.498 30.998 96.4941v170.99zM642.028 1164.01q0 -15.999 -7.99902 -26.498q-8 -10.5 -20.499 -15.999
q-12.499 -5.5 -27.998 -7.5t-29.498 -2q-24.999 0 -39.498 6q-14.499 5.99902 -20.999 16.999q-6.49902 10.999 -7.99902 25.498t-1.5 30.498q0 27.998 5.5 43.498q5.49902 15.499 16.499 22.498q10.999 7 26.998 8.5t36.998 1.5q23.998 0 37.9971 -5.5t21.499 -15.499
q7.49902 -10 9.49902 -22.999t2 -27.998q0 -8 -0.5 -15.499q-0.5 -7.5 -0.5 -15.499z" />
    <glyph glyph-name="mu" unicode="&#xb5;" horiz-adv-x="1360" 
d="M1104 1225q0 18 9.5 28.5t32.5 10.5h37q21 0 33.5 -9.5t12.5 -29.5v-1192q0 -17 -10 -27t-27 -10h-52q-17 0 -26.5 10t-9.5 27v117q-66 -82 -161 -130t-213 -48q-69 0 -132.5 15.5t-118.5 45t-100.5 70.5t-78.5 92h-3v-548q0 -31 -31 -31h-53q-31 0 -31 31v1585
q0 32 32 32h53q30 0 30 -32v-757q3 -87 41 -158.5t97.5 -122t134.5 -78t153 -27.5q84 0 150.5 31t115 83t77.5 120t38 141v761z" />
    <glyph glyph-name="periodcentered" unicode="&#xb7;" horiz-adv-x="433" 
d="M157 600v18q0 20 15 26t35 6h34q33 0 42.5 -11.5t9.5 -38.5v-36q0 -23 -6 -36.5t-26 -13.5h-53q-26 0 -38.5 8.5t-12.5 28.5v49z" />
    <glyph glyph-name="cedilla" unicode="&#xb8;" horiz-adv-x="557" 
d="M174 52h95q1 -5 1.5 -18t0.5 -27v-27v-18q0 -19 1 -31.5t3.5 -20.5t8 -12t14.5 -7q28 -11 54 -27t46 -38.5t31.5 -51.5t11.5 -66q-3 -57 -45 -100t-120 -78q-12 -5 -24.5 -9t-26.5 -4q-10 0 -18 6t-14 15t-9 19.5t-3 19.5q0 11 4.5 17.5t20.5 11.5q22 5 45.5 15.5
t43 24.5t32 31.5t12.5 37.5q0 21 -8 37.5t-22 30t-32.5 23t-38.5 15.5q-29 8 -46.5 32t-17.5 55v144z" />
    <glyph glyph-name="degree" unicode="&#xb0;" horiz-adv-x="683" 
d="M324 1275q49 0 91.5 -18.5t74.5 -50.5t50.5 -75t18.5 -92q0 -51 -18.5 -94t-50.5 -74.5t-75 -49.5t-91 -18q-49 0 -92 18t-75 49.5t-50.5 74.5t-18.5 94q0 49 18.5 92t50.5 75t75 50.5t92 18.5zM324 1198q-34 0 -63 -12.5t-50.5 -34.5t-33.5 -50.5t-12 -61.5
q0 -34 12 -63t33.5 -50.5t50.5 -33.5t63 -12q33 0 62 12t50.5 33.5t34 50.5t12.5 63q0 33 -12.5 61.5t-34 50.5t-50.5 34.5t-62 12.5z" />
    <glyph glyph-name="plusminus" unicode="&#xb1;" horiz-adv-x="994" 
d="M804 125q15 0 24 -8t9 -25v-58q0 -15 -8.5 -24.5t-24.5 -9.5h-650q-34 0 -34 34v58q0 33 34 33h650zM561 415q0 -17 -9.5 -27.5t-26.5 -10.5h-51q-17 0 -28 10t-11 28v261h-259q-36 0 -36 38v51q0 37 36 37h259v259q0 38 39 38h51q36 0 36 -38v-259h262q17 0 27 -9.5
t10 -27.5v-51q0 -17 -10 -27.5t-27 -10.5h-262v-261z" />
    <glyph glyph-name="guillemotright" unicode="&#xbb;" horiz-adv-x="1358" 
d="M292 60l-45 -44q-12 -9 -22 -10q-8 0 -19 6t-20.5 15.5t-16.5 20.5t-7 21q0 3 2 12t7 14l461 461l-463 464q-5 5 -7 12.5t-2 13.5q0 19 19 27l34 25q6 7 15 7l12 -5l37 -33l468 -465q11 -11 19 -22t17 -21q-1 -4 -2.5 -8.5t-4.5 -7.5zM725 60l-45 -44q-12 -9 -22 -10
q-8 0 -19 6t-20.5 15.5t-16.5 20.5t-7 21q0 3 2 12t7 14l461 461l-463 464q-5 5 -7 12.5t-2 13.5q0 19 19 27l34 25q6 7 15 7l12 -5l37 -33l468 -465q11 -11 19 -22t17 -21q-1 -4 -2.5 -8.5t-4.5 -7.5z" />
    <glyph glyph-name="guillemotleft" unicode="&#xab;" horiz-adv-x="1351" 
d="M154 535q-12 12 -12 25q0 15 17 32l517 515q12 12 28 12q17 0 35 -15l16 -15q8 -8 11 -16t3 -16q0 -17 -12 -32l-464 -466l464 -464q11 -11 11 -29q0 -20 -13 -33l-18 -18q-14 -14 -33 -14q-18 0 -28 12zM612 535q-12 12 -12 25q0 15 17 32l517 515q12 12 28 12
q17 0 35 -15l16 -15q8 -8 11 -16t3 -16q0 -17 -12 -32l-464 -466l464 -464q11 -11 11 -29q0 -20 -13 -33l-18 -18q-14 -14 -33 -14q-18 0 -28 12z" />
    <glyph glyph-name="uni00AD" unicode="&#xad;" horiz-adv-x="1080" 
d="M858 624q17 0 27 -9t10 -27v-52q0 -16 -10 -26.5t-27 -10.5h-647q-38 0 -38 37v52q0 36 38 36h647z" />
    <glyph glyph-name="twosuperior" unicode="&#xb2;" horiz-adv-x="773" 
d="M136 666q-11 0 -19 7.5t-8 18.5v52q0 2 1 5.5t3 8.5l372 366q33 33 44.5 59t11.5 59q0 31 -13 58t-35 47t-52 31t-64 11t-63.5 -12t-51 -33t-34 -49.5t-12.5 -61.5q0 -21 -4 -31t-12.5 -13.5t-22.5 -3t-33 0.5h-9q-13 0 -18 5.5t-7 14.5v27q0 56 21.5 103t58 81.5
t85 53.5t102.5 19q56 0 105.5 -17.5t87 -49.5t59.5 -77t22 -101q0 -55 -21 -100.5t-53 -77.5l-307 -297h370q25 0 25 -25v-53q0 -11 -7 -18.5t-18 -7.5h-504z" />
    <glyph glyph-name="threesuperior" unicode="&#xb3;" horiz-adv-x="708" 
d="M344 1167q26 0 47 8.5t36 23t23.5 33.5t8.5 41t-6.5 42.5t-20 36t-34.5 24.5t-50 9q-55 0 -82 -32t-27 -83q0 -25 -26 -25h-54q-24 0 -24 24q0 53 17 93.5t46.5 67.5t68.5 40.5t83 13.5t83 -16t68.5 -43.5t46.5 -65.5t17 -83q0 -48 -18.5 -85.5t-51.5 -62.5
q59 -34 92 -86.5t33 -133.5q0 -56 -20 -103.5t-56 -82t-85 -54t-107 -19.5q-57 0 -105.5 16t-84.5 49.5t-56 85.5t-20 123q2 19 23 22h26h18t18.5 -1.5t14.5 -6.5t6 -14q0 -43 12.5 -74.5t34 -52.5t50.5 -31t63 -10q36 0 65.5 11t51 31t33.5 48.5t12 63.5q0 77 -46 115.5
t-124 38.5q-14 0 -19.5 4.5t-5.5 17.5v58q0 24 25 24z" />
    <glyph glyph-name="onesuperior" unicode="&#xb9;" horiz-adv-x="422" 
d="M261 1487q26 0 26 -24v-768q0 -25 -25 -25h-57q-24 0 -24 24v676q-7 -3 -17 -8.5l-20 -11t-19 -9t-15 -3.5q-17 0 -22 21l-2 50q-1 2 -1 7q0 17 19 27q10 5 24.5 12.5t28.5 14.5t27 12t21 5h56z" />
    <glyph glyph-name="ordmasculine" unicode="&#xba;" horiz-adv-x="1074" 
d="M134 1135q0 77 29.5 145t80 118.5t118.5 79.5t145 29t144.5 -29t118 -79.5t79.5 -118.5t29 -145q0 -82 -30 -150.5t-81 -117.5t-118.5 -76.5t-141.5 -27.5q-77 0 -145 29t-118.5 79.5t-80 118t-29.5 145.5zM248 1135q0 -54 20.5 -101t55.5 -82t82 -55t100 -20
q54 0 100.5 20t81.5 55t55 82t20 101q0 52 -20 99t-55 82t-81.5 55.5t-100.5 20.5q-53 0 -100 -20.5t-82 -55.5t-55.5 -82t-20.5 -99z" />
    <glyph glyph-name="ordfeminine" unicode="&#xaa;" horiz-adv-x="1017" 
d="M754 1456q0 29 29 29h51q11 0 19.5 -8.5t8.5 -20.5v-660q0 -24 -20 -24l-4 -4h-73q-28 0 -28 28v91q-35 -62 -100 -97t-151 -35q-77 0 -144.5 29t-118 79t-80 118t-29.5 145q0 78 29.5 145.5t80 118t118 79.5t144.5 29q91 0 156 -38.5t101 -106.5zM235 1126
q0 -53 20 -98.5t54.5 -79t80 -53t96.5 -19.5q52 0 97 19t78.5 52t53.5 77.5t22 95.5v6q0 51 -19.5 97t-53.5 80t-80 54t-98 20q-51 0 -96.5 -20t-80 -54t-54.5 -80t-20 -97z" />
    <glyph glyph-name="onequarter" unicode="&#xbc;" horiz-adv-x="1405" 
d="M972 1441q16 28 29.5 36t38.5 8h29q36 0 36 -16q-1 -6 -3.5 -15.5t-9.5 -21.5l-754 -1401q-19 -31 -53 -31h-42q-26 0 -26 16q0 9 9 26zM353 1487q26 0 26 -24v-768q0 -25 -25 -25h-57q-24 0 -24 24v676q-7 -3 -17 -8.5l-20 -11t-19 -9t-15 -3.5q-17 0 -22 21l-2 50
q-1 2 -1 7q0 17 19 27q10 5 24.5 12.5t28.5 14.5t27 12t21 5h56zM748 132q-16 0 -23.5 9.5t-7.5 23.5t11 27l15 24q93 148 185 293.5t186 293.5q8 18 22 18.5t28 0.5q10 0 20 -0.5t18 -3.5t13 -9t5 -17q0 -4 -1 -7v-544h67q14 0 22.5 -7t8.5 -21v-52q0 -13 -8.5 -21
t-22.5 -8h-67v-109q0 -27 -29 -27h-49q-28 0 -28 27v109h-365zM1113 241v369q-60 -93 -119.5 -184.5t-119.5 -184.5h239z" />
    <glyph glyph-name="onehalf" unicode="&#xbd;" horiz-adv-x="1576" 
d="M1037 1441q16 28 29.5 36t38.5 8h29q36 0 36 -16q-1 -6 -3.5 -15.5t-9.5 -21.5l-754 -1401q-19 -31 -53 -31h-42q-26 0 -26 16q0 9 9 26zM353 1487q26 0 26 -24v-768q0 -25 -25 -25h-57q-24 0 -24 24v676q-7 -3 -17 -8.5l-20 -11t-19 -9t-15 -3.5q-17 0 -22 21l-2 50
q-1 2 -1 7q0 17 19 27q10 5 24.5 12.5t28.5 14.5t27 12t21 5h56zM908 0q-11 0 -19 7.5t-8 18.5v52q0 2 1 5.5t3 8.5l372 366q33 33 44.5 59t11.5 59q0 31 -13 58t-35 47t-52 31t-64 11t-63.5 -12t-51 -33t-34 -49.5t-12.5 -61.5q0 -21 -4 -31t-12.5 -13.5t-22.5 -3t-33 0.5
h-9q-13 0 -18 5.5t-7 14.5v27q0 56 21.5 103t58 81.5t85 53.5t102.5 19q56 0 105.5 -17.5t87 -49.5t59.5 -77t22 -101q0 -55 -21 -100.5t-53 -77.5l-307 -297h370q25 0 25 -25v-53q0 -11 -7 -18.5t-18 -7.5h-504z" />
    <glyph glyph-name="threequarters" unicode="&#xbe;" horiz-adv-x="1426" 
d="M1071 1441q16 28 29.5 36t38.5 8h29q36 0 36 -16q-1 -6 -3.5 -15.5t-9.5 -21.5l-754 -1401q-19 -31 -53 -31h-42q-26 0 -26 16q0 9 9 26zM779 129q-16 0 -23.5 9.5t-7.5 23.5t11 27l15 24q93 148 185 293.5t186 293.5q8 18 22 18.5t28 0.5q10 0 20 -0.5t18 -3.5t13 -9
t5 -17q0 -4 -1 -7v-544h67q14 0 22.5 -7t8.5 -21v-52q0 -13 -8.5 -21t-22.5 -8h-67v-109q0 -27 -29 -27h-49q-28 0 -28 27v109h-365zM1144 238v369q-60 -93 -119.5 -184.5t-119.5 -184.5h239zM335 1190q26 0 47 8.5t36 23t23.5 33.5t8.5 41t-6.5 42.5t-20 36t-34.5 24.5
t-50 9q-55 0 -82 -32t-27 -83q0 -25 -26 -25h-54q-24 0 -24 24q0 53 17 93.5t46.5 67.5t68.5 40.5t83 13.5t83 -16t68.5 -43.5t46.5 -65.5t17 -83q0 -48 -18.5 -85.5t-51.5 -62.5q59 -34 92 -86.5t33 -133.5q0 -56 -20 -103.5t-56 -82t-85 -54t-107 -19.5q-57 0 -105.5 16
t-84.5 49.5t-56 85.5t-20 123q2 19 23 22h26h18t18.5 -1.5t14.5 -6.5t6 -14q0 -43 12.5 -74.5t34 -52.5t50.5 -31t63 -10q36 0 65.5 11t51 31t33.5 48.5t12 63.5q0 77 -46 115.5t-124 38.5q-14 0 -19.5 4.5t-5.5 17.5v58q0 24 25 24z" />
    <glyph glyph-name="logicalnot" unicode="&#xac;" horiz-adv-x="1099" 
d="M150 711q-38 0 -38 37v45q0 37 38 37h738q36 0 36 -37v-383q0 -17 -9.5 -26.5t-26.5 -9.5h-44q-17 0 -28 9.5t-11 26.5v301h-655z" />
    <glyph glyph-name="divide" unicode="&#xf7;" horiz-adv-x="1025" 
d="M842 675q17 0 27.5 -9t10.5 -27v-52q0 -16 -10 -26.5t-28 -10.5h-646q-38 0 -38 37v52q0 36 38 36h646zM446 86v18q0 20 15 26t35 6h34q33 0 42.5 -11.5t9.5 -38.5v-36q0 -23 -6 -36.5t-26 -13.5h-53q-26 0 -38.5 8.5t-12.5 28.5v49zM439 1207v18q0 20 15 26t35 6h34
q33 0 42.5 -11.5t9.5 -38.5v-36q0 -23 -6 -36.5t-26 -13.5h-53q-26 0 -38.5 8.5t-12.5 28.5v49z" />
    <glyph glyph-name="perthousand" unicode="&#x2030;" horiz-adv-x="2657" 
d="M1164 1377q13 22 26.5 42t30 35.5t36 24.5t45.5 9q50 0 50 -26v-6l-56 -91q-185 -336 -366.5 -670t-365.5 -670q-12 -25 -34 -25q-6 0 -9 1h-63q-26 3 -26 21q0 4 1 7v3q0 2 2 7zM106 1131q0 80 30 150t82 122.5t122.5 82.5t150.5 30t150 -30t122.5 -82.5t82.5 -122.5
t30 -150t-30 -150.5t-82.5 -122.5t-122.5 -82t-150 -30t-150.5 30t-122.5 82t-82 122.5t-30 150.5zM221 1131q0 -57 21 -106.5t57 -85.5t85.5 -57t106.5 -21q56 0 105 21t85 57t57 85.5t21 106.5q0 56 -21 105t-57 85t-85 57t-105 21q-57 0 -106.5 -21t-85.5 -57t-57 -85
t-21 -105zM938 363q0 80 30 150t82.5 122.5t122.5 82.5t150 30t150 -30t122.5 -82.5t82.5 -122.5t30 -150t-30 -150t-82.5 -122.5t-122.5 -82.5t-150 -30t-150 30t-122.5 82.5t-82.5 122.5t-30 150zM1053 363q0 -57 21 -106t57.5 -85.5t86 -57.5t105.5 -21t105 21t85 57.5
t57 85.5t21 106q0 59 -22 108.5t-59 85t-85.5 55t-101.5 19.5q-56 0 -105.5 -21t-86 -57t-57.5 -85t-21 -105zM1778 363q0 80 30 150t82 122.5t122.5 82.5t150.5 30t150 -30t122.5 -82.5t82.5 -122.5t30 -150t-30 -150t-82.5 -122.5t-122.5 -82.5t-150 -30t-150.5 30
t-122.5 82.5t-82 122.5t-30 150zM1893 363q0 -57 21 -106t57 -85.5t85.5 -57.5t106.5 -21q56 0 105 21t85 57.5t57 85.5t21 106q0 58 -22 107.5t-59 85t-85.5 55.5t-101.5 20q-57 0 -106.5 -21t-85.5 -57t-57 -85t-21 -105z" />
    <glyph glyph-name="multiply" unicode="&#xd7;" horiz-adv-x="900" 
d="M278 395q-13 -13 -28 -13q-14 0 -24 11l-36 36q-13 13 -13 29q0 14 12 26l185 184l-183 184q-13 12 -13 26t13 27l37 36q13 13 26 13q11 0 26 -13l183 -183l183 183q15 13 27 13q14 -2 28 -14l36 -36q12 -12 12 -25t-14 -27l-183 -184l185 -184q12 -12 12 -27
q0 -14 -11 -25l-37 -37q-13 -13 -26 -13q-14 0 -27 13l-185 184z" />
    <glyph glyph-name="currency" unicode="&#xa4;" horiz-adv-x="1079" 
d="M153 235q0 18 16 33l53 54q-38 52 -57 110.5t-19 120.5q0 60 18 117t56 109q-14 13 -26 25.5t-26 26.5q-6 6 -11 15t-5 18t5 18.5t12.5 17t16.5 12t17 4.5q9 0 17.5 -5t15.5 -11q14 -14 26 -26.5t26 -25.5q53 42 114.5 63.5t124.5 21.5q61 0 119.5 -20t109.5 -58l46 46
h-1q13 15 33 15q7 0 16.5 -4.5t17 -11.5t13 -16t5.5 -18t-5 -17t-12 -16q-11 -12 -21.5 -22t-21.5 -22q42 -52 62.5 -113t20.5 -124t-21 -126t-62 -115l43 -44q15 -14 15 -33q0 -8 -4.5 -16.5t-11.5 -16t-15.5 -12.5t-17.5 -5q-20 0 -34 15l-45 46q-52 -39 -110.5 -59
t-115.5 -20q-66 0 -127.5 22t-112.5 65l-53 -54q-14 -15 -34 -15q-9 0 -17.5 5t-16 12.5t-12 16.5t-4.5 17zM322 757q-44 -43 -64 -95.5t-20 -108.5q0 -60 23 -113t63 -93t92.5 -63.5t111.5 -23.5q58 0 110 23t92 62.5t63.5 92.5t23.5 113q0 59 -23 112t-62.5 92.5
t-92.5 62.5t-113 23q-57 0 -109.5 -21t-94.5 -63z" />
    <glyph glyph-name="copyright" unicode="&#xa9;" horiz-adv-x="1726" 
d="M1148 1107q14 -11 14 -24q0 -6 -7 -19.5t-16.5 -27.5t-20 -25t-16.5 -11q-9 0 -21 9q-45 32 -94 49.5t-105 17.5q-70 0 -131.5 -27t-107 -72.5t-71.5 -106.5t-26 -129q0 -69 27 -130t72.5 -106.5t106 -72.5t127.5 -27q49 0 95 13.5t88 42.5q9 5 20 13t20 8q11 0 22 -14
q4 -8 10.5 -17.5t12.5 -19.5t10 -18.5t4 -14.5t-3 -12t-11 -11q-58 -43 -125 -64.5t-141 -21.5q-93 0 -175.5 35.5t-143.5 97t-96.5 143.5t-35.5 176q0 93 36 175.5t98 144t144.5 97t176.5 35.5q73 0 139.5 -22.5t123.5 -63.5zM102 743q0 104 27 201t76.5 181.5t119 154
t154.5 119.5t182 77.5t203 27.5q104 0 201 -27.5t181.5 -77t154.5 -119t119.5 -154.5t77 -183t27.5 -203q0 -104 -27.5 -201t-77 -181t-119 -153.5t-154.5 -119t-182.5 -77t-202.5 -27.5q-104 0 -201 27t-181.5 76.5t-154 119t-119 154.5t-77 182t-27.5 203zM244 584
q22 -108 80 -199.5t141 -158t186.5 -104.5t216.5 -38q93 0 178 25.5t158 71t132 108t101 136.5t64.5 156t22.5 167q0 95 -25 180t-69 157t-105.5 129.5t-134 98t-154.5 62.5t-167 22q-146 0 -265.5 -55t-205 -145t-132.5 -205t-47 -235q0 -43 6 -86.5t19 -86.5z" />
    <glyph glyph-name="registered" unicode="&#xae;" horiz-adv-x="1756" 
d="M607 319q-11 0 -19.5 5t-8.5 23v796q0 35 34 35h321q59 -1 110 -24t88.5 -62t59 -90t21.5 -109q0 -41 -10.5 -78t-30 -69.5t-46 -59t-59.5 -45.5l138 -286l4.5 -9t2.5 -10q0 -6 -7 -11.5t-30 -5.5h-44q-12 0 -21.5 6.5t-16.5 15t-11.5 17.5t-6.5 14q-28 61 -56 120.5
t-57 120.5q-17 -2 -33.5 -3.5t-33.5 -1.5h-208v-261q0 -16 -8.5 -22t-18.5 -6h-53zM1103 893q0 35 -13 67t-36 57t-54.5 39.5t-68.5 14.5h-244v-353h244q36 0 67.5 14t54.5 38t36.5 55.5t13.5 67.5zM119 741q0 105 27 202.5t76.5 182t119 154.5t154.5 119.5t182 77t203 27.5
q104 0 201.5 -27.5t182 -77t154 -119t119 -154.5t77 -183t27.5 -203t-27.5 -202t-77 -181.5t-119 -153.5t-154 -118.5t-182 -76.5t-202.5 -27t-202.5 27t-182 76.5t-154 119t-119 154t-76.5 181.5t-27 202zM236 742q0 -134 50.5 -251t138 -204.5t205 -138t251.5 -50.5
q89 0 171 23t153.5 65t130.5 100.5t101 130t65 154t23 171.5q0 133 -51 250t-138.5 204.5t-204.5 138.5t-250 51q-89 0 -171.5 -23t-154.5 -65t-130.5 -101t-100.5 -130.5t-65 -154t-23 -170.5z" />
    <glyph glyph-name="B" unicode="B" horiz-adv-x="1338" 
d="M791 1486q83 0 155 -29.5t125.5 -82t84 -123.5t30.5 -153q0 -99 -46 -180t-122 -132q53 -22 97.5 -60.5t77 -87.5t50.5 -107t18 -119q0 -82 -30.5 -156t-83.5 -130.5t-125 -90.5t-155 -35h-674q-14 1 -21.5 9t-9.5 20v1419q0 25 11 31.5t22 6.5h596zM1135 411
q0 57 -22.5 110t-60 94t-87.5 65.5t-105 24.5h-574v-581h581q54 0 102.5 23.5t85.5 62.5t58.5 91t21.5 110zM1060 1097q0 57 -21 105.5t-57 84t-85.5 55.5t-106.5 20h-504v-533h503q57 0 106 20.5t86 56.5t58 85t21 106z" />
    <glyph glyph-name="G" unicode="G" horiz-adv-x="1484" 
d="M862 1385q-91 0 -174.5 -24t-155 -66.5t-130 -102t-99.5 -131.5t-63.5 -153.5t-22.5 -167.5q0 -89 23.5 -171.5t65.5 -154t101 -130t131 -100.5t153.5 -65t169.5 -23q114 0 211 35.5t166 87.5v402q0 37 37 37h42q17 0 27 -9.5t10 -27.5v-445q0 -11 -6.5 -19.5
t-18.5 -17.5q-100 -71 -217 -114.5t-252 -43.5q-105 0 -202.5 27t-181.5 76.5t-153.5 118.5t-118.5 153.5t-76 182t-27 202.5q0 104 27 201.5t76.5 182t118.5 154t153.5 119.5t182 77.5t202.5 27.5q154 0 294 -60q24 -11 57.5 -28t64 -36t52 -37.5t21.5 -32.5q0 -11 -8 -21
l-27 -34q-7 -8 -13.5 -13t-14.5 -5q-15 0 -40 18q-87 63 -183.5 97t-201.5 34z" />
    <glyph glyph-name="quotesinglbase" unicode="&#x201a;" horiz-adv-x="428" 
d="M146.963 88.7939q0 23.3203 15.2607 28.2529q15.2607 4.93359 36.8057 4.93359h24.2383q21.5449 0 32.7666 -7.62402q11.2207 -7.62402 11.2207 -25.5625v-67.2686q0 -36.7725 -5.83496 -72.2012q-5.83496 -35.4277 -16.1582 -63.2324
q-10.3242 -27.8037 -23.7891 -45.2939q-13.4658 -17.4893 -27.8291 -17.4893q-3.59082 0 -8.97754 2.69043q-5.38574 2.69043 -8.0791 6.27832l-17.9541 18.835q-5.38672 6.27832 -5.38672 18.8359q0.898438 7.1748 6.7334 14.7988t12.1191 17.9385t11.2207 22.8711
q4.9375 12.5566 4.9375 30.4951v24.2158q0 9.86621 -6.28418 14.3506q-6.2832 4.48535 -14.3633 8.07227q-8.0791 3.58789 -14.3633 8.96973q-6.2832 5.38086 -6.2832 17.9375v59.1963z" />
    <glyph glyph-name="quotedblbase" unicode="&#x201e;" horiz-adv-x="607" 
d="M136.963 88.7939q0 23.3203 15.2607 28.2529q15.2607 4.93359 36.8057 4.93359h24.2383q21.5449 0 32.7666 -7.62402q11.2207 -7.62402 11.2207 -25.5625v-67.2686q0 -36.7725 -5.83496 -72.2012q-5.83496 -35.4277 -16.1582 -63.2324
q-10.3242 -27.8037 -23.7891 -45.2939q-13.4658 -17.4893 -27.8291 -17.4893q-3.59082 0 -8.97754 2.69043q-5.38574 2.69043 -8.0791 6.27832l-17.9541 18.835q-5.38672 6.27832 -5.38672 18.8359q0.898438 7.1748 6.7334 14.7988t12.1191 17.9385t11.2207 22.8711
q4.9375 12.5566 4.9375 30.4951v24.2158q0 9.86621 -6.28418 14.3506q-6.2832 4.48535 -14.3633 8.07227q-8.0791 3.58789 -14.3633 8.96973q-6.2832 5.38086 -6.2832 17.9375v59.1963zM359.963 88.7939q0 23.3203 15.2607 28.2529q15.2607 4.93359 36.8057 4.93359h24.2383
q21.5449 0 32.7666 -7.62402q11.2207 -7.62402 11.2207 -25.5625v-67.2686q0 -36.7725 -5.83496 -72.2012q-5.83496 -35.4277 -16.1582 -63.2324q-10.3242 -27.8037 -23.7891 -45.2939q-13.4658 -17.4893 -27.8291 -17.4893q-3.59082 0 -8.97754 2.69043
q-5.38574 2.69043 -8.0791 6.27832l-17.9541 18.835q-5.38672 6.27832 -5.38672 18.8359q0.898438 7.1748 6.7334 14.7988t12.1191 17.9385t11.2207 22.8711q4.9375 12.5566 4.9375 30.4951v24.2158q0 9.86621 -6.28418 14.3506q-6.2832 4.48535 -14.3633 8.07227
q-8.0791 3.58789 -14.3633 8.96973q-6.2832 5.38086 -6.2832 17.9375v59.1963z" />
    <glyph glyph-name="guilsinglleft" unicode="&#x2039;" horiz-adv-x="830" 
d="M97 543q-6 8 -6 16q8 11 16.5 21.5t19.5 21.5l468 465q9 9 23.5 22.5t25.5 15.5q1 0 11.5 -5.5t23 -14t23 -19t10.5 -20.5q0 -6 -2 -13.5t-7 -12.5l-463 -464l461 -461q5 -5 7 -13.5t2 -12.5q0 -5 -5.5 -15.5t-14.5 -21t-19.5 -18.5t-19.5 -8q-11 0 -22 8t-20 17z" />
    <glyph glyph-name="germandbls" unicode="&#xdf;" horiz-adv-x="1132" 
d="M160 1128q2 87 35.5 158.5t88.5 123t128 80t155 28.5q84 0 158.5 -28.5t131 -79.5t89 -122t32.5 -157q0 -45 -11 -87.5t-30.5 -80t-45 -68t-55.5 -50.5q120 -58 183 -165t63 -247q0 -104 -39 -193.5t-107 -155.5t-159.5 -103.5t-196.5 -37.5q-21 0 -33.5 5t-19 13
t-8 19.5t-1.5 23.5t1 23t7 19.5t19 14t37 5.5q68 0 135 26t120.5 74t87 115t33.5 150q0 81 -23 146t-71 110t-121.5 69.5t-173.5 24.5q-16 0 -30.5 7.5t-14.5 29.5v43q0 23 13 31t30 8h11q57 0 107 13.5t87.5 41.5t59 71t21.5 103q0 62 -21.5 112t-60 85t-91 54t-115.5 19
q-64 0 -117.5 -24t-92 -68t-60 -105.5t-21.5 -136.5l1 -1414q0 -36 -36 -36h-41q-39 0 -39 36z" />
    <glyph glyph-name="O" unicode="O" horiz-adv-x="1727" 
d="M89 741q0 105 27 202.5t76.5 182t119 154.5t154.5 119.5t182 77t203 27.5q104 0 201.5 -27.5t182 -77t154 -119t119 -154.5t77 -183t27.5 -203t-27.5 -202t-77 -181.5t-119 -153.5t-154 -118.5t-182 -76.5t-202.5 -27t-202.5 27t-182 76.5t-154 119t-119 154t-76.5 181.5
t-27 202zM206 742q0 -134 50.5 -251t138 -204.5t205 -138t251.5 -50.5q89 0 171 23t153.5 65t130.5 100.5t101 130t65 154t23 171.5q0 133 -51 250t-138.5 204.5t-204.5 138.5t-250 51q-89 0 -171.5 -23t-154.5 -65t-130.5 -101t-100.5 -130.5t-65 -154t-23 -170.5z" />
    <glyph glyph-name="Q" unicode="Q" horiz-adv-x="1727" 
d="M90 741q0 105 27 202.5t76.5 182t119 154.5t154 119.5t182 77t202.5 27.5t202 -27.5t181.5 -77t154.5 -119t119.5 -154.5t77 -183t27.5 -203q0 -100 -25 -193t-70.5 -174.5t-109.5 -149.5t-142 -118.5t-168.5 -81.5t-188.5 -38v-233q-1 -37 -38 -37h-41q-36 0 -36 38v232
q-148 10 -276.5 73t-223.5 164.5t-149.5 234.5t-54.5 284zM207 742q0 -134 50.5 -251t138 -204.5t204.5 -138t251 -50.5q133 0 250.5 50.5t205 138t138 204.5t50.5 251q0 88 -23 170.5t-65 154t-101 130.5t-130.5 101t-153.5 65t-171 23t-171.5 -23t-154 -65t-130 -101
t-100.5 -130.5t-65 -154t-23 -170.5z" />
    <glyph glyph-name="a" unicode="a" horiz-adv-x="1567" 
d="M1309 200l-3 76q-40 -69 -96.5 -124.5t-125 -94.5t-146.5 -60t-162 -21q-90 0 -173.5 23.5t-156.5 67t-133.5 103.5t-103.5 133t-66.5 156.5t-23.5 173.5t23.5 173.5t67 156.5t103.5 133t133 103.5t156.5 67t173.5 23.5q82 0 160.5 -21t147.5 -60.5t126.5 -95.5
t98.5 -125v74v172q0 32 31 32h52q34 0 34 -32v-1202q0 -17 -11 -24.5t-26 -7.5h-41q-39 0 -39 36v164zM1315 633q0 109 -44 207.5t-118 173t-172 118.5t-206 45h-3q-107 0 -203.5 -44t-169.5 -118.5t-116 -172.5t-43 -207t41.5 -208.5t113.5 -175t168.5 -120t206.5 -44.5
q111 0 210.5 43.5t173.5 118t117.5 173.5t43.5 211z" />
    <glyph glyph-name="b" unicode="b" horiz-adv-x="1578" 
d="M165 1621q0 27 27 27l71 -1q8 0 13 -5t5 -12v-643q27 37 47 65.5t47 56.5q43 40 93.5 73t106.5 56.5t116 36.5t123 13q90 0 173.5 -23.5t156.5 -66.5t133 -103t103 -133t66.5 -157t23.5 -174t-23.5 -174t-66.5 -156.5t-103 -132.5t-133 -103t-156.5 -66.5t-173.5 -23.5
q-125 0 -236.5 45t-200.5 129q-26 24 -49 58t-43 67l-4 -74v-168q0 -32 -32 -32h-52q-32 0 -32 32v1589zM1347 631q0 111 -42.5 210t-115 174t-170.5 118.5t-209 43.5t-209 -44.5t-171 -119.5t-115 -174.5t-42 -209.5q0 -112 43 -211t117.5 -172.5t173.5 -116t210 -42.5
q110 0 206.5 44t168.5 118.5t113.5 173t41.5 208.5z" />
    <glyph glyph-name="d" unicode="d" horiz-adv-x="1567" 
d="M1426 32q0 -32 -32 -32h-52q-32 0 -32 32v168l-4 74q-20 -33 -43 -67t-49 -58q-89 -84 -200.5 -129t-236.5 -45q-90 0 -173.5 23.5t-156.5 66.5t-133 103t-103 132.5t-66.5 156.5t-23.5 174t23.5 174t66.5 157t103 133t133 103t156.5 66.5t173.5 23.5q63 0 123 -13
t116 -36.5t106.5 -56.5t93.5 -73q27 -28 47 -56.5t47 -65.5v643q0 7 5 12t13 5l71 1q27 0 27 -27v-1589zM244 631q0 -110 41.5 -208.5t113.5 -173t168.5 -118.5t206.5 -44q111 0 210 42.5t173.5 116t117.5 172.5t43 211q0 110 -42 209.5t-115 174.5t-171 119.5t-209 44.5
t-209 -43.5t-170.5 -118.5t-115 -174t-42.5 -210z" />
    <glyph glyph-name="e" unicode="e" horiz-adv-x="1512" 
d="M217 589q3 -17 4.5 -45.5t8.5 -53.5q25 -89 73.5 -163t115.5 -127t149.5 -83t174.5 -30q53 0 99 8t85.5 22.5t75 34.5t67.5 44q10 6 20.5 14.5t20.5 16t18.5 13t15.5 5.5q8 0 18 -13q17 -24 24.5 -37t7.5 -20q0 -4 -4 -8q5 -5 5 -10q-11 -14 -27 -29t-38 -30
q-81 -57 -175 -90t-205 -33q-135 0 -254.5 51.5t-209 141t-142 208.5t-52.5 254q0 91 23 175t65 157t101.5 133t133 103t158 66.5t177.5 23.5q87 0 168.5 -21t153.5 -61t131.5 -98t102.5 -131t68 -161t28 -188v1q0 -1 0.5 -2.5t0.5 -3.5q0 -34 -32 -34h-1155zM609 1154
q-76 -20 -142 -63t-117 -102t-85.5 -131t-47.5 -151h1070q-12 100 -59.5 185.5t-119.5 148t-163.5 98t-191.5 35.5q-34 0 -66 -3.5t-78 -16.5z" />
    <glyph glyph-name="f" unicode="f" horiz-adv-x="696" 
d="M593 1161q17 0 26.5 -8.5t9.5 -26.5v-32q0 -19 -9.5 -29t-26.5 -10h-217v-1018q0 -19 -10.5 -28t-25.5 -9h-47q-33 0 -33 37v1018h-154q-17 0 -26.5 10t-9.5 29v32q0 18 9.5 26.5t26.5 8.5h154v202q0 82 26.5 148.5t73 114t111 73t139.5 25.5q19 0 29 -10.5t10 -27.5v-43
q0 -17 -10 -25.5t-25 -8.5q-50 0 -93.5 -17.5t-75.5 -53t-50.5 -89.5t-18.5 -128v-160h217z" />
    <glyph glyph-name="g" unicode="g" horiz-adv-x="1584" 
d="M1321 988q1 15 1 31t2 32v182q0 17 10.5 27t27.5 10h41q18 0 28 -11.5t10 -26.5v-1041q0 -2 -0.5 -4t-0.5 -3q-3 -117 -28.5 -210t-69 -164t-102 -121.5t-127.5 -82.5t-144.5 -47t-153.5 -15q-109 0 -196.5 24t-162.5 69q-10 5 -15.5 11.5t-5.5 17.5q0 9 1 14t5 11.5
t13 18.5t24 35q5 8 14 6.5t16 -4.5q12 -9 43 -24t72.5 -29t90.5 -24t98 -10q109 0 203 33.5t163 98.5t108.5 160.5t39.5 220.5v109q-40 -72 -98 -129t-128 -96t-148.5 -60t-159.5 -21q-90 0 -173.5 23.5t-156.5 66.5t-133.5 103t-103.5 133t-66.5 157t-23.5 174t24 174
t67 157t103.5 133t133.5 103t156 66.5t173 23.5q82 0 160.5 -21.5t147.5 -61t125.5 -95.5t95.5 -124zM254 633q0 -73 19 -141.5t53.5 -129t83 -111t107.5 -87t127 -57t141 -20.5q103 0 195.5 37t164.5 101.5t119.5 152t59.5 187.5v131q-12 100 -58.5 187.5t-117.5 153
t-162 103t-194 37.5q-74 0 -143 -19.5t-128.5 -55t-108.5 -85.5t-84.5 -110.5t-54.5 -130t-19 -143.5z" />
    <glyph glyph-name="h" unicode="h" horiz-adv-x="1360" 
d="M1107 758q-3 78 -30 152.5t-76 132.5t-119 93.5t-159 35.5q-78 0 -153 -27.5t-134.5 -78t-97.5 -122t-41 -158.5v-757q0 -32 -30 -32h-53q-32 0 -32 32v1603q0 31 31 31h53q31 0 31 -31v-566h3q33 51 78.5 92t100.5 70.5t118.5 45t132.5 15.5q110 0 201 -42t156 -115
t100.5 -170t35.5 -208v-713q0 -22 -11 -33t-29 -11h-37q-23 0 -31 10t-8 33v718z" />
    <glyph glyph-name="i" unicode="i" 
d="M137 1633q0 19 5.5 31t22.5 14h19h54q19 -2 24 -14.5t5 -30.5v-38q0 -29 -9.5 -37t-36.5 -8h-36q-26 0 -37 7t-11 25v51zM143 1232q0 32 32 32h53q32 0 32 -32v-1200q0 -32 -31 -32h-52q-34 0 -34 32v1200z" />
    <glyph glyph-name="j" unicode="j" 
d="M170 1227q-1 19 10 28t28 9h49q37 0 37 -37v-1285q-4 -68 -32.5 -130.5t-75 -110.5t-108 -77t-130.5 -29q-21 0 -35 8t-14 26v34q0 18 12 26t27 8q49 0 91.5 19.5t73.5 54t49 80t18 97.5v1279zM163 1633q0 19 4.5 31t21.5 14h17h64q17 -3 23 -11t6 -39v-39
q0 -20 -10.5 -30t-48.5 -10h-34q-23 0 -33 8.5t-10 28.5v47z" />
    <glyph glyph-name="k" unicode="k" horiz-adv-x="1274" 
d="M283 636q69 68 149.5 147.5t163 161t163 160.5t150.5 148q5 5 11 8.5t14 3.5h90q11 0 15.5 -6.5t6.5 -13.5q0 -12 -7 -24q-116 -114 -231.5 -226.5t-231.5 -227.5l629 -721q9 -14 9 -24t-10 -14.5t-24 -6t-29.5 -1t-26.5 0.5q-16 0 -30.5 3t-20.5 16l-49 55l-528 613
l-213 -203v-453q0 -32 -32 -32h-53q-31 0 -31 32v1585q0 31 31 31h53q14 0 23 -8.5t9 -22.5v-981v0z" />
    <glyph glyph-name="l" unicode="l" horiz-adv-x="437" 
d="M160 1617q0 31 32 31h52q33 0 33 -31v-1586q0 -31 -32 -31h-52q-33 0 -33 31v1586z" />
    <glyph glyph-name="m" unicode="m" horiz-adv-x="2098" 
d="M647 1166q-69 0 -133 -24t-114 -68t-82 -105.5t-36 -136.5v-510q0 -3 -0.5 -6t-0.5 -5v-279q0 -32 -31 -32h-52q-33 0 -33 32v1200q0 17 11.5 25.5t27.5 8.5h41q18 0 27.5 -10.5t9.5 -26.5v-152q35 48 74 86t84.5 65t98 41t115.5 14q150 0 256 -71t165 -195q28 67 72 117
t99 83t119 49.5t132 16.5q96 0 176.5 -32.5t141 -88.5t98.5 -132t50 -164q5 -34 6 -69t1 -70v-682q0 -23 -11 -34t-29 -11h-38q-23 0 -30.5 10t-7.5 33v751q-3 70 -28 137.5t-71 119.5t-112.5 84t-151.5 32q-69 0 -128.5 -22t-106 -61t-77.5 -92.5t-41 -116.5
q-12 -69 -12 -145v-686q0 -22 -11 -33t-29 -11h-38q-23 0 -31 10t-8 33v687q0 32 -1.5 65.5t-6.5 66.5q-9 62 -38 117t-75 96.5t-107 66t-134 24.5z" />
    <glyph glyph-name="n" unicode="n" horiz-adv-x="1360" 
d="M181 1227q0 18 10.5 27.5t27.5 9.5h41q18 0 27.5 -10.5t9.5 -26.5v-147q43 65 97 106.5t111 65t112.5 32t102.5 8.5q115 0 210 -42t162 -115t104 -170t37 -207v-714q0 -22 -11 -33t-29 -11h-37q-23 0 -31 10t-8 33v718q-3 78 -31 152.5t-79 132.5t-125 93.5t-169 35.5
q-77 0 -150.5 -28.5t-131.5 -80t-94.5 -123.5t-39.5 -159v-752q0 -32 -30 -32h-53q-32 0 -32 32v277q-1 3 -1 11v907z" />
    <glyph glyph-name="o" unicode="o" horiz-adv-x="1498" 
d="M100 631q0 90 23.5 174t66.5 157t103 133t133 103t156.5 66.5t173.5 23.5t173.5 -23.5t156.5 -66.5t133.5 -103t103.5 -133t66.5 -157t23.5 -174t-23.5 -174t-66.5 -157t-103.5 -133t-133.5 -103t-156.5 -66.5t-173.5 -23.5t-173.5 23.5t-156.5 66.5t-133 103t-103 133
t-66.5 157t-23.5 174zM220 631q0 -73 19 -141.5t53.5 -129t83 -111t108 -86.5t127 -56t141.5 -20q111 0 209.5 42.5t172.5 116t117 172t43 211.5q0 110 -42 209.5t-114.5 174.5t-170 119.5t-208.5 44.5t-209.5 -43.5t-171.5 -118.5t-115.5 -174t-42.5 -210z" />
    <glyph glyph-name="p" unicode="p" horiz-adv-x="1569" 
d="M165 1230q0 32 32 32h56q32 0 32 -32v-242q20 33 43 67t49 58q89 84 200.5 129t236.5 45q90 0 173.5 -23.5t156.5 -66.5t133 -103t103 -132.5t66.5 -156.5t23.5 -174t-23.5 -174t-66.5 -157t-103 -133t-133 -103t-156.5 -66.5t-173.5 -23.5q-63 0 -123 13t-116 36.5
t-106.5 56.5t-93.5 73q-27 28 -47 56.5t-47 65.5v-643q0 -7 -5 -12t-13 -5l-71 -1q-27 0 -27 27v1589zM1347 631q0 109 -41.5 208t-113.5 173.5t-168.5 118.5t-206.5 44q-111 0 -210 -42.5t-173.5 -116t-117.5 -172.5t-43 -211q0 -110 42 -209.5t115 -174.5t171 -119.5
t209 -44.5t209 43.5t170.5 118.5t115 174t42.5 210z" />
    <glyph glyph-name="q" unicode="q" horiz-adv-x="1556" 
d="M1391 -359q0 -27 -27 -27l-71 1q-8 0 -13 5t-5 12v643q-27 -37 -47 -65.5t-47 -56.5q-43 -40 -93.5 -73t-106.5 -56.5t-116 -36.5t-123 -13q-90 0 -173.5 23.5t-156.5 66.5t-133 103t-103 133t-66.5 157t-23.5 174t23.5 174t66.5 156.5t103 132.5t133 103t156.5 66.5
t173.5 23.5q125 0 236.5 -45t200.5 -129q26 -24 49 -58t43 -67l4 74v168q0 32 32 32h52q32 0 32 -32v-1589zM209 631q0 -111 42.5 -210t115 -174t170.5 -118.5t209 -43.5t209 44.5t171 119.5t115 174.5t42 209.5q0 112 -43 211t-117.5 172.5t-173.5 116t-210 42.5
q-110 0 -206.5 -44t-168.5 -118.5t-113.5 -173.5t-41.5 -208z" />
    <glyph glyph-name="r" unicode="r" horiz-adv-x="1085" 
d="M943 1058q-5 -5 -11 -5q-7 0 -16.5 4t-24.5 15q-21 15 -49.5 30.5t-60 29t-64 22t-63.5 8.5q-77 0 -145 -27t-119 -76.5t-80.5 -121t-29.5 -159.5v-747q0 -31 -32 -31h-53q-33 0 -33 31v1201q0 27 28 27q3 0 5 -1q2 1 7 1h41q18 0 27.5 -10.5t9.5 -26.5v-163q21 39 55 77
t80 68.5t102.5 49.5t121.5 19q52 0 96.5 -7t84.5 -21t77 -35.5t74 -50.5q10 -8 18 -17t8 -21q0 -9 -17 -27.5t-37 -35.5z" />
    <glyph glyph-name="s" unicode="s" horiz-adv-x="1050" 
d="M85 264q-2 5 -3 9.5t-1 8.5q0 13 7 19t18 11l39 17q2 1 7.5 1.5t7.5 0.5q8 0 14 -9t11 -21.5t9.5 -27t10.5 -25.5q19 -41 55 -71.5t78 -50t85.5 -29t79.5 -9.5q45 0 101.5 13.5t106 42.5t83.5 76t34 115q0 61 -30 105.5t-77 75.5t-106 51t-117 33q-74 18 -143 48
t-122 72.5t-85 98t-32 124.5q0 79 28.5 143t80.5 109.5t125 70t162 24.5q73 0 134 -18.5t110 -52.5t85 -82.5t60 -107.5l-1 1q6 -9 6 -15q0 -9 -8 -17.5t-19 -15.5t-21.5 -11t-16.5 -4q-11 0 -17 4t-10.5 11t-9 17.5t-11.5 22.5q-41 67 -112 110.5t-170 43.5
q-54 0 -103.5 -14t-88 -42.5t-61 -72t-22.5 -101.5q0 -50 30 -89t74.5 -67.5t95.5 -47t93 -28.5l10 -2.5t3 -0.5q91 -21 166 -54.5t128 -79.5t82 -105.5t29 -134.5q0 -86 -36 -153.5t-97.5 -114t-142 -71t-168.5 -24.5q-74 0 -142 19t-123.5 56t-95.5 91t-57 124z" />
    <glyph glyph-name="t" unicode="t" horiz-adv-x="623" 
d="M557 48l0.5 -4.5t0.5 -10.5v-12v-9q0 -9 -7 -14.5t-17 -8.5t-20.5 -3.5t-16.5 -0.5q-54 0 -102.5 13.5t-85.5 43.5t-58.5 78t-21.5 116v924h-173q-17 0 -25 7t-8 24v47q0 17 8 23t25 6h173v315q0 10 8 16q4 3 9 5q-1 0 7 3.5t19 7.5t22.5 7.5t17.5 3.5q20 0 26.5 -10
t6.5 -27v-321h224q33 0 33 -32v-40q0 -35 -33 -35h-224v-845q0 -44 3.5 -83t14.5 -68.5t31.5 -47t55.5 -17.5h23q30 0 46.5 -3.5t25 -10t10.5 -17t2 -23.5v3z" />
    <glyph glyph-name="u" unicode="u" horiz-adv-x="1355" 
d="M1093 142l-3 62q-33 -51 -75 -92t-93 -70t-111 -44.5t-130 -15.5q-116 0 -213 42t-167 114t-109.5 169.5t-39.5 208.5v714q0 22 11 33t30 11h38q23 0 30.5 -10t7.5 -33v-720q2 -80 32 -154t84 -132t130.5 -92.5t172.5 -34.5q79 0 151 29.5t128 82.5t90 126.5t36 161.5
v744q0 32 32 32h52q33 0 33 -32v-1200q0 -42 -37 -42h-41q-39 0 -39 36v106z" />
    <glyph glyph-name="v" unicode="v" horiz-adv-x="1176" 
d="M594 185q26 63 59 142t69 166t73.5 179.5t73.5 182t69 173.5t59 154q12 31 22 48t22 25t27 9.5t36 1.5q22 0 31 -6.5t9 -20.5q0 -5 -1.5 -10.5t-1.5 -7.5l-469 -1139l-14 -32t-13 -32q-9 -14 -27.5 -16.5t-43.5 -2.5q-14 0 -23.5 7.5t-9.5 17.5l-497 1197q-4 4 -4 19
q0 19 17 22.5t44 3.5q19 0 36 -3.5t24 -19.5q30 -74 66 -161.5t74.5 -182t78 -192.5t78 -191t73 -177.5t63.5 -153.5z" />
    <glyph glyph-name="w" unicode="w" horiz-adv-x="1902" 
d="M942 1060q20 48 41 95t43 95q8 11 23.5 13.5t32.5 2.5q32 0 45 -5t13 -23q0 -4 -1.5 -10t-2.5 -8v1q-31 -75 -62 -149t-62 -149q74 -181 150.5 -369t151.5 -369q28 68 62.5 152t72 176.5t76.5 189.5t77.5 191.5t74 182.5t65.5 162q4 8 14.5 13t23.5 8t27 4t26 1
q16 0 23.5 -8t7.5 -19q0 -4 -1.5 -10t-2.5 -7l-495 -1203q-4 -8 -13.5 -13.5t-24.5 -5.5h-33q-14 0 -23.5 7.5t-9.5 17.5q-78 188 -155 373.5t-155 373.5q-34 -83 -70 -170.5t-72.5 -176t-72.5 -176.5t-70 -171l-25 -59q-10 -19 -38 -19h-33q-13 0 -23.5 7.5t-10.5 17.5
l-497 1197q-2 4 -2 17q0 20 17.5 23.5t44.5 3.5q19 0 35.5 -4t22.5 -18q30 -74 66 -161.5t74.5 -182t78 -192.5t78 -191t73 -177.5t63.5 -153.5q64 155 152 375t201 500h-1v0z" />
    <glyph glyph-name="x" unicode="x" horiz-adv-x="1066" 
d="M175 16v1q-7 -8 -13 -12.5t-14 -4.5h-74q-4 -2 -5 -2t-7 1t-12.5 3t-11.5 5.5t-5 8.5q0 8 8 21l419 610q-87 129 -166.5 245t-153.5 223l-75 109h1q-8 13 -8 21q0 10 14.5 15t29.5 5h65q11 0 16.5 -4.5t14.5 -15.5l331 -505q85 125 167.5 249t167.5 249q16 20 38.5 23.5
t43.5 3.5q20 0 37.5 -2.5t19.5 -13.5q0 -9 -9 -25l-75 -109q-38 -55 -75.5 -110t-77 -112.5t-81 -118t-86.5 -127.5q104 -152 209.5 -305t209.5 -305l3 -6q4 -8 4 -16q-2 -8 -13 -12.5t-20 -4.5q-3 0 -5 2h-75q-13 0 -26 16l-357 541z" />
    <glyph glyph-name="y" unicode="y" horiz-adv-x="1176" 
d="M496 -358q-8 -20 -27.5 -24.5t-40.5 -4.5q-31 0 -45 6t-14 27q0 5 1 10t2 7l154 387l-484 1166q-4 4 -4 21q0 21 17 25.5t49 4.5q20 0 38 -4t25 -21l24 -58q28 -68 61 -150t68.5 -170t72.5 -178.5t72.5 -177t67.5 -165t59 -142.5q28 68 62 151t71 174t75.5 186
t75.5 187.5t72 179t65 159.5q11 29 39 29h55q37 0 37 -32q0 -5 -2 -11t-2 -8z" />
    <glyph glyph-name="z" unicode="z" horiz-adv-x="1185" 
d="M1052 109q17 0 26.5 -8.5t9.5 -25.5v-37q0 -16 -9.5 -27t-26.5 -11h-904q-15 0 -24.5 10t-10.5 24v6q0 15 0.5 32.5t6.5 25.5q54 72 120 157t138.5 177.5t148 188.5t148.5 189t140 180t123 161h-787q-36 0 -36 39v36q0 38 36 38h444t445 1h5q23 0 32 -10.5t9 -37.5v-9
t-1 -9v-22q0 -12 -5 -22.5t-12.5 -20t-16 -19t-15.5 -18.5l-767 -988h783z" />
    <glyph glyph-name="c" unicode="c" horiz-adv-x="1264" 
d="M1129 1034l-5 -5t-8 -3q-8 0 -19 11q-12 12 -38.5 35t-70.5 46.5t-106.5 41t-146.5 17.5q-106 0 -203 -43t-171 -117t-118 -173t-44 -210t42.5 -210t115.5 -174t169.5 -119t204.5 -44q53 0 98 8t85 22.5t75 34.5t69 44q7 5 17.5 13.5t21 16t19.5 13t15 5.5q9 0 20 -12
q17 -23 24.5 -36.5t7.5 -20.5q0 -4 -4 -8q4 -6 4 -10q-22 -30 -64 -59q-81 -57 -174.5 -90t-205.5 -33q-89 0 -172.5 23.5t-156.5 66.5t-133.5 103t-104 133t-67.5 156.5t-24 173.5t24 174t67.5 157t104 133t133.5 103t156.5 66.5t172.5 23.5q60 0 117.5 -11.5t110.5 -31.5
t100 -47.5t86 -59.5v1l2 -3q9 -8 16.5 -15t7.5 -18q0 -10 -13 -25z" />
    <glyph glyph-name="oacute" unicode="&#xf3;" horiz-adv-x="1498" 
d="M100 631q0 90 23.5 174t66.5 157t103 133t133 103t156.5 66.5t173.5 23.5t173.5 -23.5t156.5 -66.5t133.5 -103t103.5 -133t66.5 -157t23.5 -174t-23.5 -174t-66.5 -157t-103.5 -133t-133.5 -103t-156.5 -66.5t-173.5 -23.5t-173.5 23.5t-156.5 66.5t-133 103t-103 133
t-66.5 157t-23.5 174zM220 631q0 -73 19 -141.5t53.5 -129t83 -111t108 -86.5t127 -56t141.5 -20q111 0 209.5 42.5t172.5 116t117 172t43 211.5q0 110 -42 209.5t-114.5 174.5t-170 119.5t-208.5 44.5t-209.5 -43.5t-171.5 -118.5t-115.5 -174t-42.5 -210zM824 1753
q15 36 52 36h42q36 0 21 -36l-100 -234q-10 -23 -23 -30.5t-30 -7.5h-41q-37 0 -21 38z" />
    <glyph glyph-name="ocircumflex" unicode="&#xf4;" horiz-adv-x="1498" 
d="M100 631q0 90 23.5 174t66.5 157t103 133t133 103t156.5 66.5t173.5 23.5t173.5 -23.5t156.5 -66.5t133.5 -103t103.5 -133t66.5 -157t23.5 -174t-23.5 -174t-66.5 -157t-103.5 -133t-133.5 -103t-156.5 -66.5t-173.5 -23.5t-173.5 23.5t-156.5 66.5t-133 103t-103 133
t-66.5 157t-23.5 174zM220 631q0 -73 19 -141.5t53.5 -129t83 -111t108 -86.5t127 -56t141.5 -20q111 0 209.5 42.5t172.5 116t117 172t43 211.5q0 110 -42 209.5t-114.5 174.5t-170 119.5t-208.5 44.5t-209.5 -43.5t-171.5 -118.5t-115.5 -174t-42.5 -210zM735 1805
q5 4 11 5t9 1q7 0 15 -7l240 -240q7 -6 14.5 -15.5t7.5 -19.5q0 -9 -7 -16l-28 -30q-10 -8 -19 -8q-10 0 -21 7l-204 199l-205 -198q-6 -3 -11.5 -4t-10.5 -1q-10 0 -16 6l-29 29q-7 6 -7 14q0 5 2.5 13t4.5 10z" />
    <glyph glyph-name="ograve" unicode="&#xf2;" horiz-adv-x="1498" 
d="M100 631q0 90 23.5 174t66.5 157t103 133t133 103t156.5 66.5t173.5 23.5t173.5 -23.5t156.5 -66.5t133.5 -103t103.5 -133t66.5 -157t23.5 -174t-23.5 -174t-66.5 -157t-103.5 -133t-133.5 -103t-156.5 -66.5t-173.5 -23.5t-173.5 23.5t-156.5 66.5t-133 103t-103 133
t-66.5 157t-23.5 174zM220 631q0 -73 19 -141.5t53.5 -129t83 -111t108 -86.5t127 -56t141.5 -20q111 0 209.5 42.5t172.5 116t117 172t43 211.5q0 110 -42 209.5t-114.5 174.5t-170 119.5t-208.5 44.5t-209.5 -43.5t-171.5 -118.5t-115.5 -174t-42.5 -210zM808 1524
q16 -38 -21 -38h-41q-17 0 -30 7.5t-23 30.5l-100 234q-15 36 21 36h42q37 0 52 -36z" />
    <glyph glyph-name="otilde" unicode="&#xf5;" horiz-adv-x="1498" 
d="M100 631q0 90 23.5 174t66.5 157t103 133t133 103t156.5 66.5t173.5 23.5t173.5 -23.5t156.5 -66.5t133.5 -103t103.5 -133t66.5 -157t23.5 -174t-23.5 -174t-66.5 -157t-103.5 -133t-133.5 -103t-156.5 -66.5t-173.5 -23.5t-173.5 23.5t-156.5 66.5t-133 103t-103 133
t-66.5 157t-23.5 174zM220 631q0 -73 19 -141.5t53.5 -129t83 -111t108 -86.5t127 -56t141.5 -20q111 0 209.5 42.5t172.5 116t117 172t43 211.5q0 110 -42 209.5t-114.5 174.5t-170 119.5t-208.5 44.5t-209.5 -43.5t-171.5 -118.5t-115.5 -174t-42.5 -210zM562 1545
q-10 -9 -21.5 -22t-21.5 -13q-4 0 -13 5.5t-18.5 14t-16.5 17t-7 14.5q0 8 6 14q68 108 182 108q33 -2 62.5 -16t56.5 -30.5t52.5 -30t51.5 -13.5h5q23 2 41.5 14t33 26t26 25.5t21.5 11.5q5 0 14 -6t17.5 -14t15 -16.5t6.5 -13.5q0 -4 -1.5 -9t-5.5 -9q-37 -53 -75.5 -77
t-89.5 -26q-33 0 -63 8.5t-61 29.5l-54 33q-14 8 -26.5 12.5t-29.5 6.5q-27 0 -48.5 -12t-38.5 -32z" />
    <glyph glyph-name="oe" unicode="&#x153;" horiz-adv-x="2620" 
d="M1361 589q3 -17 4.5 -45.5t8.5 -53.5q25 -89 73.5 -163t115.5 -127t149.5 -83t174.5 -30q53 0 99 8t85.5 22.5t75 34.5t67.5 44q10 6 20.5 14.5t20.5 16t18.5 13t15.5 5.5q8 0 18 -13q17 -24 24.5 -37t7.5 -20q0 -4 -4 -8q5 -5 5 -10q-11 -14 -27 -29t-38 -30
q-81 -57 -175 -90t-205 -33q-135 0 -254.5 51.5t-209 141t-142 208.5t-52.5 254q0 91 23 175t65 157t101.5 133t133 103t158 66.5t177.5 23.5q87 0 168.5 -21t153.5 -61t131.5 -98t102.5 -131t68 -161t28 -188v1q0 -1 0.5 -2.5t0.5 -3.5q0 -34 -32 -34h-1155zM1753 1154
q-76 -20 -142 -63t-117 -102t-85.5 -131t-47.5 -151h1070q-12 100 -59.5 185.5t-119.5 148t-163.5 98t-191.5 35.5q-34 0 -66 -3.5t-78 -16.5zM42 631q0 90 23.5 174t66.5 157t103 133t133 103t156.5 66.5t173.5 23.5t173.5 -23.5t156.5 -66.5t133.5 -103t103.5 -133
t66.5 -157t23.5 -174t-23.5 -174t-66.5 -157t-103.5 -133t-133.5 -103t-156.5 -66.5t-173.5 -23.5t-173.5 23.5t-156.5 66.5t-133 103t-103 133t-66.5 157t-23.5 174zM162 631q0 -73 19 -141.5t53.5 -129t83 -111t108 -86.5t127 -56t141.5 -20q111 0 209.5 42.5t172.5 116
t117 172t43 211.5q0 110 -42 209.5t-114.5 174.5t-170 119.5t-208.5 44.5t-209.5 -43.5t-171.5 -118.5t-115.5 -174t-42.5 -210z" />
    <glyph glyph-name="ntilde" unicode="&#xf1;" horiz-adv-x="1360" 
d="M181 1227q0 18 10.5 27.5t27.5 9.5h41q18 0 27.5 -10.5t9.5 -26.5v-147q43 65 97 106.5t111 65t112.5 32t102.5 8.5q115 0 210 -42t162 -115t104 -170t37 -207v-714q0 -22 -11 -33t-29 -11h-37q-23 0 -31 10t-8 33v718q-3 78 -31 152.5t-79 132.5t-125 93.5t-169 35.5
q-77 0 -150.5 -28.5t-131.5 -80t-94.5 -123.5t-39.5 -159v-752q0 -32 -30 -32h-53q-32 0 -32 32v277q-1 3 -1 11v907zM508 1538q-10 -9 -21.5 -22t-21.5 -13q-4 0 -13 5.5t-18.5 14t-16.5 17t-7 14.5q0 8 6 14q68 108 182 108q33 -2 62.5 -16t56.5 -30.5t52.5 -30
t51.5 -13.5h5q23 2 41.5 14t33 26t26 25.5t21.5 11.5q5 0 14 -6t17.5 -14t15 -16.5t6.5 -13.5q0 -4 -1.5 -9t-5.5 -9q-37 -53 -75.5 -77t-89.5 -26q-33 0 -63 8.5t-61 29.5l-54 33q-14 8 -26.5 12.5t-29.5 6.5q-27 0 -48.5 -12t-38.5 -32z" />
    <glyph glyph-name="ae" unicode="&#xe6;" horiz-adv-x="2689" 
d="M1309 200l-3 76q-40 -69 -96.5 -124.5t-125 -94.5t-146.5 -60t-162 -21q-90 0 -173.5 23.5t-156.5 67t-133.5 103.5t-103.5 133t-66.5 156.5t-23.5 173.5t23.5 173.5t67 156.5t103.5 133t133 103.5t156.5 67t173.5 23.5q82 0 160.5 -21t147.5 -60.5t126.5 -95.5
t98.5 -125v74v172q0 32 31 32h52q34 0 34 -32v-1202q0 -17 -11 -24.5t-26 -7.5h-41q-39 0 -39 36v164zM1315 633q0 109 -44 207.5t-118 173t-172 118.5t-206 45h-3q-107 0 -203.5 -44t-169.5 -118.5t-116 -172.5t-43 -207t41.5 -208.5t113.5 -175t168.5 -120t206.5 -44.5
q111 0 210.5 43.5t173.5 118t117.5 173.5t43.5 211zM1441 589q3 -17 4.5 -45.5t8.5 -53.5q25 -89 73.5 -163t115.5 -127t149.5 -83t174.5 -30q53 0 99 8t85.5 22.5t75 34.5t67.5 44q10 6 20.5 14.5t20.5 16t18.5 13t15.5 5.5q8 0 18 -13q17 -24 24.5 -37t7.5 -20q0 -4 -4 -8
q5 -5 5 -10q-11 -14 -27 -29t-38 -30q-81 -57 -175 -90t-205 -33q-135 0 -254.5 51.5t-209 141t-142 208.5t-52.5 254q0 91 23 175t65 157t101.5 133t133 103t158 66.5t177.5 23.5q87 0 168.5 -21t153.5 -61t131.5 -98t102.5 -131t68 -161t28 -188v1q0 -1 0.5 -2.5t0.5 -3.5
q0 -34 -32 -34h-1155zM1833 1154q-76 -20 -142 -63t-117 -102t-85.5 -131t-47.5 -151h1070q-12 100 -59.5 185.5t-119.5 148t-163.5 98t-191.5 35.5q-34 0 -66 -3.5t-78 -16.5zM1432 1607q15 36 52 36h42q36 0 21 -36l-100 -234q-10 -23 -23 -30.5t-30 -7.5h-41
q-37 0 -21 38z" />
    <glyph glyph-name="OE" unicode="&#x152;" horiz-adv-x="2548" 
d="M2453 1485q18 0 31 -11t13 -33v-24q0 -18 -12 -32t-32 -14h-860v-561h690q18 0 31 -11.5t13 -32.5v-25q0 -18 -12 -32t-32 -14h-690v-581h882q18 0 31 -11t13 -33v-24q0 -18 -12 -32t-32 -14h-953q-44 0 -44 44v297q-51 -81 -120 -148t-153 -115t-180 -74t-199 -26
q-104 0 -201.5 27t-182 77t-154.5 119.5t-119.5 155t-77 183.5t-27.5 204q0 104 27 201.5t77 182t119.5 154t155 119t183.5 77t204 27.5q102 0 197 -26t178.5 -74t152.5 -115t120 -149v300q0 18 11.5 31t32.5 13h931zM507 1298q-80 -48 -142.5 -111t-105 -136.5t-64.5 -155
t-22 -165.5q0 -137 53.5 -254t143.5 -202.5t207 -134t244 -48.5q126 0 238 47.5t200 127.5t145.5 184t73.5 218v180q-12 85 -44 158t-78.5 133t-105 106.5t-124.5 78.5t-137.5 48.5t-143.5 16.5q-86 0 -171.5 -22t-166.5 -69z" />
    <glyph glyph-name="AE" unicode="&#xc6;" horiz-adv-x="2317" 
d="M1254 0q-22 0 -31 13t-9 31l1 327h-741l-241 -319q-32 -52 -84 -52h-46q-31 0 -31 18q1 5 3.5 12.5t9.5 16.5l1107 1394q11 14 30 29t37 15h925q18 0 31 -11t13 -33v-24q0 -18 -12 -32t-32 -14h-858v-561h688q18 0 31 -11.5t13 -32.5v-25q0 -18 -12 -32t-32 -14h-686
v-581h878q18 0 31 -11t13 -33v-24q0 -18 -12 -32t-32 -14h-928h-24zM566 488h648v821z" />
    <glyph glyph-name="Eth" unicode="&#xd0;" horiz-adv-x="1544" 
d="M164 792v656q0 36 33 38h480q104 -1 199.5 -28t178.5 -75t150 -115.5t115 -150t74 -178t26 -198.5t-26.5 -198t-75.5 -177.5t-117.5 -150t-151.5 -115.5t-179 -74t-200 -26h-469q-7 0 -10 2q0 1 -4 2.5t-9.5 4.5t-9.5 8t-4 14v636h-106q-38 0 -38 37v52q0 36 38 36h106z
M668 124q88 0 169 22.5t150.5 63t126.5 97.5t97 126t62 148.5t22 164.5q0 133 -49.5 245.5t-134.5 195t-198.5 129t-242.5 46.5h-382v-1238h380z" />
    <glyph glyph-name="Oslash" unicode="&#xd8;" horiz-adv-x="1742" 
d="M537 52q-97 45 -177.5 115.5t-138.5 160t-90 194.5t-32 219q0 105 27 202.5t76.5 182t119 154.5t154.5 119.5t182 77t203 27.5q58 0 113.5 -8.5t109.5 -25.5l48 119q11 28 23.5 36t38.5 8h28q21 0 29.5 -5.5t8.5 -17.5q-1 -5 -2 -13t-5 -17l-62 -152q95 -47 174.5 -117.5
t136.5 -159.5t88.5 -193.5t31.5 -217.5q0 -105 -27.5 -202t-77 -181.5t-119 -153.5t-154 -118.5t-182 -76.5t-202.5 -27q-57 0 -111 8t-106 23l-47 -117q-12 -31 -48 -31h-42q-29 0 -29 21q0 8 5 21zM216 742q0 -134 50.5 -251t138 -204.5t205 -138t251.5 -50.5
q88 0 170.5 23t154 65t130.5 100.5t101 130t65 154t23 171.5q0 133 -51 250t-138.5 204.5t-204.5 138.5t-250 51q-89 0 -171.5 -23t-154.5 -65t-130.5 -101t-100.5 -130.5t-65 -154t-23 -170.5z" />
    <glyph glyph-name="exclam" unicode="!" 
d="M156 96q0 18 11 25t37 7h36q27 0 36.5 -8t9.5 -37v-38q0 -18 -5 -30.5t-24 -14.5h-54h-19q-17 2 -22.5 14t-5.5 31v51zM162 1616q0 32 34 32h52q31 0 31 -32v-1170q0 -32 -32 -32h-53q-32 0 -32 32v1170z" />
    <glyph glyph-name="quotedbl" unicode="&#x22;" horiz-adv-x="723" 
d="M164 1450q0 36 37 36h52q36 0 36 -36v-330q0 -23 -10 -30t-27 -7h-51q-37 0 -37 37v330zM439 1450q0 36 36 36h53q36 0 36 -36v-330q0 -23 -10.5 -30t-27.5 -7h-51q-36 0 -36 37v330z" />
    <glyph glyph-name="numbersign" unicode="#" horiz-adv-x="1034" 
d="M369 575h259v371h-259v-371zM628 1457q0 12 7 20t21 8h65q12 0 20.5 -7.5t8.5 -20.5v-389h134q11 0 19 -7t8 -20v-66q0 -12 -7.5 -20.5t-19.5 -8.5h-134v-371h134q11 0 19 -6.5t8 -20.5v-64q0 -13 -7.5 -22t-19.5 -9h-134v-425q0 -28 -29 -28h-65q-28 0 -28 28v425h-259
v-425q0 -28 -31 -28h-63q-28 0 -28 28v425h-126q-31 0 -31 31v64q0 27 31 27h126v371h-126q-31 0 -31 29v66q0 27 31 27h126v389q0 12 7 20t21 8h63q13 0 22 -7.5t9 -20.5v-389h259v389z" />
    <glyph glyph-name="dollar" unicode="$" horiz-adv-x="1287" 
d="M85 267q20 20 33 31t33 11q11 0 19 -7t13 -14q42 -47 92.5 -83.5t107 -61.5t115.5 -38t117 -13q81 0 160.5 18t142.5 57.5t102 101.5t39 150q0 51 -19.5 90.5t-53.5 69t-79 51t-95.5 37.5t-103.5 28.5t-103 23.5q-124 28 -216.5 63t-153.5 81t-91 105t-30 136
q0 86 31.5 156t90.5 121.5t142.5 82.5t187.5 38v117q0 18 8 29.5t25 11.5h57q16 0 26 -10.5t10 -30.5v-118q112 -10 211.5 -53.5t180.5 -123.5q13 -13 19.5 -20.5t6.5 -15.5t-10 -18.5t-30 -29.5q-9 -8 -15 -13t-12 -5q-13 0 -35 19q-35 30 -73.5 57t-84.5 48t-101.5 33.5
t-123.5 12.5q-98 0 -171 -22.5t-122 -61.5t-73.5 -91t-24.5 -110q0 -67 35 -112.5t92 -77t129 -52.5t146 -38q58 -14 120.5 -30t122.5 -37.5t113.5 -50.5t94 -69t64 -93t23.5 -122q0 -101 -37 -179t-102 -133.5t-153 -87.5t-190 -41v-142q0 -23 -9.5 -32.5t-26.5 -9.5h-57
q-17 0 -25 9.5t-8 32.5v139q-139 8 -262 65t-213 174q-7 8 -11 15t-4 16q0 8 9 16z" />
    <glyph glyph-name="ampersand" unicode="&#x26;" horiz-adv-x="1683" 
d="M640 547q43 23 88.5 37t91.5 14q20 0 41.5 -2.5t46.5 -10.5l328 -89q16 -5 32.5 -6.5t31.5 -1.5q35 0 68 12t60 33t47.5 50t29.5 64q11 29 36 29q10 0 19 -4l25 -10q13 -5 21 -13.5t8 -19.5q0 -14 -4 -25q-16 -51 -46 -93.5t-70 -73.5t-88.5 -48.5t-102.5 -17.5
q-7 0 -22 1.5t-31 3.5t-29.5 4t-17.5 4l-103 27q-9 -90 -51.5 -169.5t-108.5 -139t-151 -94t-178 -34.5q-100 0 -187.5 34t-153 94.5t-103 144.5t-37.5 184q0 69 18.5 131.5t52.5 115t82.5 94.5t107.5 71q-71 45 -113.5 118t-42.5 168q0 78 30 143.5t81.5 112t119.5 72.5
t145 26t145 -26t119 -72.5t80.5 -112t29.5 -143.5q0 -19 -10 -31.5t-31 -12.5h-27q-25 0 -35.5 12t-10.5 32q0 56 -19.5 101t-54 77t-82.5 49t-104 17t-104 -17t-83.5 -49t-56 -77t-20.5 -101t19.5 -98.5t53.5 -72.5t80 -46t100 -19h11q19 0 31.5 -10t12.5 -32v-22
q0 -25 -12 -35.5t-32 -10.5q-77 0 -144 -26t-117 -72.5t-79 -111t-29 -140.5q0 -77 29 -140t79 -109t117 -71t144 -25q73 0 140 28t118.5 76.5t83.5 113t35 138.5l-126 33q-20 3 -39 3q-30 0 -60.5 -6.5t-63.5 -23.5q-10 -5 -15.5 -8.5t-18.5 -3.5q-24 0 -35 24l-12 25
q-6 13 -6 24q0 24 28 36z" />
    <glyph glyph-name="quotesingle" unicode="'" horiz-adv-x="423" 
d="M147 1450q0 36 37 36h52q36 0 36 -36v-330q0 -23 -10 -30t-27 -7h-51q-37 0 -37 37v330z" />
    <glyph glyph-name="parenleft" unicode="(" horiz-adv-x="669" 
d="M532 1714q22 -9 22 -31q0 -5 -1.5 -11t-3.5 -11q-131 -208 -197.5 -439.5t-66.5 -485.5q0 -256 66.5 -486.5t197.5 -438.5q5 -10 5 -21q0 -21 -22 -32q-14 -8 -32.5 -19t-29.5 -11q-14 0 -22 14q-137 218 -210.5 468t-73.5 526q0 275 73.5 524.5t210.5 469.5q7 13 22 13
q11 0 29.5 -10.5t32.5 -18.5z" />
    <glyph glyph-name="parenright" unicode=")" horiz-adv-x="677" 
d="M174 1742q10 4 14 4q9 0 15.5 -5t12.5 -13t11 -17l10 -18q126 -213 194 -453.5t68 -503.5q0 -275 -73.5 -526t-210.5 -468q-11 -15 -27 -15q-8 0 -22 6t-27 15.5t-22.5 20.5t-9.5 21q0 13 7 21q131 208 197.5 438.5t66.5 486.5q0 254 -67.5 486.5t-196.5 438.5
q-7 8 -7 21q0 10 6.5 18.5t16.5 16t21.5 13.5t22.5 12z" />
    <glyph glyph-name="asterisk" unicode="*" horiz-adv-x="960" 
d="M270 933q-9 15 -9 28q0 21 27 36l20 11q13 9 26 9q21 0 35 -24l97 -170l99 170q7 12 16.5 18t19.5 6q12 0 26 -9l20 -11q26 -15 26 -36q0 -13 -9 -28l-99 -169h216q18 0 31 -11t13 -33v-24q0 -18 -12 -32t-32 -14h-214l113 -192q6 -9 6 -21q0 -11 -5.5 -21t-18.5 -15
l-20 -13q-11 -7 -26 -7q-11 0 -19.5 4.5t-15.5 15.5l-115 194l-112 -194q-7 -11 -16.5 -15.5t-19.5 -4.5q-15 0 -26 7l-19 13q-13 5 -18.5 14.5t-5.5 20.5q0 13 6 22l110 192h-200q-46 0 -46 46v24q0 44 46 44h204z" />
    <glyph glyph-name="plus" unicode="+" horiz-adv-x="900" 
d="M495 374q0 -17 -9.5 -27.5t-26.5 -10.5h-51q-17 0 -28 10t-11 28v261h-259q-37 0 -37 38v52q0 36 37 36h259v259q0 38 39 38h51q36 0 36 -38v-259h261q17 0 27.5 -9.5t10.5 -26.5v-52q0 -17 -10 -27.5t-28 -10.5h-261v-261z" />
    <glyph glyph-name="comma" unicode="," horiz-adv-x="456" 
d="M147 99q0 26 17 31.5t41 5.5h27q24 0 36.5 -8.5t12.5 -28.5v-75q0 -41 -6.5 -80.5t-18 -70.5t-26.5 -50.5t-31 -19.5q-4 0 -10 3t-9 7l-20 21q-6 7 -6 21q1 8 7.5 16.5t13.5 20t12.5 25.5t5.5 34v27q0 11 -7 16t-16 9t-16 10t-7 20v66z" />
    <glyph glyph-name="hyphen" unicode="-" horiz-adv-x="1025" 
d="M842 645q17 0 27.5 -9t10.5 -27v-52q0 -16 -10 -26.5t-28 -10.5h-646q-38 0 -38 37v52q0 36 38 36h646z" />
    <glyph glyph-name="period" unicode="." horiz-adv-x="433" 
d="M147 86v18q0 20 15 26t35 6h34q33 0 42.5 -11.5t9.5 -38.5v-36q0 -23 -6 -36.5t-26 -13.5h-53q-26 0 -38.5 8.5t-12.5 28.5v49z" />
    <glyph glyph-name="slash" unicode="/" horiz-adv-x="851" 
d="M68 40l270 668t272 669q13 32 27.5 56.5t34.5 44.5q23 10 53 10q25 0 38.5 -5.5t13.5 -19.5q0 -8 -4 -19q-146 -356 -288.5 -710t-287.5 -709q-10 -25 -34 -25q-6 0 -9 1h-63q-28 3 -28 22q0 7 5 17z" />
    <glyph glyph-name="colon" unicode=":" horiz-adv-x="433" 
d="M147 86v18q0 20 15 26t35 6h34q33 0 42.5 -11.5t9.5 -38.5v-36q0 -23 -6 -36.5t-26 -13.5h-53q-26 0 -38.5 8.5t-12.5 28.5v49zM147 1207v18q0 20 15 26t35 6h34q33 0 42.5 -11.5t9.5 -38.5v-36q0 -23 -6 -36.5t-26 -13.5h-53q-26 0 -38.5 8.5t-12.5 28.5v49z" />
    <glyph glyph-name="semicolon" unicode=";" horiz-adv-x="437" 
d="M147 1204v18q0 20 15 26t35 6h34q33 0 42.5 -11.5t9.5 -38.5v-36q0 -23 -6 -36.5t-26 -13.5h-53q-26 0 -38.5 8.5t-12.5 28.5v49zM147 99q0 26 17 31.5t41 5.5h27q24 0 36.5 -8.5t12.5 -28.5v-75q0 -41 -6.5 -80.5t-18 -70.5t-26.5 -50.5t-31 -19.5q-4 0 -10 3t-9 7
l-20 21q-6 7 -6 21q1 8 7.5 16.5t13.5 20t12.5 25.5t5.5 34v27q0 11 -7 16t-16 9t-16 10t-7 20v66z" />
    <glyph glyph-name="less" unicode="&#x3c;" horiz-adv-x="798" 
d="M115 540q-6 5 -8 15q5 10 13 19t19 20l394 393l30 30t32 16q6 0 18.5 -7t24.5 -17t21 -21.5t9 -21.5q0 -12 -9 -27l-386 -385l384 -384q8 -13 8 -26q0 -7 -7 -19t-17 -24t-22 -20.5t-21 -8.5q-6 0 -13.5 2t-12.5 7z" />
    <glyph glyph-name="equal" unicode="=" horiz-adv-x="1007" 
d="M830 512q17 0 27.5 -9.5t10.5 -27.5v-51q0 -17 -10 -27.5t-28 -10.5h-646q-38 0 -38 38v51q0 37 38 37h646zM830 802q17 0 27.5 -9.5t10.5 -26.5v-52q0 -17 -10 -27.5t-28 -10.5h-646q-38 0 -38 38v52q0 36 38 36h646z" />
    <glyph glyph-name="greater" unicode="&#x3e;" horiz-adv-x="801" 
d="M280 116l-39 -37q-12 -9 -24 -9q-7 0 -18.5 7.5t-23 18.5t-19.5 23t-8 22q0 5 2 13t7 13l384 384l-386 385q-6 9 -8 22q0 8 7 20.5t17.5 24t23 19.5t23.5 8q5 0 8 -2t9 -3l46 -41l197 -197t198 -196q17 -17 30 -38q0 -9 -6 -16z" />
    <glyph glyph-name="question" unicode="?" horiz-adv-x="1137" 
d="M612 348q0 -22 -14 -35.5t-33 -13.5h-30q-22 0 -34.5 15t-12.5 34v169q0 58 19.5 103t51 82t71.5 67.5t82.5 60t82.5 60.5t71.5 68t51 82t19.5 104q0 77 -29 137t-79 101.5t-117.5 63t-143.5 21.5t-142.5 -24.5t-115.5 -69t-77 -107.5t-28 -140q0 -18 -13.5 -32.5
t-28.5 -19.5h-29q-21 0 -30 10t-16 25v13q3 100 41.5 184.5t104 146t152 96.5t184.5 35q100 0 187 -31t152 -88t102.5 -138t37.5 -181q0 -94 -32.5 -161.5t-81.5 -119t-105.5 -91.5t-105.5 -78.5t-81 -80t-31 -96.5v-171zM467 95q0 16 8 26.5t20.5 16t28 7.5t29.5 2
q25 0 39.5 -6t21 -17t8 -25.5t1.5 -30.5q0 -28 -5.5 -43.5t-16.5 -22.5t-27 -8.5t-37 -1.5q-24 0 -38 5.5t-21.5 15.5t-9.5 23t-2 28q0 8 0.5 15.5t0.5 15.5z" />
    <glyph glyph-name="percent" unicode="%" horiz-adv-x="1932" 
d="M1153 1377q13 22 26.5 42t30 35.5t36 24.5t45.5 9q50 0 50 -26v-6l-56 -91q-185 -336 -366.5 -670t-365.5 -670q-12 -25 -34 -25q-6 0 -9 1h-63q-26 3 -26 21q0 4 1 7v3q0 2 2 7zM95 1131q0 80 30 150t82 122.5t122.5 82.5t150.5 30t150 -30t122.5 -82.5t82.5 -122.5
t30 -150t-30 -150.5t-82.5 -122.5t-122.5 -82t-150 -30t-150.5 30t-122.5 82t-82 122.5t-30 150.5zM210 1131q0 -57 21 -106.5t57 -85.5t85.5 -57t106.5 -21q56 0 105 21t85 57t57 85.5t21 106.5q0 56 -21 105t-57 85t-85 57t-105 21q-57 0 -106.5 -21t-85.5 -57t-57 -85
t-21 -105zM927 363q0 80 30 150t82.5 122.5t122.5 82.5t150 30t150 -30t122.5 -82.5t82.5 -122.5t30 -150t-30 -150t-82.5 -122.5t-122.5 -82.5t-150 -30t-150 30t-122.5 82.5t-82.5 122.5t-30 150zM1042 363q0 -57 21 -106t57.5 -85.5t86 -57.5t105.5 -21t105 21t85 57.5
t57 85.5t21 106q0 59 -22 108.5t-59 85t-85.5 55t-101.5 19.5q-56 0 -105.5 -21t-86 -57t-57.5 -85t-21 -105z" />
    <glyph glyph-name="section" unicode="&#xa7;" horiz-adv-x="1057" 
d="M948 1316q1 -4 1 -10q0 -11 -6 -21.5t-15 -18.5t-21 -12.5t-24 -4.5q-22 0 -38 18q-63 70 -134 105.5t-157 35.5q-45 0 -93.5 -14t-88.5 -41t-65.5 -66.5t-25.5 -91.5q0 -38 20.5 -64.5t60 -47.5t98.5 -40t136 -42q85 -25 146 -54t100 -63.5t57 -76t18 -92.5
q0 -80 -44 -142t-125 -104q37 -19 68 -41.5t53.5 -50t35 -61t12.5 -74.5q0 -74 -31 -135.5t-85 -105.5t-126.5 -68.5t-155.5 -24.5q-118 0 -214.5 48t-168.5 134q-12 15 -12 31q0 12 5.5 22.5t14.5 19t21 13.5t25 5q10 0 21.5 -4t21.5 -14q32 -35 64 -61.5t67.5 -44.5
t75 -27.5t86.5 -9.5q46 0 95 14t89 41.5t65.5 67.5t25.5 92q0 40 -21.5 68t-62 49t-99.5 39.5t-134 39.5q-84 25 -145.5 53.5t-101 63t-58.5 75.5t-19 92q0 78 43 139t122 103q-74 38 -119.5 93.5t-45.5 135.5q0 75 31 136.5t85 105.5t126.5 68t156.5 24q54 0 113 -14.5
t113 -41t97.5 -64t65.5 -84.5zM517 893q-62 0 -107.5 -15t-75.5 -39.5t-44.5 -56t-14.5 -63.5q0 -9 1.5 -24t10 -32.5t26 -36.5t49 -36.5t79.5 -31t118 -19.5q63 0 108 15t74 39.5t43 55t14 62.5q0 43 -22.5 76.5t-60.5 57t-89 36t-109 12.5z" />
    <glyph glyph-name="macron" unicode="&#xaf;" horiz-adv-x="976" 
d="M824 1443q34 0 34 -32v-38q0 -13 -8.5 -23.5t-25.5 -10.5h-672q-33 0 -33 34v38q0 32 33 32h672z" />
    <glyph glyph-name="eth" unicode="&#xf0;" horiz-adv-x="1240" 
d="M899 1355q16 12 35 28.5t38 30.5t36 24t31 10q5 0 14.5 -6t18.5 -15t16 -18.5t7 -16.5q0 -9 -15.5 -24.5t-37 -32.5t-44 -33.5l-37.5 -27.5q41 -65 67 -134.5t41 -142t20.5 -148t5.5 -151.5q0 -82 -3 -163q0 -110 -34.5 -208.5t-98 -173t-153.5 -118t-202 -43.5
q-100 0 -188 39.5t-153.5 107t-103.5 158t-38 192.5t37.5 192t103 158t153 107.5t187.5 39.5q121 0 213 -55.5t154 -158.5q0 63 -8.5 123t-23 114.5t-34 101.5t-41.5 85l-143 -111q-7 -4 -14 -4q-5 0 -14 7t-18.5 18t-16.5 23t-7 23q0 9 11 18l139 108q-43 42 -96.5 66.5
t-113.5 24.5q-19 0 -25 5.5t-8 16.5q-5 2 -9 10.5t-7 18.5t-4.5 18.5t-1.5 10.5q0 24 13 31.5t43 7.5l1 -1q95 0 171.5 -35t136.5 -97zM603 866q-17 0 -34.5 -1.5t-33.5 -7.5q-63 -10 -116.5 -43t-92.5 -82t-61.5 -111t-22.5 -131q0 -79 29 -147.5t78.5 -119.5t115.5 -80.5
t140 -29.5q75 0 141 29.5t115 80.5t77.5 119t28.5 145q0 79 -29 148t-78.5 120.5t-115.5 81t-141 29.5z" />
    <glyph glyph-name="foursuperior" unicode="&#x2074;" horiz-adv-x="729" 
d="M82 799q-16 0 -23.5 9.5t-7.5 23.5t11 27l15 24q93 148 185 293.5t186 293.5q8 18 22 18.5t28 0.5q10 0 20 -0.5t18 -3.5t13 -9t5 -17q0 -4 -1 -7v-544h67q14 0 22.5 -7t8.5 -21v-52q0 -13 -8.5 -21t-22.5 -8h-67v-109q0 -27 -29 -27h-49q-28 0 -28 27v109h-365zM447 908
v369q-60 -93 -119.5 -184.5t-119.5 -184.5h239z" />
    <glyph glyph-name="paragraph" unicode="&#xb6;" horiz-adv-x="1379" 
d="M963 1485q2 0 4 0.5t4 0.5h131q4 0 7 -1h169q17 0 27.5 -9.5t10.5 -26.5v-52q0 -17 -10 -27.5t-28 -10.5h-211v-1323q0 -36 -37 -36h-52q-36 0 -36 36v1323h-258v-1323q0 -36 -38 -36h-52q-36 0 -36 36v582q-99 0 -187.5 29.5t-155.5 85t-106.5 136t-39.5 181.5
q0 90 34 169t93 138.5t138 93.5t168 34h27h434z" />
    <glyph glyph-name="thorn" unicode="&#xfe;" horiz-adv-x="1569" 
d="M165 1608q0 18 8 29.5t25 11.5h51q16 0 26 -10.5t10 -30.5v-620q20 33 43 67t49 58q89 84 200.5 129t236.5 45q90 0 173.5 -23.5t156.5 -66.5t133 -103t103 -132.5t66.5 -156.5t23.5 -174t-23.5 -174t-66.5 -157t-103 -133t-133 -103t-156.5 -66.5t-173.5 -23.5
q-62 0 -122.5 13t-117 36.5t-107 56.5t-92.5 73q-27 26 -46 53.5t-44 62.5v-644q0 -23 -9.5 -32.5t-26.5 -9.5h-51q-17 0 -25 9.5t-8 32.5v16v1967zM1347 631q0 109 -41.5 208t-113.5 173.5t-168.5 118.5t-206.5 44q-97 0 -185 -32.5t-158.5 -90t-119.5 -136t-69 -170.5
v-226q19 -91 67 -170.5t117.5 -138t156.5 -92.5t184 -34q111 0 209 43.5t170.5 118.5t115 174t42.5 210z" />
    <glyph glyph-name="Thorn" unicode="&#xde;" horiz-adv-x="1247" 
d="M167 1450q0 16 9 26t27 10h52q16 0 26.5 -9.5t10.5 -26.5v-232h393q97 0 181.5 -37t147 -100t98 -147t35.5 -179q0 -94 -35.5 -177.5t-97.5 -146.5t-145.5 -99.5t-180.5 -36.5h-395v-259q0 -36 -36 -36h-54q-36 0 -36 36v1414zM685 420q70 0 131 26.5t106.5 72t72 107
t26.5 130.5t-26 130.5t-71 107.5t-106.5 73t-132.5 27h-392v-674h392z" />
    <glyph glyph-name="scircumflex" unicode="&#x15d;" horiz-adv-x="1050" 
d="M85 264q-2 5 -3 9.5t-1 8.5q0 13 7 19t18 11l39 17q2 1 7.5 1.5t7.5 0.5q8 0 14 -9t11 -21.5t9.5 -27t10.5 -25.5q19 -41 55 -71.5t78 -50t85.5 -29t79.5 -9.5q45 0 101.5 13.5t106 42.5t83.5 76t34 115q0 61 -30 105.5t-77 75.5t-106 51t-117 33q-74 18 -143 48
t-122 72.5t-85 98t-32 124.5q0 79 28.5 143t80.5 109.5t125 70t162 24.5q73 0 134 -18.5t110 -52.5t85 -82.5t60 -107.5l-1 1q6 -9 6 -15q0 -9 -8 -17.5t-19 -15.5t-21.5 -11t-16.5 -4q-11 0 -17 4t-10.5 11t-9 17.5t-11.5 22.5q-41 67 -112 110.5t-170 43.5
q-54 0 -103.5 -14t-88 -42.5t-61 -72t-22.5 -101.5q0 -50 30 -89t74.5 -67.5t95.5 -47t93 -28.5l10 -2.5t3 -0.5q91 -21 166 -54.5t128 -79.5t82 -105.5t29 -134.5q0 -86 -36 -153.5t-97.5 -114t-142 -71t-168.5 -24.5q-74 0 -142 19t-123.5 56t-95.5 91t-57 124zM508 1778
q5 4 11 5t9 1q7 0 15 -7l240 -240q7 -6 14.5 -15.5t7.5 -19.5q0 -9 -7 -16l-28 -30q-10 -8 -19 -8q-10 0 -21 7l-204 199l-205 -198q-6 -3 -11.5 -4t-10.5 -1q-10 0 -16 6l-29 29q-7 6 -7 14q0 5 2.5 13t4.5 10z" />
    <glyph glyph-name="scaron" unicode="&#x161;" horiz-adv-x="1050" 
d="M284 1712q-8 6 -15 16.5t-7 19.5q0 8 7 15l29 31q10 8 20 8q9 0 20 -7l198 -195l193 189q7 6 17 6q5 0 11.5 -2t9.5 -6l29 -27q4 -3 5.5 -10t1.5 -12q0 -11 -7 -17l-242 -243q-10 -8 -18 -8q-4 0 -9 1.5t-8 5.5zM85 264q-2 5 -3 9.5t-1 8.5q0 13 7 19t18 11l39 17
q2 1 7.5 1.5t7.5 0.5q8 0 14 -9t11 -21.5t9.5 -27t10.5 -25.5q19 -41 55 -71.5t78 -50t85.5 -29t79.5 -9.5q45 0 101.5 13.5t106 42.5t83.5 76t34 115q0 61 -30 105.5t-77 75.5t-106 51t-117 33q-74 18 -143 48t-122 72.5t-85 98t-32 124.5q0 79 28.5 143t80.5 109.5t125 70
t162 24.5q73 0 134 -18.5t110 -52.5t85 -82.5t60 -107.5l-1 1q6 -9 6 -15q0 -9 -8 -17.5t-19 -15.5t-21.5 -11t-16.5 -4q-11 0 -17 4t-10.5 11t-9 17.5t-11.5 22.5q-41 67 -112 110.5t-170 43.5q-54 0 -103.5 -14t-88 -42.5t-61 -72t-22.5 -101.5q0 -50 30 -89t74.5 -67.5
t95.5 -47t93 -28.5l10 -2.5t3 -0.5q91 -21 166 -54.5t128 -79.5t82 -105.5t29 -134.5q0 -86 -36 -153.5t-97.5 -114t-142 -71t-168.5 -24.5q-74 0 -142 19t-123.5 56t-95.5 91t-57 124z" />
    <glyph glyph-name="ohungarumlaut" unicode="&#x151;" horiz-adv-x="1498" 
d="M656 1730q8 18 22.5 26.5t32.5 8.5h64q14 0 19 -3.5t5 -11.5q0 -10 -6 -20l-104 -215q-8 -17 -18 -27.5t-30 -10.5h-64q-29 0 -29 20q0 3 1.5 8t3.5 10zM1004 1730q16 35 55 35h62q14 0 19 -3.5t5 -11.5q0 -5 -1 -10t-3 -10l-104 -215q-10 -17 -19.5 -27.5t-30.5 -10.5
h-64q-29 0 -29 20q0 6 7 18zM100 631q0 90 23.5 174t66.5 157t103 133t133 103t156.5 66.5t173.5 23.5t173.5 -23.5t156.5 -66.5t133.5 -103t103.5 -133t66.5 -157t23.5 -174t-23.5 -174t-66.5 -157t-103.5 -133t-133.5 -103t-156.5 -66.5t-173.5 -23.5t-173.5 23.5
t-156.5 66.5t-133 103t-103 133t-66.5 157t-23.5 174zM220 631q0 -73 19 -141.5t53.5 -129t83 -111t108 -86.5t127 -56t141.5 -20q111 0 209.5 42.5t172.5 116t117 172t43 211.5q0 110 -42 209.5t-114.5 174.5t-170 119.5t-208.5 44.5t-209.5 -43.5t-171.5 -118.5
t-115.5 -174t-42.5 -210z" />
    <glyph glyph-name="odieresis" unicode="&#xf6;" horiz-adv-x="1498" 
d="M100 631q0 90 23.5 174t66.5 157t103 133t133 103t156.5 66.5t173.5 23.5t173.5 -23.5t156.5 -66.5t133.5 -103t103.5 -133t66.5 -157t23.5 -174t-23.5 -174t-66.5 -157t-103.5 -133t-133.5 -103t-156.5 -66.5t-173.5 -23.5t-173.5 23.5t-156.5 66.5t-133 103t-103 133
t-66.5 157t-23.5 174zM220 631q0 -73 19 -141.5t53.5 -129t83 -111t108 -86.5t127 -56t141.5 -20q111 0 209.5 42.5t172.5 116t117 172t43 211.5q0 110 -42 209.5t-114.5 174.5t-170 119.5t-208.5 44.5t-209.5 -43.5t-171.5 -118.5t-115.5 -174t-42.5 -210zM526 1588
q0 15 7.5 24.5t19.5 14.5t26 6.5t28 1.5q23 0 36 -5.5t19.5 -15t8 -22.5t1.5 -28q0 -27 -5 -42t-14.5 -22t-24 -8.5t-33.5 -1.5q-29 0 -43.5 7.5t-20 20.5t-5.5 31v39zM881 1588q0 15 7.5 24.5t19 14.5t26 6.5t28.5 1.5q22 0 35 -5t19.5 -14t8 -21t1.5 -25q0 -29 -4 -45.5
t-13 -24t-24.5 -9t-39.5 -1.5q-22 0 -35 5t-19.5 13.5t-8.5 20.5t-2 26q0 8 0.5 16.5t0.5 16.5z" />
    <glyph glyph-name="Oacute" unicode="&#xd3;" horiz-adv-x="1727" 
d="M89 741q0 105 27 202.5t76.5 182t119 154.5t154.5 119.5t182 77t203 27.5q104 0 201.5 -27.5t182 -77t154 -119t119 -154.5t77 -183t27.5 -203t-27.5 -202t-77 -181.5t-119 -153.5t-154 -118.5t-182 -76.5t-202.5 -27t-202.5 27t-182 76.5t-154 119t-119 154t-76.5 181.5
t-27 202zM206 742q0 -134 50.5 -251t138 -204.5t205 -138t251.5 -50.5q89 0 171 23t153.5 65t130.5 100.5t101 130t65 154t23 171.5q0 133 -51 250t-138.5 204.5t-204.5 138.5t-250 51q-89 0 -171.5 -23t-154.5 -65t-130.5 -101t-100.5 -130.5t-65 -154t-23 -170.5z
M925 1915q15 36 52 36h42q36 0 21 -36l-100 -234q-10 -23 -23 -30.5t-30 -7.5h-41q-37 0 -21 38z" />
    <glyph glyph-name="Aacute" unicode="&#xc1;" horiz-adv-x="1435" 
d="M75 36q7 23 14.5 42.5t14.5 35.5l562 1346q5 11 12 20t23 9h4h33h4q17 0 24 -9t13 -18l587 -1414q1 -2 2 -9.5t1 -10.5q0 -24 -32 -28h-53q-2 0 -4 -0.5t-4 -0.5q-25 0 -36 28l-140 340h-758q-39 -96 -74.5 -183t-64.5 -159q-11 -25 -35 -25q-6 0 -9 1h-53q-32 3 -32 26
v4.5t1 4.5zM394 493h655l-326 799zM841 2020q15 36 52 36h42q36 0 21 -36l-100 -234q-10 -23 -23 -30.5t-30 -7.5h-41q-37 0 -21 38z" />
    <glyph glyph-name="Acircumflex" unicode="&#xc2;" horiz-adv-x="1435" 
d="M75 36q7 23 14.5 42.5t14.5 35.5l562 1346q5 11 12 20t23 9h4h33h4q17 0 24 -9t13 -18l587 -1414q1 -2 2 -9.5t1 -10.5q0 -24 -32 -28h-53q-2 0 -4 -0.5t-4 -0.5q-25 0 -36 28l-140 340h-758q-39 -96 -74.5 -183t-64.5 -159q-11 -25 -35 -25q-6 0 -9 1h-53q-32 3 -32 26
v4.5t1 4.5zM394 493h655l-326 799zM710 1975q5 4 11 5t9 1q7 0 15 -7l240 -240q7 -6 14.5 -15.5t7.5 -19.5q0 -9 -7 -16l-28 -30q-10 -8 -19 -8q-10 0 -21 7l-204 199l-205 -198q-6 -3 -11.5 -4t-10.5 -1q-10 0 -16 6l-29 29q-7 6 -7 14q0 5 2.5 13t4.5 10z" />
    <glyph glyph-name="Agrave" unicode="&#xc0;" horiz-adv-x="1435" 
d="M75 36q7 23 14.5 42.5t14.5 35.5l562 1346q5 11 12 20t23 9h4h33h4q17 0 24 -9t13 -18l587 -1414q1 -2 2 -9.5t1 -10.5q0 -24 -32 -28h-53q-2 0 -4 -0.5t-4 -0.5q-25 0 -36 28l-140 340h-758q-39 -96 -74.5 -183t-64.5 -159q-11 -25 -35 -25q-6 0 -9 1h-53q-32 3 -32 26
v4.5t1 4.5zM394 493h655l-326 799zM732 1691q16 -38 -21 -38h-41q-17 0 -30 7.5t-23 30.5l-100 234q-15 36 21 36h42q37 0 52 -36z" />
    <glyph glyph-name="Aring" unicode="&#xc5;" horiz-adv-x="1435" 
d="M725 1992q39 0 72.5 -15t59 -40t40 -59t14.5 -71q0 -39 -14.5 -73t-40 -58.5t-59 -39t-72.5 -14.5t-73 14.5t-58.5 39t-39 58.5t-14.5 73q0 37 14.5 71t39 59t58.5 40t73 15zM618 1807q0 -47 30 -77t77 -30q46 0 76 30t30 77q0 45 -30 75.5t-76 30.5q-23 0 -42.5 -8.5
t-34 -22.5t-22.5 -33.5t-8 -41.5zM75 36q7 23 14.5 42.5t14.5 35.5l562 1346q5 11 12 20t23 9h4h33h4q17 0 24 -9t13 -18l587 -1414q1 -2 2 -9.5t1 -10.5q0 -24 -32 -28h-53q-2 0 -4 -0.5t-4 -0.5q-25 0 -36 28l-140 340h-758q-39 -96 -74.5 -183t-64.5 -159
q-11 -25 -35 -25q-6 0 -9 1h-53q-32 3 -32 26v4.5t1 4.5zM394 493h655l-326 799z" />
    <glyph glyph-name="Atilde" unicode="&#xc3;" horiz-adv-x="1435" 
d="M75 36q7 23 14.5 42.5t14.5 35.5l562 1346q5 11 12 20t23 9h4h33h4q17 0 24 -9t13 -18l587 -1414q1 -2 2 -9.5t1 -10.5q0 -24 -32 -28h-53q-2 0 -4 -0.5t-4 -0.5q-25 0 -36 28l-140 340h-758q-39 -96 -74.5 -183t-64.5 -159q-11 -25 -35 -25q-6 0 -9 1h-53q-32 3 -32 26
v4.5t1 4.5zM394 493h655l-326 799zM527 1711q-10 -9 -21.5 -22t-21.5 -13q-4 0 -13 5.5t-18.5 14t-16.5 17t-7 14.5q0 8 6 14q68 108 182 108q33 -2 62.5 -16t56.5 -30.5t52.5 -30t51.5 -13.5h5q23 2 41.5 14t33 26t26 25.5t21.5 11.5q5 0 14 -6t17.5 -14t15 -16.5
t6.5 -13.5q0 -4 -1.5 -9t-5.5 -9q-37 -53 -75.5 -77t-89.5 -26q-33 0 -63 8.5t-61 29.5l-54 33q-14 8 -26.5 12.5t-29.5 6.5q-27 0 -48.5 -12t-38.5 -32z" />
    <glyph glyph-name="Ccedilla" unicode="&#xc7;" horiz-adv-x="1460" 
d="M1329 1342q21 -14 21 -31q0 -11 -8 -21l-27 -34q-7 -8 -13.5 -13t-14.5 -5q-15 0 -40 18q-87 63 -183.5 98.5t-201.5 35.5q-92 0 -176 -24t-156.5 -67.5t-131.5 -103.5t-101 -132t-65 -153t-23 -166q0 -86 24.5 -168.5t68 -155t103.5 -133t131 -104.5t151 -68.5
t164 -24.5q51 0 105.5 10t107.5 29t103.5 46.5t92.5 62.5q12 9 25 9q21 0 37 -25l15 -24q7 -12 7 -25q0 -22 -20 -37q-98 -75 -216 -116.5t-252 -41.5q-104 0 -201.5 27t-182 77t-154.5 119.5t-119.5 155t-77 183.5t-27.5 204q0 104 27 201.5t77 182t119.5 154t155 119
t183.5 77t204 27.5q129 0 250 -42.5t219 -120.5zM800 46h95q1 -5 1.5 -18t0.5 -27v-27v-18q0 -19 1 -31.5t3.5 -20.5t8 -12t14.5 -7q28 -11 54 -27t46 -38.5t31.5 -51.5t11.5 -66q-3 -57 -45 -100t-120 -78q-12 -5 -24.5 -9t-26.5 -4q-10 0 -18 6t-14 15t-9 19.5t-3 19.5
q0 11 4.5 17.5t20.5 11.5q22 5 45.5 15.5t43 24.5t32 31.5t12.5 37.5q0 21 -8 37.5t-22 30t-32.5 23t-38.5 15.5q-29 8 -46.5 32t-17.5 55v144z" />
    <glyph glyph-name="Eacute" unicode="&#xc9;" horiz-adv-x="1265" 
d="M1163 1486q38 0 38 -38v-50q0 -17 -9.5 -27.5t-29.5 -10.5h-873v-521h702q17 0 27.5 -8.5t10.5 -28.5v-51q0 -17 -9.5 -27t-28.5 -10h-702v-589h886q38 0 38 -37v-52q0 -36 -37 -36h-981q-14 0 -23 8.5t-9 26.5v1414q0 20 10 28.5t27 8.5h963zM697 1926q15 36 52 36h42
q36 0 21 -36l-100 -234q-10 -23 -23 -30.5t-30 -7.5h-41q-37 0 -21 38z" />
    <glyph glyph-name="Ecircumflex" unicode="&#xca;" horiz-adv-x="1265" 
d="M1163 1486q38 0 38 -38v-50q0 -17 -9.5 -27.5t-29.5 -10.5h-873v-521h702q17 0 27.5 -8.5t10.5 -28.5v-51q0 -17 -9.5 -27t-28.5 -10h-702v-589h886q38 0 38 -37v-52q0 -36 -37 -36h-981q-14 0 -23 8.5t-9 26.5v1414q0 20 10 28.5t27 8.5h963zM681 1978q5 4 11 5t9 1
q7 0 15 -7l240 -240q7 -6 14.5 -15.5t7.5 -19.5q0 -9 -7 -16l-28 -30q-10 -8 -19 -8q-10 0 -21 7l-204 199l-205 -198q-6 -3 -11.5 -4t-10.5 -1q-10 0 -16 6l-29 29q-7 6 -7 14q0 5 2.5 13t4.5 10z" />
    <glyph glyph-name="Edieresis" unicode="&#xcb;" horiz-adv-x="1265" 
d="M1163 1486q38 0 38 -38v-50q0 -17 -9.5 -27.5t-29.5 -10.5h-873v-521h702q17 0 27.5 -8.5t10.5 -28.5v-51q0 -17 -9.5 -27t-28.5 -10h-702v-589h886q38 0 38 -37v-52q0 -36 -37 -36h-981q-14 0 -23 8.5t-9 26.5v1414q0 20 10 28.5t27 8.5h963zM434 1796q0 15 7.5 24.5
t19.5 14.5t26 6.5t28 1.5q23 0 36 -5.5t19.5 -15t8 -22.5t1.5 -28q0 -27 -5 -42t-14.5 -22t-24 -8.5t-33.5 -1.5q-29 0 -43.5 7.5t-20 20.5t-5.5 31v39zM789 1796q0 15 7.5 24.5t19 14.5t26 6.5t28.5 1.5q22 0 35 -5t19.5 -14t8 -21t1.5 -25q0 -29 -4 -45.5t-13 -24
t-24.5 -9t-39.5 -1.5q-22 0 -35 5t-19.5 13.5t-8.5 20.5t-2 26q0 8 0.5 16.5t0.5 16.5z" />
    <glyph glyph-name="Egrave" unicode="&#xc8;" horiz-adv-x="1265" 
d="M1163 1486q38 0 38 -38v-50q0 -17 -9.5 -27.5t-29.5 -10.5h-873v-521h702q17 0 27.5 -8.5t10.5 -28.5v-51q0 -17 -9.5 -27t-28.5 -10h-702v-589h886q38 0 38 -37v-52q0 -36 -37 -36h-981q-14 0 -23 8.5t-9 26.5v1414q0 20 10 28.5t27 8.5h963zM761 1684q16 -38 -21 -38
h-41q-17 0 -30 7.5t-23 30.5l-100 234q-15 36 21 36h42q37 0 52 -36z" />
    <glyph glyph-name="Gbreve" unicode="&#x11e;" horiz-adv-x="1484" 
d="M859 1657q-47 1 -86.5 18t-68.5 44.5t-45.5 63.5t-16.5 75q0 14 8 26.5t25 12.5h34q18 0 25.5 -11.5t7.5 -26.5q0 -18 7.5 -36.5t22.5 -33.5t36.5 -24.5t48.5 -10.5q28 0 50.5 9.5t38 24.5t23.5 34t8 37q0 15 7.5 26.5t25.5 11.5h34q17 0 25 -12.5t8 -26.5
q0 -39 -16.5 -75t-45.5 -63.5t-69 -44.5t-86 -18l-1 1v-1v0zM862 1385q-91 0 -174.5 -24t-155 -66.5t-130 -102t-99.5 -131.5t-63.5 -153.5t-22.5 -167.5q0 -89 23.5 -171.5t65.5 -154t101 -130t131 -100.5t153.5 -65t169.5 -23q114 0 211 35.5t166 87.5v402q0 37 37 37h42
q17 0 27 -9.5t10 -27.5v-445q0 -11 -6.5 -19.5t-18.5 -17.5q-100 -71 -217 -114.5t-252 -43.5q-105 0 -202.5 27t-181.5 76.5t-153.5 118.5t-118.5 153.5t-76 182t-27 202.5q0 104 27 201.5t76.5 182t118.5 154t153.5 119.5t182 77.5t202.5 27.5q154 0 294 -60
q24 -11 57.5 -28t64 -36t52 -37.5t21.5 -32.5q0 -11 -8 -21l-27 -34q-7 -8 -13.5 -13t-14.5 -5q-15 0 -40 18q-87 63 -183.5 97t-201.5 34z" />
    <glyph glyph-name="Iacute" unicode="&#xcd;" 
d="M159 1450q0 16 9.5 26t27.5 10h52q16 0 26.5 -9.5t10.5 -26.5v-1414q0 -36 -37 -36h-52q-37 0 -37 36v1414zM277 1917q15 36 52 36h42q36 0 21 -36l-100 -234q-10 -23 -23 -30.5t-30 -7.5h-41q-37 0 -21 38z" />
    <glyph glyph-name="Icircumflex" unicode="&#xce;" 
d="M160 1450q0 16 9.5 26t27.5 10h52q16 0 26.5 -9.5t10.5 -26.5v-1414q0 -36 -37 -36h-52q-37 0 -37 36v1414zM209 1971q5 4 11 5t9 1q7 0 15 -7l240 -240q7 -6 14.5 -15.5t7.5 -19.5q0 -9 -7 -16l-28 -30q-10 -8 -19 -8q-10 0 -21 7l-204 199l-205 -198q-6 -3 -11.5 -4
t-10.5 -1q-10 0 -16 6l-29 29q-7 6 -7 14q0 5 2.5 13t4.5 10z" />
    <glyph glyph-name="Idieresis" unicode="&#xcf;" 
d="M160 1450q0 16 9.5 26t27.5 10h52q16 0 26.5 -9.5t10.5 -26.5v-1414q0 -36 -37 -36h-52q-37 0 -37 36v1414zM-24 1748q0 15 7.5 24.5t19.5 14.5t26 6.5t28 1.5q23 0 36 -5.5t19.5 -15t8 -22.5t1.5 -28q0 -27 -5 -42t-14.5 -22t-24 -8.5t-33.5 -1.5q-29 0 -43.5 7.5
t-20 20.5t-5.5 31v39zM331 1748q0 15 7.5 24.5t19 14.5t26 6.5t28.5 1.5q22 0 35 -5t19.5 -14t8 -21t1.5 -25q0 -29 -4 -45.5t-13 -24t-24.5 -9t-39.5 -1.5q-22 0 -35 5t-19.5 13.5t-8.5 20.5t-2 26q0 8 0.5 16.5t0.5 16.5z" />
    <glyph glyph-name="Igrave" unicode="&#xcc;" 
d="M162 1450q0 16 9.5 26t27.5 10h52q16 0 26.5 -9.5t10.5 -26.5v-1414q0 -36 -37 -36h-52q-37 0 -37 36v1414zM268 1685q16 -38 -21 -38h-41q-17 0 -30 7.5t-23 30.5l-100 234q-15 36 21 36h42q37 0 52 -36z" />
    <glyph glyph-name="Ocircumflex" unicode="&#xd4;" horiz-adv-x="1727" 
d="M89 741q0 105 27 202.5t76.5 182t119 154.5t154.5 119.5t182 77t203 27.5q104 0 201.5 -27.5t182 -77t154 -119t119 -154.5t77 -183t27.5 -203t-27.5 -202t-77 -181.5t-119 -153.5t-154 -118.5t-182 -76.5t-202.5 -27t-202.5 27t-182 76.5t-154 119t-119 154t-76.5 181.5
t-27 202zM206 742q0 -134 50.5 -251t138 -204.5t205 -138t251.5 -50.5q89 0 171 23t153.5 65t130.5 100.5t101 130t65 154t23 171.5q0 133 -51 250t-138.5 204.5t-204.5 138.5t-250 51q-89 0 -171.5 -23t-154.5 -65t-130.5 -101t-100.5 -130.5t-65 -154t-23 -170.5z
M848 1965q5 4 11 5t9 1q7 0 15 -7l240 -240q7 -6 14.5 -15.5t7.5 -19.5q0 -9 -7 -16l-28 -30q-10 -8 -19 -8q-10 0 -21 7l-204 199l-205 -198q-6 -3 -11.5 -4t-10.5 -1q-10 0 -16 6l-29 29q-7 6 -7 14q0 5 2.5 13t4.5 10z" />
    <glyph glyph-name="Odieresis" unicode="&#xd6;" horiz-adv-x="1727" 
d="M89 741q0 105 27 202.5t76.5 182t119 154.5t154.5 119.5t182 77t203 27.5q104 0 201.5 -27.5t182 -77t154 -119t119 -154.5t77 -183t27.5 -203t-27.5 -202t-77 -181.5t-119 -153.5t-154 -118.5t-182 -76.5t-202.5 -27t-202.5 27t-182 76.5t-154 119t-119 154t-76.5 181.5
t-27 202zM206 742q0 -134 50.5 -251t138 -204.5t205 -138t251.5 -50.5q89 0 171 23t153.5 65t130.5 100.5t101 130t65 154t23 171.5q0 133 -51 250t-138.5 204.5t-204.5 138.5t-250 51q-89 0 -171.5 -23t-154.5 -65t-130.5 -101t-100.5 -130.5t-65 -154t-23 -170.5z
M595 1748q0 15 7.5 24.5t19.5 14.5t26 6.5t28 1.5q23 0 36 -5.5t19.5 -15t8 -22.5t1.5 -28q0 -27 -5 -42t-14.5 -22t-24 -8.5t-33.5 -1.5q-29 0 -43.5 7.5t-20 20.5t-5.5 31v39zM950 1748q0 15 7.5 24.5t19 14.5t26 6.5t28.5 1.5q22 0 35 -5t19.5 -14t8 -21t1.5 -25
q0 -29 -4 -45.5t-13 -24t-24.5 -9t-39.5 -1.5q-22 0 -35 5t-19.5 13.5t-8.5 20.5t-2 26q0 8 0.5 16.5t0.5 16.5z" />
    <glyph glyph-name="Ograve" unicode="&#xd2;" horiz-adv-x="1727" 
d="M89 741q0 105 27 202.5t76.5 182t119 154.5t154.5 119.5t182 77t203 27.5q104 0 201.5 -27.5t182 -77t154 -119t119 -154.5t77 -183t27.5 -203t-27.5 -202t-77 -181.5t-119 -153.5t-154 -118.5t-182 -76.5t-202.5 -27t-202.5 27t-182 76.5t-154 119t-119 154t-76.5 181.5
t-27 202zM206 742q0 -134 50.5 -251t138 -204.5t205 -138t251.5 -50.5q89 0 171 23t153.5 65t130.5 100.5t101 130t65 154t23 171.5q0 133 -51 250t-138.5 204.5t-204.5 138.5t-250 51q-89 0 -171.5 -23t-154.5 -65t-130.5 -101t-100.5 -130.5t-65 -154t-23 -170.5z
M964 1683q16 -38 -21 -38h-41q-17 0 -30 7.5t-23 30.5l-100 234q-15 36 21 36h42q37 0 52 -36z" />
    <glyph glyph-name="Otilde" unicode="&#xd5;" horiz-adv-x="1727" 
d="M89 741q0 105 27 202.5t76.5 182t119 154.5t154.5 119.5t182 77t203 27.5q104 0 201.5 -27.5t182 -77t154 -119t119 -154.5t77 -183t27.5 -203t-27.5 -202t-77 -181.5t-119 -153.5t-154 -118.5t-182 -76.5t-202.5 -27t-202.5 27t-182 76.5t-154 119t-119 154t-76.5 181.5
t-27 202zM206 742q0 -134 50.5 -251t138 -204.5t205 -138t251.5 -50.5q89 0 171 23t153.5 65t130.5 100.5t101 130t65 154t23 171.5q0 133 -51 250t-138.5 204.5t-204.5 138.5t-250 51q-89 0 -171.5 -23t-154.5 -65t-130.5 -101t-100.5 -130.5t-65 -154t-23 -170.5z
M669 1729q-10 -9 -21.5 -22t-21.5 -13q-4 0 -13 5.5t-18.5 14t-16.5 17t-7 14.5q0 8 6 14q68 108 182 108q33 -2 62.5 -16t56.5 -30.5t52.5 -30t51.5 -13.5h5q23 2 41.5 14t33 26t26 25.5t21.5 11.5q5 0 14 -6t17.5 -14t15 -16.5t6.5 -13.5q0 -4 -1.5 -9t-5.5 -9
q-37 -53 -75.5 -77t-89.5 -26q-33 0 -63 8.5t-61 29.5l-54 33q-14 8 -26.5 12.5t-29.5 6.5q-27 0 -48.5 -12t-38.5 -32z" />
    <glyph glyph-name="Scaron" unicode="&#x160;" horiz-adv-x="1309" 
d="M410 1889q-8 6 -15 16.5t-7 19.5q0 8 7 15l29 31q10 8 20 8q9 0 20 -7l198 -195l193 189q7 6 17 6q5 0 11.5 -2t9.5 -6l29 -27q4 -3 5.5 -10t1.5 -12q0 -11 -7 -17l-242 -243q-10 -8 -18 -8q-4 0 -9 1.5t-8 5.5zM105 267q20 20 33 31t33 11q11 0 19 -7t13 -14
q42 -47 92.5 -83.5t107 -61.5t115.5 -38t117 -13q81 0 160.5 18t142.5 57.5t102 101.5t39 150q0 51 -19.5 90.5t-53.5 69t-79 51t-95.5 37.5t-103.5 28.5t-103 23.5q-124 28 -216.5 63t-153.5 81t-91 105t-30 136q0 92 36.5 166t103.5 126t162 80t212 28q131 0 247.5 -44.5
t208.5 -135.5q13 -13 19.5 -20.5t6.5 -15.5t-10 -18.5t-30 -29.5q-9 -8 -15 -13t-12 -5q-13 0 -35 19q-35 30 -73.5 57t-84.5 48t-101.5 33.5t-123.5 12.5q-98 0 -171 -22.5t-122 -61.5t-73.5 -91t-24.5 -110q0 -45 16 -79.5t44.5 -62t67 -48t83 -37t93.5 -29.5t98 -24
q58 -14 120.5 -30t122.5 -37.5t113.5 -50t94 -68.5t64 -93t23.5 -123q0 -110 -44 -193t-120 -139t-178.5 -84.5t-218.5 -28.5q-76 0 -149 13.5t-139.5 43t-125.5 75t-108 108.5q-7 8 -11 15t-4 16q0 8 9 16z" />
    <glyph glyph-name="Uacute" unicode="&#xda;" horiz-adv-x="1502" 
d="M259 595q0 -106 36.5 -198.5t102 -160.5t156 -107.5t198.5 -39.5q110 0 201 39.5t156 108t101 160.5t36 198v855q0 16 10 26t28 10h38q17 0 28 -9.5t11 -26.5v-870q-1 -131 -49 -241.5t-130.5 -191t-193 -126t-236.5 -45.5q-84 0 -162 21.5t-145.5 61.5t-123 95.5
t-95 123t-61.5 145.5t-22 162v865q0 14 9 25t26 11h44q14 0 25.5 -10t11.5 -26v-855zM775 1915q15 36 52 36h42q36 0 21 -36l-100 -234q-10 -23 -23 -30.5t-30 -7.5h-41q-37 0 -21 38z" />
    <glyph glyph-name="Ucircumflex" unicode="&#xdb;" horiz-adv-x="1502" 
d="M259 595q0 -106 36.5 -198.5t102 -160.5t156 -107.5t198.5 -39.5q110 0 201 39.5t156 108t101 160.5t36 198v855q0 16 10 26t28 10h38q17 0 28 -9.5t11 -26.5v-870q-1 -131 -49 -241.5t-130.5 -191t-193 -126t-236.5 -45.5q-84 0 -162 21.5t-145.5 61.5t-123 95.5
t-95 123t-61.5 145.5t-22 162v865q0 14 9 25t26 11h44q14 0 25.5 -10t11.5 -26v-855zM751 1957q5 4 11 5t9 1q7 0 15 -7l240 -240q7 -6 14.5 -15.5t7.5 -19.5q0 -9 -7 -16l-28 -30q-10 -8 -19 -8q-10 0 -21 7l-204 199l-205 -198q-6 -3 -11.5 -4t-10.5 -1q-10 0 -16 6
l-29 29q-7 6 -7 14q0 5 2.5 13t4.5 10z" />
    <glyph glyph-name="Ugrave" unicode="&#xd9;" horiz-adv-x="1502" 
d="M259 595q0 -106 36.5 -198.5t102 -160.5t156 -107.5t198.5 -39.5q110 0 201 39.5t156 108t101 160.5t36 198v855q0 16 10 26t28 10h38q17 0 28 -9.5t11 -26.5v-870q-1 -131 -49 -241.5t-130.5 -191t-193 -126t-236.5 -45.5q-84 0 -162 21.5t-145.5 61.5t-123 95.5
t-95 123t-61.5 145.5t-22 162v865q0 14 9 25t26 11h44q14 0 25.5 -10t11.5 -26v-855zM825 1684q16 -38 -21 -38h-41q-17 0 -30 7.5t-23 30.5l-100 234q-15 36 21 36h42q37 0 52 -36z" />
    <glyph glyph-name="Uhungarumlaut" unicode="&#x170;" horiz-adv-x="1502" 
d="M640 1906q8 18 22.5 26.5t32.5 8.5h64q14 0 19 -3.5t5 -11.5q0 -10 -6 -20l-104 -215q-8 -17 -18 -27.5t-30 -10.5h-64q-29 0 -29 20q0 3 1.5 8t3.5 10zM988 1906q16 35 55 35h62q14 0 19 -3.5t5 -11.5q0 -5 -1 -10t-3 -10l-104 -215q-10 -17 -19.5 -27.5t-30.5 -10.5
h-64q-29 0 -29 20q0 6 7 18zM259 595q0 -106 36.5 -198.5t102 -160.5t156 -107.5t198.5 -39.5q110 0 201 39.5t156 108t101 160.5t36 198v855q0 16 10 26t28 10h38q17 0 28 -9.5t11 -26.5v-870q-1 -131 -49 -241.5t-130.5 -191t-193 -126t-236.5 -45.5q-84 0 -162 21.5
t-145.5 61.5t-123 95.5t-95 123t-61.5 145.5t-22 162v865q0 14 9 25t26 11h44q14 0 25.5 -10t11.5 -26v-855z" />
    <glyph glyph-name="Yacute" unicode="&#xdd;" horiz-adv-x="1210" 
d="M67 1428q-9 15 -9 28q0 29 36 29h35q11 0 18.5 -1.5t14 -6t13 -14.5t16.5 -26l400 -671l414 684q22 35 50 35h49q29 0 29 -19q-1 -5 -3 -12t-7 -15l-473 -786v-607q0 -46 -46 -46h-24q-44 0 -44 46v599zM651 1914q15 36 52 36h42q36 0 21 -36l-100 -234
q-10 -23 -23 -30.5t-30 -7.5h-41q-37 0 -21 38z" />
    <glyph glyph-name="Ydieresis" unicode="&#x178;" horiz-adv-x="1210" 
d="M67 1428q-9 15 -9 28q0 29 36 29h35q11 0 18.5 -1.5t14 -6t13 -14.5t16.5 -26l400 -671l414 684q22 35 50 35h49q29 0 29 -19q-1 -5 -3 -12t-7 -15l-473 -786v-607q0 -46 -46 -46h-24q-44 0 -44 46v599zM342 1727q0 15 7.5 24.5t19.5 14.5t26 6.5t28 1.5q23 0 36 -5.5
t19.5 -15t8 -22.5t1.5 -28q0 -27 -5 -42t-14.5 -22t-24 -8.5t-33.5 -1.5q-29 0 -43.5 7.5t-20 20.5t-5.5 31v39zM697 1727q0 15 7.5 24.5t19 14.5t26 6.5t28.5 1.5q22 0 35 -5t19.5 -14t8 -21t1.5 -25q0 -29 -4 -45.5t-13 -24t-24.5 -9t-39.5 -1.5q-22 0 -35 5t-19.5 13.5
t-8.5 20.5t-2 26q0 8 0.5 16.5t0.5 16.5z" />
    <glyph glyph-name="Zcaron" unicode="&#x17d;" horiz-adv-x="1307" 
d="M418 1893q-8 6 -15 16.5t-7 19.5q0 8 7 15l29 31q10 8 20 8q9 0 20 -7l198 -195l193 189q7 6 17 6q5 0 11.5 -2t9.5 -6l29 -27q4 -3 5.5 -10t1.5 -12q0 -11 -7 -17l-242 -243q-10 -8 -18 -8q-4 0 -9 1.5t-8 5.5zM1150 115q37 0 37 -37v-40q0 -17 -10 -27.5t-27 -10.5
h-1064q-15 0 -23.5 6t-12 16.5t-4 24.5t-0.5 30q0 10 2.5 19t10.5 16l971 1258h-910q-38 0 -38 38v42q0 36 38 36h1033q16 0 27 -10t11 -27v-47q0 -18 -10 -28l-969 -1259h938z" />
    <glyph glyph-name="Ntilde" unicode="&#xd1;" horiz-adv-x="1559" 
d="M1286 1452q2 34 36 34h45q34 0 34 -32v-1421q-2 -33 -37 -33h-47q-20 0 -33 16l-1008 1277v-1257q0 -36 -37 -36h-42q-36 0 -36 36v1413q0 14 2 21.5t11.5 10.5t29 3.5t53.5 0.5q11 0 19 -10q118 -149 246 -310t258.5 -324.5t259 -324.5t246.5 -310v1246zM595 1724
q-10 -9 -21.5 -22t-21.5 -13q-4 0 -13 5.5t-18.5 14t-16.5 17t-7 14.5q0 8 6 14q68 108 182 108q33 -2 62.5 -16t56.5 -30.5t52.5 -30t51.5 -13.5h5q23 2 41.5 14t33 26t26 25.5t21.5 11.5q5 0 14 -6t17.5 -14t15 -16.5t6.5 -13.5q0 -4 -1.5 -9t-5.5 -9q-37 -53 -75.5 -77
t-89.5 -26q-33 0 -63 8.5t-61 29.5l-54 33q-14 8 -26.5 12.5t-29.5 6.5q-27 0 -48.5 -12t-38.5 -32z" />
    <glyph glyph-name="Adieresis" unicode="&#xc4;" horiz-adv-x="1435" 
d="M75 36q7 23 14.5 42.5t14.5 35.5l562 1346q5 11 12 20t23 9h4h33h4q17 0 24 -9t13 -18l587 -1414q1 -2 2 -9.5t1 -10.5q0 -24 -32 -28h-53q-2 0 -4 -0.5t-4 -0.5q-25 0 -36 28l-140 340h-758q-39 -96 -74.5 -183t-64.5 -159q-11 -25 -35 -25q-6 0 -9 1h-53q-32 3 -32 26
v4.5t1 4.5zM394 493h655l-326 799zM473 1764q0 15 7.5 24.5t19.5 14.5t26 6.5t28 1.5q23 0 36 -5.5t19.5 -15t8 -22.5t1.5 -28q0 -27 -5 -42t-14.5 -22t-24 -8.5t-33.5 -1.5q-29 0 -43.5 7.5t-20 20.5t-5.5 31v39zM828 1764q0 15 7.5 24.5t19 14.5t26 6.5t28.5 1.5
q22 0 35 -5t19.5 -14t8 -21t1.5 -25q0 -29 -4 -45.5t-13 -24t-24.5 -9t-39.5 -1.5q-22 0 -35 5t-19.5 13.5t-8.5 20.5t-2 26q0 8 0.5 16.5t0.5 16.5z" />
    <glyph glyph-name="yacute" unicode="&#xfd;" horiz-adv-x="1176" 
d="M496 -358q-8 -20 -27.5 -24.5t-40.5 -4.5q-31 0 -45 6t-14 27q0 5 1 10t2 7l154 387l-484 1166q-4 4 -4 21q0 21 17 25.5t49 4.5q20 0 38 -4t25 -21l24 -58q28 -68 61 -150t68.5 -170t72.5 -178.5t72.5 -177t67.5 -165t59 -142.5q28 68 62 151t71 174t75.5 186
t75.5 187.5t72 179t65 159.5q11 29 39 29h55q37 0 37 -32q0 -5 -2 -11t-2 -8zM668 1748q15 36 52 36h42q36 0 21 -36l-100 -234q-10 -23 -23 -30.5t-30 -7.5h-41q-37 0 -21 38z" />
    <glyph glyph-name="ydieresis" unicode="&#xff;" horiz-adv-x="1176" 
d="M496 -358q-8 -20 -27.5 -24.5t-40.5 -4.5q-31 0 -45 6t-14 27q0 5 1 10t2 7l154 387l-484 1166q-4 4 -4 21q0 21 17 25.5t49 4.5q20 0 38 -4t25 -21l24 -58q28 -68 61 -150t68.5 -170t72.5 -178.5t72.5 -177t67.5 -165t59 -142.5q28 68 62 151t71 174t75.5 186
t75.5 187.5t72 179t65 159.5q11 29 39 29h55q37 0 37 -32q0 -5 -2 -11t-2 -8zM348 1583q0 15 7.5 24.5t19.5 14.5t26 6.5t28 1.5q23 0 36 -5.5t19.5 -15t8 -22.5t1.5 -28q0 -27 -5 -42t-14.5 -22t-24 -8.5t-33.5 -1.5q-29 0 -43.5 7.5t-20 20.5t-5.5 31v39zM703 1583
q0 15 7.5 24.5t19 14.5t26 6.5t28.5 1.5q22 0 35 -5t19.5 -14t8 -21t1.5 -25q0 -29 -4 -45.5t-13 -24t-24.5 -9t-39.5 -1.5q-22 0 -35 5t-19.5 13.5t-8.5 20.5t-2 26q0 8 0.5 16.5t0.5 16.5z" />
    <glyph glyph-name="zcaron" unicode="&#x17e;" horiz-adv-x="1185" 
d="M363 1726q-8 6 -15 16.5t-7 19.5q0 8 7 15l29 31q10 8 20 8q9 0 20 -7l198 -195l193 189q7 6 17 6q5 0 11.5 -2t9.5 -6l29 -27q4 -3 5.5 -10t1.5 -12q0 -11 -7 -17l-242 -243q-10 -8 -18 -8q-4 0 -9 1.5t-8 5.5zM1052 109q17 0 26.5 -8.5t9.5 -25.5v-37q0 -16 -9.5 -27
t-26.5 -11h-904q-15 0 -24.5 10t-10.5 24v6q0 15 0.5 32.5t6.5 25.5q54 72 120 157t138.5 177.5t148 188.5t148.5 189t140 180t123 161h-787q-36 0 -36 39v36q0 38 36 38h444t445 1h5q23 0 32 -10.5t9 -37.5v-9t-1 -9v-22q0 -12 -5 -22.5t-12.5 -20t-16 -19t-15.5 -18.5
l-767 -988h783z" />
    <glyph glyph-name="icircumflex" unicode="&#xee;" 
d="M159 1228q0 17 9.5 27t26.5 10h52q17 0 27 -10t10 -27v-1192q0 -36 -36 -36h-52q-37 0 -37 36v1192zM197 1771q5 4 11 5t9 1q7 0 15 -7l240 -240q7 -6 14.5 -15.5t7.5 -19.5q0 -9 -7 -16l-28 -30q-10 -8 -19 -8q-10 0 -21 7l-204 199l-205 -198q-6 -3 -11.5 -4t-10.5 -1
q-10 0 -16 6l-29 29q-7 6 -7 14q0 5 2.5 13t4.5 10z" />
    <glyph glyph-name="idieresis" unicode="&#xef;" 
d="M161 1228q0 17 9.5 27t26.5 10h52q17 0 27 -10t10 -27v-1192q0 -36 -36 -36h-52q-37 0 -37 36v1192zM-20 1589q0 15 7.5 24.5t19.5 14.5t26 6.5t28 1.5q23 0 36 -5.5t19.5 -15t8 -22.5t1.5 -28q0 -27 -5 -42t-14.5 -22t-24 -8.5t-33.5 -1.5q-29 0 -43.5 7.5t-20 20.5
t-5.5 31v39zM335 1589q0 15 7.5 24.5t19 14.5t26 6.5t28.5 1.5q22 0 35 -5t19.5 -14t8 -21t1.5 -25q0 -29 -4 -45.5t-13 -24t-24.5 -9t-39.5 -1.5q-22 0 -35 5t-19.5 13.5t-8.5 20.5t-2 26q0 8 0.5 16.5t0.5 16.5z" />
    <glyph glyph-name="igrave" unicode="&#xec;" 
d="M161 1228q0 17 9.5 27t26.5 10h52q17 0 27 -10t10 -27v-1192q0 -36 -36 -36h-52q-37 0 -37 36v1192zM280 1518q16 -38 -21 -38h-41q-17 0 -30 7.5t-23 30.5l-100 234q-15 36 21 36h42q37 0 52 -36z" />
    <glyph glyph-name="ecircumflex" unicode="&#xea;" horiz-adv-x="1512" 
d="M217 589q3 -17 4.5 -45.5t8.5 -53.5q25 -89 73.5 -163t115.5 -127t149.5 -83t174.5 -30q53 0 99 8t85.5 22.5t75 34.5t67.5 44q10 6 20.5 14.5t20.5 16t18.5 13t15.5 5.5q8 0 18 -13q17 -24 24.5 -37t7.5 -20q0 -4 -4 -8q5 -5 5 -10q-11 -14 -27 -29t-38 -30
q-81 -57 -175 -90t-205 -33q-135 0 -254.5 51.5t-209 141t-142 208.5t-52.5 254q0 91 23 175t65 157t101.5 133t133 103t158 66.5t177.5 23.5q87 0 168.5 -21t153.5 -61t131.5 -98t102.5 -131t68 -161t28 -188v1q0 -1 0.5 -2.5t0.5 -3.5q0 -34 -32 -34h-1155zM609 1154
q-76 -20 -142 -63t-117 -102t-85.5 -131t-47.5 -151h1070q-12 100 -59.5 185.5t-119.5 148t-163.5 98t-191.5 35.5q-34 0 -66 -3.5t-78 -16.5zM744 1779q5 4 11 5t9 1q7 0 15 -7l240 -240q7 -6 14.5 -15.5t7.5 -19.5q0 -9 -7 -16l-28 -30q-10 -8 -19 -8q-10 0 -21 7
l-204 199l-205 -198q-6 -3 -11.5 -4t-10.5 -1q-10 0 -16 6l-29 29q-7 6 -7 14q0 5 2.5 13t4.5 10z" />
    <glyph glyph-name="edieresis" unicode="&#xeb;" horiz-adv-x="1512" 
d="M217 589q3 -17 4.5 -45.5t8.5 -53.5q25 -89 73.5 -163t115.5 -127t149.5 -83t174.5 -30q53 0 99 8t85.5 22.5t75 34.5t67.5 44q10 6 20.5 14.5t20.5 16t18.5 13t15.5 5.5q8 0 18 -13q17 -24 24.5 -37t7.5 -20q0 -4 -4 -8q5 -5 5 -10q-11 -14 -27 -29t-38 -30
q-81 -57 -175 -90t-205 -33q-135 0 -254.5 51.5t-209 141t-142 208.5t-52.5 254q0 91 23 175t65 157t101.5 133t133 103t158 66.5t177.5 23.5q87 0 168.5 -21t153.5 -61t131.5 -98t102.5 -131t68 -161t28 -188v1q0 -1 0.5 -2.5t0.5 -3.5q0 -34 -32 -34h-1155zM609 1154
q-76 -20 -142 -63t-117 -102t-85.5 -131t-47.5 -151h1070q-12 100 -59.5 185.5t-119.5 148t-163.5 98t-191.5 35.5q-34 0 -66 -3.5t-78 -16.5zM511 1582q0 15 7.5 24.5t19.5 14.5t26 6.5t28 1.5q23 0 36 -5.5t19.5 -15t8 -22.5t1.5 -28q0 -27 -5 -42t-14.5 -22t-24 -8.5
t-33.5 -1.5q-29 0 -43.5 7.5t-20 20.5t-5.5 31v39zM866 1582q0 15 7.5 24.5t19 14.5t26 6.5t28.5 1.5q22 0 35 -5t19.5 -14t8 -21t1.5 -25q0 -29 -4 -45.5t-13 -24t-24.5 -9t-39.5 -1.5q-22 0 -35 5t-19.5 13.5t-8.5 20.5t-2 26q0 8 0.5 16.5t0.5 16.5z" />
    <glyph glyph-name="acircumflex" unicode="&#xe2;" horiz-adv-x="1567" 
d="M1309 200l-3 76q-40 -69 -96.5 -124.5t-125 -94.5t-146.5 -60t-162 -21q-90 0 -173.5 23.5t-156.5 67t-133.5 103.5t-103.5 133t-66.5 156.5t-23.5 173.5t23.5 173.5t67 156.5t103.5 133t133 103.5t156.5 67t173.5 23.5q82 0 160.5 -21t147.5 -60.5t126.5 -95.5
t98.5 -125v74v172q0 32 31 32h52q34 0 34 -32v-1202q0 -17 -11 -24.5t-26 -7.5h-41q-39 0 -39 36v164zM1315 633q0 109 -44 207.5t-118 173t-172 118.5t-206 45h-3q-107 0 -203.5 -44t-169.5 -118.5t-116 -172.5t-43 -207t41.5 -208.5t113.5 -175t168.5 -120t206.5 -44.5
q111 0 210.5 43.5t173.5 118t117.5 173.5t43.5 211zM742 1775q5 4 11 5t9 1q7 0 15 -7l240 -240q7 -6 14.5 -15.5t7.5 -19.5q0 -9 -7 -16l-28 -30q-10 -8 -19 -8q-10 0 -21 7l-204 199l-205 -198q-6 -3 -11.5 -4t-10.5 -1q-10 0 -16 6l-29 29q-7 6 -7 14q0 5 2.5 13t4.5 10z
" />
    <glyph glyph-name="adieresis" unicode="&#xe4;" horiz-adv-x="1567" 
d="M1309 200l-3 76q-40 -69 -96.5 -124.5t-125 -94.5t-146.5 -60t-162 -21q-90 0 -173.5 23.5t-156.5 67t-133.5 103.5t-103.5 133t-66.5 156.5t-23.5 173.5t23.5 173.5t67 156.5t103.5 133t133 103.5t156.5 67t173.5 23.5q82 0 160.5 -21t147.5 -60.5t126.5 -95.5
t98.5 -125v74v172q0 32 31 32h52q34 0 34 -32v-1202q0 -17 -11 -24.5t-26 -7.5h-41q-39 0 -39 36v164zM1315 633q0 109 -44 207.5t-118 173t-172 118.5t-206 45h-3q-107 0 -203.5 -44t-169.5 -118.5t-116 -172.5t-43 -207t41.5 -208.5t113.5 -175t168.5 -120t206.5 -44.5
q111 0 210.5 43.5t173.5 118t117.5 173.5t43.5 211zM526 1579q0 15 7.5 24.5t19.5 14.5t26 6.5t28 1.5q23 0 36 -5.5t19.5 -15t8 -22.5t1.5 -28q0 -27 -5 -42t-14.5 -22t-24 -8.5t-33.5 -1.5q-29 0 -43.5 7.5t-20 20.5t-5.5 31v39zM881 1579q0 15 7.5 24.5t19 14.5t26 6.5
t28.5 1.5q22 0 35 -5t19.5 -14t8 -21t1.5 -25q0 -29 -4 -45.5t-13 -24t-24.5 -9t-39.5 -1.5q-22 0 -35 5t-19.5 13.5t-8.5 20.5t-2 26q0 8 0.5 16.5t0.5 16.5z" />
    <glyph glyph-name="agrave" unicode="&#xe0;" horiz-adv-x="1567" 
d="M1309 200l-3 76q-40 -69 -96.5 -124.5t-125 -94.5t-146.5 -60t-162 -21q-90 0 -173.5 23.5t-156.5 67t-133.5 103.5t-103.5 133t-66.5 156.5t-23.5 173.5t23.5 173.5t67 156.5t103.5 133t133 103.5t156.5 67t173.5 23.5q82 0 160.5 -21t147.5 -60.5t126.5 -95.5
t98.5 -125v74v172q0 32 31 32h52q34 0 34 -32v-1202q0 -17 -11 -24.5t-26 -7.5h-41q-39 0 -39 36v164zM1315 633q0 109 -44 207.5t-118 173t-172 118.5t-206 45h-3q-107 0 -203.5 -44t-169.5 -118.5t-116 -172.5t-43 -207t41.5 -208.5t113.5 -175t168.5 -120t206.5 -44.5
q111 0 210.5 43.5t173.5 118t117.5 173.5t43.5 211zM798 1522q16 -38 -21 -38h-41q-17 0 -30 7.5t-23 30.5l-100 234q-15 36 21 36h42q37 0 52 -36z" />
    <glyph glyph-name="aring" unicode="&#xe5;" horiz-adv-x="1567" 
d="M778 1818q39 0 72.5 -15t59 -40t40 -59t14.5 -71q0 -39 -14.5 -73t-40 -58.5t-59 -39t-72.5 -14.5t-73 14.5t-58.5 39t-39 58.5t-14.5 73q0 37 14.5 71t39 59t58.5 40t73 15zM671 1633q0 -47 30 -77t77 -30q46 0 76 30t30 77q0 45 -30 75.5t-76 30.5q-23 0 -42.5 -8.5
t-34 -22.5t-22.5 -33.5t-8 -41.5zM1309 200l-3 76q-40 -69 -96.5 -124.5t-125 -94.5t-146.5 -60t-162 -21q-90 0 -173.5 23.5t-156.5 67t-133.5 103.5t-103.5 133t-66.5 156.5t-23.5 173.5t23.5 173.5t67 156.5t103.5 133t133 103.5t156.5 67t173.5 23.5q82 0 160.5 -21
t147.5 -60.5t126.5 -95.5t98.5 -125v74v172q0 32 31 32h52q34 0 34 -32v-1202q0 -17 -11 -24.5t-26 -7.5h-41q-39 0 -39 36v164zM1315 633q0 109 -44 207.5t-118 173t-172 118.5t-206 45h-3q-107 0 -203.5 -44t-169.5 -118.5t-116 -172.5t-43 -207t41.5 -208.5t113.5 -175
t168.5 -120t206.5 -44.5q111 0 210.5 43.5t173.5 118t117.5 173.5t43.5 211z" />
    <glyph glyph-name="atilde" unicode="&#xe3;" horiz-adv-x="1567" 
d="M1309 200l-3 76q-40 -69 -96.5 -124.5t-125 -94.5t-146.5 -60t-162 -21q-90 0 -173.5 23.5t-156.5 67t-133.5 103.5t-103.5 133t-66.5 156.5t-23.5 173.5t23.5 173.5t67 156.5t103.5 133t133 103.5t156.5 67t173.5 23.5q82 0 160.5 -21t147.5 -60.5t126.5 -95.5
t98.5 -125v74v172q0 32 31 32h52q34 0 34 -32v-1202q0 -17 -11 -24.5t-26 -7.5h-41q-39 0 -39 36v164zM1315 633q0 109 -44 207.5t-118 173t-172 118.5t-206 45h-3q-107 0 -203.5 -44t-169.5 -118.5t-116 -172.5t-43 -207t41.5 -208.5t113.5 -175t168.5 -120t206.5 -44.5
q111 0 210.5 43.5t173.5 118t117.5 173.5t43.5 211zM574 1504q-10 -9 -21.5 -22t-21.5 -13q-4 0 -13 5.5t-18.5 14t-16.5 17t-7 14.5q0 8 6 14q68 108 182 108q33 -2 62.5 -16t56.5 -30.5t52.5 -30t51.5 -13.5h5q23 2 41.5 14t33 26t26 25.5t21.5 11.5q5 0 14 -6t17.5 -14
t15 -16.5t6.5 -13.5q0 -4 -1.5 -9t-5.5 -9q-37 -53 -75.5 -77t-89.5 -26q-33 0 -63 8.5t-61 29.5l-54 33q-14 8 -26.5 12.5t-29.5 6.5q-27 0 -48.5 -12t-38.5 -32z" />
    <glyph glyph-name="uacute" unicode="&#xfa;" horiz-adv-x="1355" 
d="M1093 142l-3 62q-33 -51 -75 -92t-93 -70t-111 -44.5t-130 -15.5q-116 0 -213 42t-167 114t-109.5 169.5t-39.5 208.5v714q0 22 11 33t30 11h38q23 0 30.5 -10t7.5 -33v-720q2 -80 32 -154t84 -132t130.5 -92.5t172.5 -34.5q79 0 151 29.5t128 82.5t90 126.5t36 161.5
v744q0 32 32 32h52q33 0 33 -32v-1200q0 -42 -37 -42h-41q-39 0 -39 36v106zM720 1762q15 36 52 36h42q36 0 21 -36l-100 -234q-10 -23 -23 -30.5t-30 -7.5h-41q-37 0 -21 38z" />
    <glyph glyph-name="ucircumflex" unicode="&#xfb;" horiz-adv-x="1355" 
d="M1093 142l-3 62q-33 -51 -75 -92t-93 -70t-111 -44.5t-130 -15.5q-116 0 -213 42t-167 114t-109.5 169.5t-39.5 208.5v714q0 22 11 33t30 11h38q23 0 30.5 -10t7.5 -33v-720q2 -80 32 -154t84 -132t130.5 -92.5t172.5 -34.5q79 0 151 29.5t128 82.5t90 126.5t36 161.5
v744q0 32 32 32h52q33 0 33 -32v-1200q0 -42 -37 -42h-41q-39 0 -39 36v106zM659 1802q5 4 11 5t9 1q7 0 15 -7l240 -240q7 -6 14.5 -15.5t7.5 -19.5q0 -9 -7 -16l-28 -30q-10 -8 -19 -8q-10 0 -21 7l-204 199l-205 -198q-6 -3 -11.5 -4t-10.5 -1q-10 0 -16 6l-29 29
q-7 6 -7 14q0 5 2.5 13t4.5 10z" />
    <glyph glyph-name="udieresis" unicode="&#xfc;" horiz-adv-x="1355" 
d="M1093 142l-3 62q-33 -51 -75 -92t-93 -70t-111 -44.5t-130 -15.5q-116 0 -213 42t-167 114t-109.5 169.5t-39.5 208.5v714q0 22 11 33t30 11h38q23 0 30.5 -10t7.5 -33v-720q2 -80 32 -154t84 -132t130.5 -92.5t172.5 -34.5q79 0 151 29.5t128 82.5t90 126.5t36 161.5
v744q0 32 32 32h52q33 0 33 -32v-1200q0 -42 -37 -42h-41q-39 0 -39 36v106zM445 1582q0 15 7.5 24.5t19.5 14.5t26 6.5t28 1.5q23 0 36 -5.5t19.5 -15t8 -22.5t1.5 -28q0 -27 -5 -42t-14.5 -22t-24 -8.5t-33.5 -1.5q-29 0 -43.5 7.5t-20 20.5t-5.5 31v39zM800 1582
q0 15 7.5 24.5t19 14.5t26 6.5t28.5 1.5q22 0 35 -5t19.5 -14t8 -21t1.5 -25q0 -29 -4 -45.5t-13 -24t-24.5 -9t-39.5 -1.5q-22 0 -35 5t-19.5 13.5t-8.5 20.5t-2 26q0 8 0.5 16.5t0.5 16.5z" />
    <glyph glyph-name="ugrave" unicode="&#xf9;" horiz-adv-x="1355" 
d="M1093 142l-3 62q-33 -51 -75 -92t-93 -70t-111 -44.5t-130 -15.5q-116 0 -213 42t-167 114t-109.5 169.5t-39.5 208.5v714q0 22 11 33t30 11h38q23 0 30.5 -10t7.5 -33v-720q2 -80 32 -154t84 -132t130.5 -92.5t172.5 -34.5q79 0 151 29.5t128 82.5t90 126.5t36 161.5
v744q0 32 32 32h52q33 0 33 -32v-1200q0 -42 -37 -42h-41q-39 0 -39 36v106zM733 1516q16 -38 -21 -38h-41q-17 0 -30 7.5t-23 30.5l-100 234q-15 36 21 36h42q37 0 52 -36z" />
    <glyph glyph-name="ccedilla" unicode="&#xe7;" horiz-adv-x="1264" 
d="M1129 1034l-5 -5t-8 -3q-8 0 -19 11q-12 12 -38.5 35t-70.5 46.5t-106.5 41t-146.5 17.5q-106 0 -203 -43t-171 -117t-118 -173t-44 -210t42.5 -210t115.5 -174t169.5 -119t204.5 -44q53 0 98 8t85 22.5t75 34.5t69 44q7 5 17.5 13.5t21 16t19.5 13t15 5.5q9 0 20 -12
q17 -23 24.5 -36.5t7.5 -20.5q0 -4 -4 -8q4 -6 4 -10q-22 -30 -64 -59q-81 -57 -174.5 -90t-205.5 -33q-89 0 -172.5 23.5t-156.5 66.5t-133.5 103t-104 133t-67.5 156.5t-24 173.5t24 174t67.5 157t104 133t133.5 103t156.5 66.5t172.5 23.5q60 0 117.5 -11.5t110.5 -31.5
t100 -47.5t86 -59.5v1l2 -3q9 -8 16.5 -15t7.5 -18q0 -10 -13 -25zM667 52h95q1 -5 1.5 -18t0.5 -27v-27v-18q0 -19 1 -31.5t3.5 -20.5t8 -12t14.5 -7q28 -11 54 -27t46 -38.5t31.5 -51.5t11.5 -66q-3 -57 -45 -100t-120 -78q-12 -5 -24.5 -9t-26.5 -4q-10 0 -18 6t-14 15
t-9 19.5t-3 19.5q0 11 4.5 17.5t20.5 11.5q22 5 45.5 15.5t43 24.5t32 31.5t12.5 37.5q0 21 -8 37.5t-22 30t-32.5 23t-38.5 15.5q-29 8 -46.5 32t-17.5 55v144z" />
    <glyph glyph-name="oslash" unicode="&#xf8;" horiz-adv-x="1498" 
d="M220 631q0 -73 19 -141.5t53.5 -129t83 -111t108 -86.5t127 -56t141.5 -20q111 0 209.5 42.5t172.5 116t117 172t43 211.5q0 110 -42 209.5t-114.5 174.5t-170 119.5t-208.5 44.5t-209.5 -43.5t-171.5 -118.5t-115.5 -174t-42.5 -210zM406 -83q13 32 25.5 64.5t26.5 64.5
q-80 41 -145.5 102t-113 136.5t-73.5 163.5t-26 183q0 90 23.5 174t66.5 157t103 133t133 103t156.5 66.5t173.5 23.5q50 0 98 -7.5t93 -21.5l21 50q8 20 15.5 31.5t17.5 17t24.5 6.5t37.5 1q25 0 38.5 -5.5t13.5 -19.5q0 -8 -4 -19q-12 -28 -23.5 -56t-22.5 -56
q77 -42 141 -102.5t110 -135t71.5 -161t25.5 -179.5q0 -90 -23.5 -174t-66.5 -157t-103.5 -133t-133.5 -103t-156.5 -66.5t-173.5 -23.5q-94 0 -181 26l-40 -98q-10 -25 -34 -25q-6 0 -9 1h-63q-28 3 -28 22q0 7 5 17z" />
    <glyph glyph-name="C" unicode="C" horiz-adv-x="1460" 
d="M1329 1342q21 -14 21 -31q0 -11 -8 -21l-27 -34q-7 -8 -13.5 -13t-14.5 -5q-15 0 -40 18q-87 63 -183.5 98.5t-201.5 35.5q-92 0 -176 -24t-156.5 -67.5t-131.5 -103.5t-101 -132t-65 -153t-23 -166q0 -86 24.5 -168.5t68 -155t103.5 -133t131 -104.5t151 -68.5
t164 -24.5q51 0 105.5 10t107.5 29t103.5 46.5t92.5 62.5q12 9 25 9q21 0 37 -25l15 -24q7 -12 7 -25q0 -22 -20 -37q-98 -75 -216 -116.5t-252 -41.5q-104 0 -201.5 27t-182 77t-154.5 119.5t-119.5 155t-77 183.5t-27.5 204q0 104 27 201.5t77 182t119.5 154t155 119
t183.5 77t204 27.5q129 0 250 -42.5t219 -120.5z" />
    <glyph glyph-name="D" unicode="D" horiz-adv-x="1544" 
d="M164 1448q0 36 33 38h480q104 -1 199.5 -28t178.5 -75t150 -115.5t115 -150t74 -178t26 -198.5t-26.5 -198t-75.5 -177.5t-117.5 -150t-151.5 -115.5t-179 -74t-200 -26h-469q-7 0 -10 2q0 1 -4 2.5t-9.5 4.5t-9.5 8t-4 14v1417zM668 124q88 0 169 22.5t150.5 63
t126.5 97.5t97 126t62 148.5t22 164.5q0 133 -49.5 245.5t-134.5 195t-198.5 129t-242.5 46.5h-382v-1238h380z" />
    <glyph glyph-name="H" unicode="H" horiz-adv-x="1527" 
d="M1243 1450q0 16 10 26t27 10h50q17 0 28 -9.5t11 -26.5v-1414q0 -36 -39 -36h-50q-37 0 -37 36v662h-957v-662q0 -36 -38 -36h-50q-37 0 -37 36v1414q0 16 10 26t27 10h51q17 0 27 -10t10 -26v-626h957v626z" />
    <glyph glyph-name="F" unicode="F" horiz-adv-x="1230" 
d="M1151 1486q39 0 39 -38v-50q0 -17 -10 -27.5t-29 -10.5h-862v-587q176 0 347 -0.5t347 -0.5q17 0 27.5 -9t10.5 -29v-50q0 -17 -9.5 -27t-28.5 -10h-694v-612q0 -35 -37 -35h-52q-36 0 -36 35v1414q0 37 36 37h951z" />
    <glyph glyph-name="iacute" unicode="&#xed;" 
d="M161 1228q0 17 9.5 27t26.5 10h52q17 0 27 -10t10 -27v-1192q0 -36 -36 -36h-52q-37 0 -37 36v1192zM278 1750q15 36 52 36h42q36 0 21 -36l-100 -234q-10 -23 -23 -30.5t-30 -7.5h-41q-37 0 -21 38z" />
    <glyph glyph-name="aacute" unicode="&#xe1;" horiz-adv-x="1567" 
d="M1309 200l-3 76q-40 -69 -96.5 -124.5t-125 -94.5t-146.5 -60t-162 -21q-90 0 -173.5 23.5t-156.5 67t-133.5 103.5t-103.5 133t-66.5 156.5t-23.5 173.5t23.5 173.5t67 156.5t103.5 133t133 103.5t156.5 67t173.5 23.5q82 0 160.5 -21t147.5 -60.5t126.5 -95.5
t98.5 -125v74v172q0 32 31 32h52q34 0 34 -32v-1202q0 -17 -11 -24.5t-26 -7.5h-41q-39 0 -39 36v164zM1315 633q0 109 -44 207.5t-118 173t-172 118.5t-206 45h-3q-107 0 -203.5 -44t-169.5 -118.5t-116 -172.5t-43 -207t41.5 -208.5t113.5 -175t168.5 -120t206.5 -44.5
q111 0 210.5 43.5t173.5 118t117.5 173.5t43.5 211zM828 1648q15 36 52 36h42q36 0 21 -36l-100 -234q-10 -23 -23 -30.5t-30 -7.5h-41q-37 0 -21 38z" />
    <glyph glyph-name="eacute" unicode="&#xe9;" horiz-adv-x="1512" 
d="M217 589q3 -17 4.5 -45.5t8.5 -53.5q25 -89 73.5 -163t115.5 -127t149.5 -83t174.5 -30q53 0 99 8t85.5 22.5t75 34.5t67.5 44q10 6 20.5 14.5t20.5 16t18.5 13t15.5 5.5q8 0 18 -13q17 -24 24.5 -37t7.5 -20q0 -4 -4 -8q5 -5 5 -10q-11 -14 -27 -29t-38 -30
q-81 -57 -175 -90t-205 -33q-135 0 -254.5 51.5t-209 141t-142 208.5t-52.5 254q0 91 23 175t65 157t101.5 133t133 103t158 66.5t177.5 23.5q87 0 168.5 -21t153.5 -61t131.5 -98t102.5 -131t68 -161t28 -188v1q0 -1 0.5 -2.5t0.5 -3.5q0 -34 -32 -34h-1155zM609 1154
q-76 -20 -142 -63t-117 -102t-85.5 -131t-47.5 -151h1070q-12 100 -59.5 185.5t-119.5 148t-163.5 98t-191.5 35.5q-34 0 -66 -3.5t-78 -16.5zM826 1748q15 36 52 36h42q36 0 21 -36l-100 -234q-10 -23 -23 -30.5t-30 -7.5h-41q-37 0 -21 38z" />
    <glyph glyph-name="egrave" unicode="&#xe8;" horiz-adv-x="1512" 
d="M217 589q3 -17 4.5 -45.5t8.5 -53.5q25 -89 73.5 -163t115.5 -127t149.5 -83t174.5 -30q53 0 99 8t85.5 22.5t75 34.5t67.5 44q10 6 20.5 14.5t20.5 16t18.5 13t15.5 5.5q8 0 18 -13q17 -24 24.5 -37t7.5 -20q0 -4 -4 -8q5 -5 5 -10q-11 -14 -27 -29t-38 -30
q-81 -57 -175 -90t-205 -33q-135 0 -254.5 51.5t-209 141t-142 208.5t-52.5 254q0 91 23 175t65 157t101.5 133t133 103t158 66.5t177.5 23.5q87 0 168.5 -21t153.5 -61t131.5 -98t102.5 -131t68 -161t28 -188v1q0 -1 0.5 -2.5t0.5 -3.5q0 -34 -32 -34h-1155zM609 1154
q-76 -20 -142 -63t-117 -102t-85.5 -131t-47.5 -151h1070q-12 100 -59.5 185.5t-119.5 148t-163.5 98t-191.5 35.5q-34 0 -66 -3.5t-78 -16.5zM803 1518q16 -38 -21 -38h-41q-17 0 -30 7.5t-23 30.5l-100 234q-15 36 21 36h42q37 0 52 -36z" />
    <glyph glyph-name="Udieresis" unicode="&#xdc;" horiz-adv-x="1502" 
d="M259 595q0 -106 36.5 -198.5t102 -160.5t156 -107.5t198.5 -39.5q110 0 201 39.5t156 108t101 160.5t36 198v855q0 16 10 26t28 10h38q17 0 28 -9.5t11 -26.5v-870q-1 -131 -49 -241.5t-130.5 -191t-193 -126t-236.5 -45.5q-84 0 -162 21.5t-145.5 61.5t-123 95.5
t-95 123t-61.5 145.5t-22 162v865q0 14 9 25t26 11h44q14 0 25.5 -10t11.5 -26v-855zM540 1746q0 15 7.5 24.5t19.5 14.5t26 6.5t28 1.5q23 0 36 -5.5t19.5 -15t8 -22.5t1.5 -28q0 -27 -5 -42t-14.5 -22t-24 -8.5t-33.5 -1.5q-29 0 -43.5 7.5t-20 20.5t-5.5 31v39zM895 1746
q0 15 7.5 24.5t19 14.5t26 6.5t28.5 1.5q22 0 35 -5t19.5 -14t8 -21t1.5 -25q0 -29 -4 -45.5t-13 -24t-24.5 -9t-39.5 -1.5q-22 0 -35 5t-19.5 13.5t-8.5 20.5t-2 26q0 8 0.5 16.5t0.5 16.5z" />
    <glyph glyph-name="zero" unicode="0" horiz-adv-x="1995" 
d="M1335 326q-72 -60 -161 -96t-190 -36t-188.5 36t-159.5 96h699zM595 366q-62 70 -96 159t-34 190q0 96 30 178.5t87 151.5h690zM634 1103q71 63 160 98.5t190 35.5t189.5 -36t155.5 -98h-695zM1503 715q0 -96 -30.5 -179.5t-85.5 -153.5h-693l677 684q66 -82 99 -168.5
t33 -182.5zM1152 110q-41 -11 -82 -17t-86 -6q-89 0 -170.5 23t-151.5 65t-126.5 100t-96.5 127.5t-62 149t-22 163.5q0 89 23 171t65 152t100 127t128 97t149.5 62t163.5 22q136 0 251 -52t199 -139.5t131 -201.5t47 -238q0 -113 -36 -211t-98 -176t-146 -133.5t-180 -84.5
zM1136 1272q-34 11 -72 16.5t-80 5.5q-83 0 -158 -21.5t-139 -60t-115.5 -92.5t-88 -118t-56 -137t-19.5 -150q0 -78 20 -151t57 -137.5t89 -118t116 -92t138.5 -60t155.5 -21.5q119 0 224.5 45.5t184 124t124 184t45.5 226.5q0 106 -34 197.5t-92 163.5t-135.5 122
t-164.5 74zM295 318l32 -54l-28 -17l-57 96l13 7q9 6 16 4l99 -10l-31 53l28 16l55 -95l-13 -7q-6 -2 -7 -2q-3 -2 -8 -2zM382 144l-61 73l109 92l62 -74l-25 -20l-41 46l-15 -14l31 -36l-25 -22l-31 37l-19 -14l39 -46zM477 201l22 25l86 -73l-20 -24l-31 26l-71 -85
l-25 22l70 83zM617 135l23 -16l-19 -152l-21 11q-1 3 -4 4q-3 3 -3 5q-2 4 -2 6v6l2 17l-47 28l-14 -10q-1 -1 -2.5 -1t-2.5 -1h-6q-2 -1 -3.5 -0.5t-2.5 0.5q-2 1 -4 1t-3 1l-18 11zM604 87l-2 -2q-4 -2 -3 -2l-1 -2q0 -1 -1 -1l-21 -15l22 -14l2 27q0 1 1 1.5t1 1.5
q0 2 0.5 2t0.5 1t0.5 1.5t0.5 1.5zM751 8l-13 -31l-47 19l-18 -49l-33 13l53 131l87 -34l-10 -30l-58 21l-8 -21zM762 -13q1 8 6 19q6 6 11 14q3 4 6.5 7t6.5 6q5 3 9 4.5t9 3.5q4 2 9 2.5t10 1.5h9.5t9.5 -2t9.5 -3t8.5 -3q10 -5 16 -10l7 -7t5 -7q7 -8 8 -18q2 -5 3 -9
t2 -9v-9.5t-1 -9.5q-1 -10 -7 -19q-3 -4 -5.5 -7.5t-5.5 -7.5q-4 -7 -13 -12q-5 -2 -9 -4t-9 -4t-9 -3t-9 -1h-9.5t-11.5 2q-5 1 -8.5 2t-8.5 3q-4 2 -8 4.5t-8 6.5q-4 3 -6.5 7t-5.5 7q-2 4 -4.5 8t-4.5 8q-2 12 -4 19v10t2 10zM796 -20q-1 -9 0 -16q1 -3 2 -6.5t3 -7.5
q4 -6 10 -11q3 -2 7 -3t9 -2q6 -3 14 0q9 1 14 4q7 6 11 12q2 4 4 7.5t3 6.5q2 8 0 17q-1 5 -7 13q-2 4 -4.5 6.5l-5.5 5.5q-4 2 -7 3t-8 3q-8 2 -14 0q-5 -2 -8.5 -3t-7.5 -3q-2 -2 -4.5 -5t-4.5 -7q-4 -4 -6 -14zM1047 -113l-30 -1l-65 95l1 -95l-34 -1l-2 143h15h13
q7 0 9 -1q4 -3 5 -5l50 -71q1 -1 1 -2t1 -2q0 -2 1 -2.5t1 -1.5q0 -4 1 -5l-3 91h35zM1063 -2l-6 33l112 20l6 -31l-39 -8l21 -107l-33 -6l-20 107zM1232 41q-4 0 -6 -2q-3 0 -3 -2l-2 -4q0 -1 1 -2q0 -3 3 -4q1 0 1.5 -1t2.5 -1h10h10h9t9 -1q4 -2 6.5 -2.5t6.5 -2.5
q7 -5 12 -9t7 -14q4 -9 3 -18q0 -6 -2 -9.5t-4 -8.5q-2 -4 -4.5 -7.5t-7.5 -8.5q-5 -2 -9 -4.5t-9 -4.5l-8 -2t-9 -1q-6 -2 -15 2q-8 1 -15 5q-3 2 -6 4.5t-5 6.5l7 10q2 2 4 3q3 3 4 3q3 1 10 1q2 0 3.5 -0.5t3.5 -0.5t3.5 -1t3.5 -1q5 0 7 2q3 0 4 0.5l3 1.5l5 5q2 2 2 7
v6l-3 3q-1 1 -5 1q-2 2 -4 2h-4h-10h-7t-8 1q-6 0 -14 2q-4 2 -7.5 4t-5.5 4q-5 5 -10 15q-2 5 -2 9.5v7.5q1 5 2 8.5t4 7.5q2 5 4.5 7.5t6.5 5.5q7 5 15 8q2 1 5 2t8 1q2 0 5 -1t7 -1q2 -1 5 -1.5t8 -2.5q2 -2 4.5 -2.5t4.5 -2.5l-6 -11q-1 -3 -3 -7q-3 -1 -5 -1.5t-4 -0.5
q-1 -1 -4 -1h-5h-5q-2 0 -3 -2zM1322 -20q0 2 -1 3.5t-1 3.5q0 5 2 7q0 2 3 7q1 3 6 5q3 1 4.5 1t3.5 1q2 0 3.5 -0.5t3.5 -0.5q5 -2 6 -4q3 -1 5 -7q4 -4 4 -7q0 -5 -2 -7t-2.5 -3.5t-1.5 -2.5q-1 -2 -2.5 -3t-3.5 -3q-6 -2 -7 -2q-5 0 -7 1q-5 0 -9 4q-3 2 -4 7zM1374 66
q2 -6 11 -11q3 -3 6.5 -4t7.5 -3q6 -2 15 0q4 0 7 2t7 4q3 2 5 4.5t5 4.5l6 9q2 7 7 11q2 2 4 2t4 1h8l12 -2q-1 -5 -2 -9.5t-3 -8.5q-1 -5 -6 -15q-3 -8 -10 -13q-7 -7 -11 -10q-5 -3 -9.5 -5.5t-9.5 -3.5q-8 -4 -18 -4q-5 -1 -9.5 -0.5t-9.5 1.5q-3 2 -7.5 2.5t-9.5 2.5
q-4 3 -8 5.5t-7 6.5q-4 3 -7.5 6t-6.5 7q-2 5 -4 9.5t-4 9.5q-1 4 -1.5 8.5t-2.5 9.5v9t2 9q1 9 5 18q3 4 5 8t6 8q3 4 7 7t9 6q7 4 13 7q4 2 7.5 2.5t8.5 2.5h17q5 0 9 -1t7 -2l-1 -13q-2 -4 -3 -7l-3 -3l-3 -3q-8 -4 -13 -4q-7 0 -11 -2q-5 -1 -12 -4q-7 -4 -10 -11
q-5 -8 -5 -14q-2 -8 0 -16q2 -10 6 -14zM1459 122q-4 4 -6.5 7.5t-5.5 8.5q-2 5 -3.5 9t-2.5 9q-2 5 -2 9v9t0.5 9.5t1.5 9.5t3 9t4 9q3 3 5.5 7t6.5 7q4 4 8 7l8 6q4 2 8 3.5t9 2.5q5 2 9 2h9h9.5t9.5 -2q5 -1 9.5 -2.5t8.5 -3.5q5 -3 8 -6t8 -7q3 -4 5.5 -7.5t5.5 -8.5
q2 -4 3.5 -8t3.5 -9q1 -5 1 -9.5v-9.5q0 -7 -2 -17q-1 -5 -3 -9.5t-4 -8.5q-4 -8 -12 -16q-4 -4 -7.5 -6.5t-7.5 -4.5q-5 -2 -9 -4t-9 -3q-9 -3 -19 -3q-9 0 -18 3q-5 1 -9 3t-9 4q-3 2 -7 5zM1483 146q3 -3 6.5 -5t7.5 -4q6 -2 14 -2q11 0 15 2q4 1 7 3.5t6 5.5q8 6 9 12
q3 7 3 15q0 7 -3 15q-1 7 -9 13q-6 7 -13 10q-6 3 -15 3q-4 0 -7 -0.5t-7 -1.5q-4 -2 -7.5 -4t-6.5 -6q-5 -4 -9 -13q-2 -3 -2 -7v-8q0 -10 2 -14t4 -7.5t5 -6.5zM1714 322l-18 -29l-58 37l41 -61l-15 -24l-71 13l55 -37l-19 -28l-119 78l13 19q3 5 9 8q3 1 6.5 1h5.5
l84 -13l-47 70q-2 4 -3 6.5t-1 5.5q0 4 1 6.5t3 5.5l13 19zM332 929l-7 -19l-133 50l18 47q3 10 8 15q7 9 15 11q4 2 7.5 3t8.5 1t9 -0.5t9 -1.5q9 -4 14 -11q5 -2 6.5 -5.5t3.5 -7.5t3 -8.5t2 -7.5q0 -9 -3 -18l-10 -30zM275 984q0 2 0.5 4.5t0.5 4.5q0 3 -0.5 5t-1.5 5
q-1 2 -2.5 4t-3.5 4q-3 3 -7 5q-3 1 -6 1h-5q-3 0 -5 -0.5t-4 -1.5q-2 -2 -4 -2.5t-4 -2.5q-4 -6 -5 -9l-11 -30l47 -17zM404 1084l-42 -77l-124 68l42 77l17 -10l-33 -59l36 -20l27 49l17 -9l-27 -48l37 -22l33 60zM424 1110l-12 -16l-113 87l30 41q4 2 7 5t6 5q4 3 7.5 4
t7.5 2h8t8 -1q9 -2 15 -8q3 -2 5 -4.5t4 -5.5q2 -2 3.5 -5l2.5 -5q1 -5 1 -8v-6q0 -6 -2 -12l75 -2l-7 -11q-3 -4 -8 -6q-3 -1 -5 -2t-4 -1l-63 2l-13 -17zM326 1185l35 -27l19 26q2 1 2.5 3t2.5 4v8q0 2 -1 4t-2 5q-4 4 -6 5q-4 4 -8 4q-2 1 -8 1q-2 -1 -4 -1t-4 -1
q-4 -2 -6 -6zM436 1301q-4 -1 -6 -1t-4 -1t-5 -4q-4 -3 -6 -7q-3 -3 -3 -8v-7q1 -3 4 -6q3 -4 6 -5h6q3 0 9 2q3 2 5.5 2.5t6.5 2.5q2 1 3.5 2t2.5 1q2 1 8 3q4 0 7 3q1 0 2.5 0.5t3.5 0.5q20 2 32 -12q10 -6 11 -16q1 -5 1.5 -8t0.5 -8q-1 -5 -2 -9.5t-3 -8.5
q-2 -5 -5.5 -8.5t-5.5 -6.5q-13 -12 -31 -15h-6q-3 2 -6 2q-2 0 -3.5 0.5t-2.5 0.5t-1 0.5t-1 0.5l1 5q1 2 1.5 3.5t1.5 3.5q8 5 12 5h3q3 0 9 2q4 1 10 6q2 2 2.5 4t2.5 4q3 4 3 11q2 4 0 9q0 3 -1.5 5t-3.5 4q-3 5 -9 5q-5 3 -9 0q-6 0 -9 -3q-8 -2 -11 -5q-4 -1 -14 -5
q-4 -2 -8 -2t-6 -1q-10 0 -14 1q-3 2 -7 4t-6 6q-7 6 -9 14q-2 9 -1 14q2 11 5 15q2 5 8 13q6 5 11 6q4 4 10 4q10 2 12 2q7 0 10 -1l-1 -6q0 -3 -4 -9q-3 -4 -7 -4zM496 1296q-2 4 -4.5 8.5t-3.5 9.5q-5 10 -5 18q-1 5 -0.5 9.5t0.5 9.5q2 5 3.5 9.5t3.5 8.5q2 5 4.5 8
t5.5 8q6 6 15 12q8 7 17 8q9 4 19 4q9 3 19 0q5 -1 8 -2.5t8 -3.5t9 -4.5t8 -5.5t6.5 -6.5t6.5 -8.5q2 -4 4.5 -8t3.5 -9q4 -9 4 -18q2 -10 0 -19q-1 -5 -2.5 -9t-3.5 -9q-5 -10 -11 -16q-4 -3 -6.5 -6.5t-7.5 -5.5q-14 -10 -26 -11q-15 -4 -29 0q-7 1 -13 3.5t-13 5.5
q-12 8 -20 20zM513 1308q4 -10 14 -15q8 -5 19 -7q10 -3 21 0q10 2 18 8q11 6 15 15q3 5 4.5 9t3.5 9q1 11 0 22q-2 4 -3.5 8.5t-5.5 9.5q-5 9 -15 15q-10 7 -18 8q-11 2 -20 0q-11 -2 -20 -9q-9 -6 -15 -15q-3 -5 -4.5 -9.5t-3.5 -9.5q-2 -9 0 -20q2 -5 3.5 -9.5t6.5 -9.5z
M682 1330l-19 -8l-54 132l14 6q4 2 8 2q5 0 6 -2l109 -70l1 -1q1 -2 1 -3q2 0 2 -0.5t1 -0.5l-46 109l19 7l54 -131l-14 -6q-4 -1 -8 -1q-5 0 -8 1l-106 70q-2 0 -2 0.5t-2 0.5q0 2 -1 3q-1 0 -1 1v2zM811 1523l19 3l88 -127l-11 -2q-2 -1 -4 -0.5t-4 0.5q-5 1 -7 6l-14 20
l-71 -14l-5 -24q-2 -5 -5 -8q-1 -2 -3.5 -3t-4.5 -1l-11 -2zM825 1494l-14 -64l55 11l-37 53q-2 2 -2 4t-2 4v-4v-4zM919 1396l-5 143l19 1l5 -123l63 3l1 -21zM1080 1448q-2 -8 0 -15q1 -3 2.5 -6.5t3.5 -5.5q2 -3 4.5 -5.5l4.5 -4.5q4 -2 7.5 -4t7.5 -3q10 0 14 1q5 0 8 2
l6 4q6 4 10 10q2 3 3.5 6.5t3.5 7.5l14 85l20 -2l-17 -87q-1 -3 -1.5 -6.5t-2.5 -7.5l-3.5 -7t-3.5 -6q-3 -2 -6.5 -4.5t-5.5 -4.5q-5 -4 -12 -6q-4 -2 -8 -2.5t-7 -1.5q-10 0 -15 1q-5 0 -8 1.5l-7 3.5q-4 1 -6.5 3t-5.5 4q-7 5 -11 11q-2 5 -6 13q-3 7 -3 15q0 10 1 15
l14 85l20 -4zM1265 1466q-1 2 -2.5 3.5t-2.5 3.5q-2 1 -4 1.5t-4 1.5q-3 2 -9 2h-7q-3 -3 -7 -4q-3 -3 -3 -6q-3 -5 -1 -8q0 -4 2 -6q1 -2 2 -3.5t4 -3.5q3 -3 9 -7q2 -2 3 -3.5t3 -2.5t3 -2.5t3 -2.5l2.5 -2.5t3.5 -2.5l1.5 -3t2.5 -3q10 -15 4 -33q-2 -5 -4.5 -9t-4.5 -7
q-5 -3 -8.5 -5.5t-7.5 -3.5q-8 -4 -17 -4q-5 0 -9 0.5t-9 1.5q-18 8 -27 23q0 1 -1.5 2.5l-2.5 2.5q0 2 -0.5 3t-0.5 3q-1 1 -1 4v3l6 2q4 0 7 -2q6 -1 9 -7v-1l3 -4.5t3 -3.5q4 -2 6 -3.5t5 -2.5q2 0 4.5 -0.5t4.5 -0.5h6t5 1q7 2 9 5q5 5 6 9q3 6 0 10q0 2 -1 4l-2 4
q-2 2 -3.5 4t-3.5 4q-2 1 -4 2.5t-6 3.5q-2 3 -5 5.5t-5 5.5q-3 2 -5 5t-4 7q-2 2 -3.5 5t-1.5 6q-2 7 3 17q1 8 7 14q7 6 13 7q5 2 8.5 2.5t6.5 0.5q4 0 8 -1t9 -2q4 -1 9 -6q5 -4 9 -9l4 -4t3 -4q1 -3 1.5 -5t1.5 -4l-6 -3q-5 -2 -10 0q-5 4 -7 6zM1339 1300l-78 41
l64 127l78 -41l-8 -18l-60 32l-19 -37l49 -25l-10 -18l-49 26l-19 -37l61 -32zM1428 1328q7 10 16 13q3 3 7 5l8 4q5 2 9.5 2t9.5 1h9.5t9.5 -1q9 -2 18 -6q7 -3 15 -11q4 -3 8 -6.5t6 -8.5q6 -7 7 -16q4 -8 4 -18v-9.5t-1 -9.5q-2 -5 -3 -9.5t-3 -8.5q-5 -10 -11 -15
q-4 -5 -7 -8.5t-7 -6.5q-5 -2 -9 -4t-9 -3q-9 -3 -18 -3h-9.5t-9.5 1q-3 1 -7.5 2t-9.5 4q-5 2 -8.5 4.5t-8.5 4.5q-5 7 -9.5 12.5t-7.5 11.5q-2 7 -4 13.5t-3 13.5q0 16 4 28q5 15 14 24zM1444 1316q-9 -9 -12 -18q-2 -5 -2.5 -10t-0.5 -10q0 -6 1.5 -10.5t3.5 -9.5
q4 -5 6.5 -9.5t6.5 -7.5q5 -4 9.5 -6t9.5 -5q11 -3 19 -2q13 0 20 6q5 2 9.5 5t8.5 6q8 9 9 19q5 9 3 20q0 5 -1 10t-4 10q-2 5 -5 8.5t-7 7.5t-9 6.5t-10 4.5t-10 2.5t-10 0.5t-10 -2l-10 -4q-9 -5 -15 -12zM1506 1158l-12 14l114 86l11 -13q2 -4 3 -7v-8l-42 -120
q0 -1 -0.5 -1t-0.5 -1t-1 -1t-1 -1l-1 -2l95 70l12 -15l-114 -85l-9 12q-3 2 -5 7q0 5 1 7l41 122q0 1 1 1t1 1l1 1q1 2 2 3zM1576 1057l127 65l8 -16l-109 -57l29 -54l-18 -10zM1628 944l-7 18l57 22l2 1l4 2q0 2 0.5 2.5t0.5 1.5q3 0 3 2l47 73l3 -12q2 -4 2.5 -7t0.5 -5
q-1 -2 -2 -4.5t-2 -4.5l-31 -47l-2 -2l-1 -1h2q0 1 3 0l54 -16q2 -1 4.5 -2t4.5 -3q4 -2 5 -8l5 -13l-82 24q-2 0 -3 1h-4h-4q-3 0 -4 -1z" />
    <glyph glyph-name="at" unicode="@" horiz-adv-x="1995" 
d="M1335 326q-72 -60 -161 -96t-190 -36t-188.5 36t-159.5 96h699zM595 366q-62 70 -96 159t-34 190q0 96 30 178.5t87 151.5h690zM634 1103q71 63 160 98.5t190 35.5t189.5 -36t155.5 -98h-695zM1503 715q0 -96 -30.5 -179.5t-85.5 -153.5h-693l677 684q66 -82 99 -168.5
t33 -182.5zM1152 110q-41 -11 -82 -17t-86 -6q-89 0 -170.5 23t-151.5 65t-126.5 100t-96.5 127.5t-62 149t-22 163.5q0 89 23 171t65 152t100 127t128 97t149.5 62t163.5 22q136 0 251 -52t199 -139.5t131 -201.5t47 -238q0 -113 -36 -211t-98 -176t-146 -133.5t-180 -84.5
zM1136 1272q-34 11 -72 16.5t-80 5.5q-83 0 -158 -21.5t-139 -60t-115.5 -92.5t-88 -118t-56 -137t-19.5 -150q0 -78 20 -151t57 -137.5t89 -118t116 -92t138.5 -60t155.5 -21.5q119 0 224.5 45.5t184 124t124 184t45.5 226.5q0 106 -34 197.5t-92 163.5t-135.5 122
t-164.5 74zM295 318l32 -54l-28 -17l-57 96l13 7q9 6 16 4l99 -10l-31 53l28 16l55 -95l-13 -7q-6 -2 -7 -2q-3 -2 -8 -2zM382 144l-61 73l109 92l62 -74l-25 -20l-41 46l-15 -14l31 -36l-25 -22l-31 37l-19 -14l39 -46zM477 201l22 25l86 -73l-20 -24l-31 26l-71 -85
l-25 22l70 83zM617 135l23 -16l-19 -152l-21 11q-1 3 -4 4q-3 3 -3 5q-2 4 -2 6v6l2 17l-47 28l-14 -10q-1 -1 -2.5 -1t-2.5 -1h-6q-2 -1 -3.5 -0.5t-2.5 0.5q-2 1 -4 1t-3 1l-18 11zM604 87l-2 -2q-4 -2 -3 -2l-1 -2q0 -1 -1 -1l-21 -15l22 -14l2 27q0 1 1 1.5t1 1.5
q0 2 0.5 2t0.5 1t0.5 1.5t0.5 1.5zM751 8l-13 -31l-47 19l-18 -49l-33 13l53 131l87 -34l-10 -30l-58 21l-8 -21zM762 -13q1 8 6 19q6 6 11 14q3 4 6.5 7t6.5 6q5 3 9 4.5t9 3.5q4 2 9 2.5t10 1.5h9.5t9.5 -2t9.5 -3t8.5 -3q10 -5 16 -10l7 -7t5 -7q7 -8 8 -18q2 -5 3 -9
t2 -9v-9.5t-1 -9.5q-1 -10 -7 -19q-3 -4 -5.5 -7.5t-5.5 -7.5q-4 -7 -13 -12q-5 -2 -9 -4t-9 -4t-9 -3t-9 -1h-9.5t-11.5 2q-5 1 -8.5 2t-8.5 3q-4 2 -8 4.5t-8 6.5q-4 3 -6.5 7t-5.5 7q-2 4 -4.5 8t-4.5 8q-2 12 -4 19v10t2 10zM796 -20q-1 -9 0 -16q1 -3 2 -6.5t3 -7.5
q4 -6 10 -11q3 -2 7 -3t9 -2q6 -3 14 0q9 1 14 4q7 6 11 12q2 4 4 7.5t3 6.5q2 8 0 17q-1 5 -7 13q-2 4 -4.5 6.5l-5.5 5.5q-4 2 -7 3t-8 3q-8 2 -14 0q-5 -2 -8.5 -3t-7.5 -3q-2 -2 -4.5 -5t-4.5 -7q-4 -4 -6 -14zM1047 -113l-30 -1l-65 95l1 -95l-34 -1l-2 143h15h13
q7 0 9 -1q4 -3 5 -5l50 -71q1 -1 1 -2t1 -2q0 -2 1 -2.5t1 -1.5q0 -4 1 -5l-3 91h35zM1063 -2l-6 33l112 20l6 -31l-39 -8l21 -107l-33 -6l-20 107zM1232 41q-4 0 -6 -2q-3 0 -3 -2l-2 -4q0 -1 1 -2q0 -3 3 -4q1 0 1.5 -1t2.5 -1h10h10h9t9 -1q4 -2 6.5 -2.5t6.5 -2.5
q7 -5 12 -9t7 -14q4 -9 3 -18q0 -6 -2 -9.5t-4 -8.5q-2 -4 -4.5 -7.5t-7.5 -8.5q-5 -2 -9 -4.5t-9 -4.5l-8 -2t-9 -1q-6 -2 -15 2q-8 1 -15 5q-3 2 -6 4.5t-5 6.5l7 10q2 2 4 3q3 3 4 3q3 1 10 1q2 0 3.5 -0.5t3.5 -0.5t3.5 -1t3.5 -1q5 0 7 2q3 0 4 0.5l3 1.5l5 5q2 2 2 7
v6l-3 3q-1 1 -5 1q-2 2 -4 2h-4h-10h-7t-8 1q-6 0 -14 2q-4 2 -7.5 4t-5.5 4q-5 5 -10 15q-2 5 -2 9.5v7.5q1 5 2 8.5t4 7.5q2 5 4.5 7.5t6.5 5.5q7 5 15 8q2 1 5 2t8 1q2 0 5 -1t7 -1q2 -1 5 -1.5t8 -2.5q2 -2 4.5 -2.5t4.5 -2.5l-6 -11q-1 -3 -3 -7q-3 -1 -5 -1.5t-4 -0.5
q-1 -1 -4 -1h-5h-5q-2 0 -3 -2zM1322 -20q0 2 -1 3.5t-1 3.5q0 5 2 7q0 2 3 7q1 3 6 5q3 1 4.5 1t3.5 1q2 0 3.5 -0.5t3.5 -0.5q5 -2 6 -4q3 -1 5 -7q4 -4 4 -7q0 -5 -2 -7t-2.5 -3.5t-1.5 -2.5q-1 -2 -2.5 -3t-3.5 -3q-6 -2 -7 -2q-5 0 -7 1q-5 0 -9 4q-3 2 -4 7zM1374 66
q2 -6 11 -11q3 -3 6.5 -4t7.5 -3q6 -2 15 0q4 0 7 2t7 4q3 2 5 4.5t5 4.5l6 9q2 7 7 11q2 2 4 2t4 1h8l12 -2q-1 -5 -2 -9.5t-3 -8.5q-1 -5 -6 -15q-3 -8 -10 -13q-7 -7 -11 -10q-5 -3 -9.5 -5.5t-9.5 -3.5q-8 -4 -18 -4q-5 -1 -9.5 -0.5t-9.5 1.5q-3 2 -7.5 2.5t-9.5 2.5
q-4 3 -8 5.5t-7 6.5q-4 3 -7.5 6t-6.5 7q-2 5 -4 9.5t-4 9.5q-1 4 -1.5 8.5t-2.5 9.5v9t2 9q1 9 5 18q3 4 5 8t6 8q3 4 7 7t9 6q7 4 13 7q4 2 7.5 2.5t8.5 2.5h17q5 0 9 -1t7 -2l-1 -13q-2 -4 -3 -7l-3 -3l-3 -3q-8 -4 -13 -4q-7 0 -11 -2q-5 -1 -12 -4q-7 -4 -10 -11
q-5 -8 -5 -14q-2 -8 0 -16q2 -10 6 -14zM1459 122q-4 4 -6.5 7.5t-5.5 8.5q-2 5 -3.5 9t-2.5 9q-2 5 -2 9v9t0.5 9.5t1.5 9.5t3 9t4 9q3 3 5.5 7t6.5 7q4 4 8 7l8 6q4 2 8 3.5t9 2.5q5 2 9 2h9h9.5t9.5 -2q5 -1 9.5 -2.5t8.5 -3.5q5 -3 8 -6t8 -7q3 -4 5.5 -7.5t5.5 -8.5
q2 -4 3.5 -8t3.5 -9q1 -5 1 -9.5v-9.5q0 -7 -2 -17q-1 -5 -3 -9.5t-4 -8.5q-4 -8 -12 -16q-4 -4 -7.5 -6.5t-7.5 -4.5q-5 -2 -9 -4t-9 -3q-9 -3 -19 -3q-9 0 -18 3q-5 1 -9 3t-9 4q-3 2 -7 5zM1483 146q3 -3 6.5 -5t7.5 -4q6 -2 14 -2q11 0 15 2q4 1 7 3.5t6 5.5q8 6 9 12
q3 7 3 15q0 7 -3 15q-1 7 -9 13q-6 7 -13 10q-6 3 -15 3q-4 0 -7 -0.5t-7 -1.5q-4 -2 -7.5 -4t-6.5 -6q-5 -4 -9 -13q-2 -3 -2 -7v-8q0 -10 2 -14t4 -7.5t5 -6.5zM1714 322l-18 -29l-58 37l41 -61l-15 -24l-71 13l55 -37l-19 -28l-119 78l13 19q3 5 9 8q3 1 6.5 1h5.5
l84 -13l-47 70q-2 4 -3 6.5t-1 5.5q0 4 1 6.5t3 5.5l13 19zM332 929l-7 -19l-133 50l18 47q3 10 8 15q7 9 15 11q4 2 7.5 3t8.5 1t9 -0.5t9 -1.5q9 -4 14 -11q5 -2 6.5 -5.5t3.5 -7.5t3 -8.5t2 -7.5q0 -9 -3 -18l-10 -30zM275 984q0 2 0.5 4.5t0.5 4.5q0 3 -0.5 5t-1.5 5
q-1 2 -2.5 4t-3.5 4q-3 3 -7 5q-3 1 -6 1h-5q-3 0 -5 -0.5t-4 -1.5q-2 -2 -4 -2.5t-4 -2.5q-4 -6 -5 -9l-11 -30l47 -17zM404 1084l-42 -77l-124 68l42 77l17 -10l-33 -59l36 -20l27 49l17 -9l-27 -48l37 -22l33 60zM424 1110l-12 -16l-113 87l30 41q4 2 7 5t6 5q4 3 7.5 4
t7.5 2h8t8 -1q9 -2 15 -8q3 -2 5 -4.5t4 -5.5q2 -2 3.5 -5l2.5 -5q1 -5 1 -8v-6q0 -6 -2 -12l75 -2l-7 -11q-3 -4 -8 -6q-3 -1 -5 -2t-4 -1l-63 2l-13 -17zM326 1185l35 -27l19 26q2 1 2.5 3t2.5 4v8q0 2 -1 4t-2 5q-4 4 -6 5q-4 4 -8 4q-2 1 -8 1q-2 -1 -4 -1t-4 -1
q-4 -2 -6 -6zM436 1301q-4 -1 -6 -1t-4 -1t-5 -4q-4 -3 -6 -7q-3 -3 -3 -8v-7q1 -3 4 -6q3 -4 6 -5h6q3 0 9 2q3 2 5.5 2.5t6.5 2.5q2 1 3.5 2t2.5 1q2 1 8 3q4 0 7 3q1 0 2.5 0.5t3.5 0.5q20 2 32 -12q10 -6 11 -16q1 -5 1.5 -8t0.5 -8q-1 -5 -2 -9.5t-3 -8.5
q-2 -5 -5.5 -8.5t-5.5 -6.5q-13 -12 -31 -15h-6q-3 2 -6 2q-2 0 -3.5 0.5t-2.5 0.5t-1 0.5t-1 0.5l1 5q1 2 1.5 3.5t1.5 3.5q8 5 12 5h3q3 0 9 2q4 1 10 6q2 2 2.5 4t2.5 4q3 4 3 11q2 4 0 9q0 3 -1.5 5t-3.5 4q-3 5 -9 5q-5 3 -9 0q-6 0 -9 -3q-8 -2 -11 -5q-4 -1 -14 -5
q-4 -2 -8 -2t-6 -1q-10 0 -14 1q-3 2 -7 4t-6 6q-7 6 -9 14q-2 9 -1 14q2 11 5 15q2 5 8 13q6 5 11 6q4 4 10 4q10 2 12 2q7 0 10 -1l-1 -6q0 -3 -4 -9q-3 -4 -7 -4zM496 1296q-2 4 -4.5 8.5t-3.5 9.5q-5 10 -5 18q-1 5 -0.5 9.5t0.5 9.5q2 5 3.5 9.5t3.5 8.5q2 5 4.5 8
t5.5 8q6 6 15 12q8 7 17 8q9 4 19 4q9 3 19 0q5 -1 8 -2.5t8 -3.5t9 -4.5t8 -5.5t6.5 -6.5t6.5 -8.5q2 -4 4.5 -8t3.5 -9q4 -9 4 -18q2 -10 0 -19q-1 -5 -2.5 -9t-3.5 -9q-5 -10 -11 -16q-4 -3 -6.5 -6.5t-7.5 -5.5q-14 -10 -26 -11q-15 -4 -29 0q-7 1 -13 3.5t-13 5.5
q-12 8 -20 20zM513 1308q4 -10 14 -15q8 -5 19 -7q10 -3 21 0q10 2 18 8q11 6 15 15q3 5 4.5 9t3.5 9q1 11 0 22q-2 4 -3.5 8.5t-5.5 9.5q-5 9 -15 15q-10 7 -18 8q-11 2 -20 0q-11 -2 -20 -9q-9 -6 -15 -15q-3 -5 -4.5 -9.5t-3.5 -9.5q-2 -9 0 -20q2 -5 3.5 -9.5t6.5 -9.5z
M682 1330l-19 -8l-54 132l14 6q4 2 8 2q5 0 6 -2l109 -70l1 -1q1 -2 1 -3q2 0 2 -0.5t1 -0.5l-46 109l19 7l54 -131l-14 -6q-4 -1 -8 -1q-5 0 -8 1l-106 70q-2 0 -2 0.5t-2 0.5q0 2 -1 3q-1 0 -1 1v2zM811 1523l19 3l88 -127l-11 -2q-2 -1 -4 -0.5t-4 0.5q-5 1 -7 6l-14 20
l-71 -14l-5 -24q-2 -5 -5 -8q-1 -2 -3.5 -3t-4.5 -1l-11 -2zM825 1494l-14 -64l55 11l-37 53q-2 2 -2 4t-2 4v-4v-4zM919 1396l-5 143l19 1l5 -123l63 3l1 -21zM1080 1448q-2 -8 0 -15q1 -3 2.5 -6.5t3.5 -5.5q2 -3 4.5 -5.5l4.5 -4.5q4 -2 7.5 -4t7.5 -3q10 0 14 1q5 0 8 2
l6 4q6 4 10 10q2 3 3.5 6.5t3.5 7.5l14 85l20 -2l-17 -87q-1 -3 -1.5 -6.5t-2.5 -7.5l-3.5 -7t-3.5 -6q-3 -2 -6.5 -4.5t-5.5 -4.5q-5 -4 -12 -6q-4 -2 -8 -2.5t-7 -1.5q-10 0 -15 1q-5 0 -8 1.5l-7 3.5q-4 1 -6.5 3t-5.5 4q-7 5 -11 11q-2 5 -6 13q-3 7 -3 15q0 10 1 15
l14 85l20 -4zM1265 1466q-1 2 -2.5 3.5t-2.5 3.5q-2 1 -4 1.5t-4 1.5q-3 2 -9 2h-7q-3 -3 -7 -4q-3 -3 -3 -6q-3 -5 -1 -8q0 -4 2 -6q1 -2 2 -3.5t4 -3.5q3 -3 9 -7q2 -2 3 -3.5t3 -2.5t3 -2.5t3 -2.5l2.5 -2.5t3.5 -2.5l1.5 -3t2.5 -3q10 -15 4 -33q-2 -5 -4.5 -9t-4.5 -7
q-5 -3 -8.5 -5.5t-7.5 -3.5q-8 -4 -17 -4q-5 0 -9 0.5t-9 1.5q-18 8 -27 23q0 1 -1.5 2.5l-2.5 2.5q0 2 -0.5 3t-0.5 3q-1 1 -1 4v3l6 2q4 0 7 -2q6 -1 9 -7v-1l3 -4.5t3 -3.5q4 -2 6 -3.5t5 -2.5q2 0 4.5 -0.5t4.5 -0.5h6t5 1q7 2 9 5q5 5 6 9q3 6 0 10q0 2 -1 4l-2 4
q-2 2 -3.5 4t-3.5 4q-2 1 -4 2.5t-6 3.5q-2 3 -5 5.5t-5 5.5q-3 2 -5 5t-4 7q-2 2 -3.5 5t-1.5 6q-2 7 3 17q1 8 7 14q7 6 13 7q5 2 8.5 2.5t6.5 0.5q4 0 8 -1t9 -2q4 -1 9 -6q5 -4 9 -9l4 -4t3 -4q1 -3 1.5 -5t1.5 -4l-6 -3q-5 -2 -10 0q-5 4 -7 6zM1339 1300l-78 41
l64 127l78 -41l-8 -18l-60 32l-19 -37l49 -25l-10 -18l-49 26l-19 -37l61 -32zM1428 1328q7 10 16 13q3 3 7 5l8 4q5 2 9.5 2t9.5 1h9.5t9.5 -1q9 -2 18 -6q7 -3 15 -11q4 -3 8 -6.5t6 -8.5q6 -7 7 -16q4 -8 4 -18v-9.5t-1 -9.5q-2 -5 -3 -9.5t-3 -8.5q-5 -10 -11 -15
q-4 -5 -7 -8.5t-7 -6.5q-5 -2 -9 -4t-9 -3q-9 -3 -18 -3h-9.5t-9.5 1q-3 1 -7.5 2t-9.5 4q-5 2 -8.5 4.5t-8.5 4.5q-5 7 -9.5 12.5t-7.5 11.5q-2 7 -4 13.5t-3 13.5q0 16 4 28q5 15 14 24zM1444 1316q-9 -9 -12 -18q-2 -5 -2.5 -10t-0.5 -10q0 -6 1.5 -10.5t3.5 -9.5
q4 -5 6.5 -9.5t6.5 -7.5q5 -4 9.5 -6t9.5 -5q11 -3 19 -2q13 0 20 6q5 2 9.5 5t8.5 6q8 9 9 19q5 9 3 20q0 5 -1 10t-4 10q-2 5 -5 8.5t-7 7.5t-9 6.5t-10 4.5t-10 2.5t-10 0.5t-10 -2l-10 -4q-9 -5 -15 -12zM1506 1158l-12 14l114 86l11 -13q2 -4 3 -7v-8l-42 -120
q0 -1 -0.5 -1t-0.5 -1t-1 -1t-1 -1l-1 -2l95 70l12 -15l-114 -85l-9 12q-3 2 -5 7q0 5 1 7l41 122q0 1 1 1t1 1l1 1q1 2 2 3zM1576 1057l127 65l8 -16l-109 -57l29 -54l-18 -10zM1628 944l-7 18l57 22l2 1l4 2q0 2 0.5 2.5t0.5 1.5q3 0 3 2l47 73l3 -12q2 -4 2.5 -7t0.5 -5
q-1 -2 -2 -4.5t-2 -4.5l-31 -47l-2 -2l-1 -1h2q0 1 3 0l54 -16q2 -1 4.5 -2t4.5 -3q4 -2 5 -8l5 -13l-82 24q-2 0 -3 1h-4h-4q-3 0 -4 -1z" />
    <glyph glyph-name="one" unicode="1" horiz-adv-x="1995" 
d="M1335 326q-72 -60 -161 -96t-190 -36t-188.5 36t-159.5 96h699zM595 366q-62 70 -96 159t-34 190q0 96 30 178.5t87 151.5h690zM634 1103q71 63 160 98.5t190 35.5t189.5 -36t155.5 -98h-695zM1503 715q0 -96 -30.5 -179.5t-85.5 -153.5h-693l677 684q66 -82 99 -168.5
t33 -182.5zM1152 110q-41 -11 -82 -17t-86 -6q-89 0 -170.5 23t-151.5 65t-126.5 100t-96.5 127.5t-62 149t-22 163.5q0 89 23 171t65 152t100 127t128 97t149.5 62t163.5 22q136 0 251 -52t199 -139.5t131 -201.5t47 -238q0 -113 -36 -211t-98 -176t-146 -133.5t-180 -84.5
zM1136 1272q-34 11 -72 16.5t-80 5.5q-83 0 -158 -21.5t-139 -60t-115.5 -92.5t-88 -118t-56 -137t-19.5 -150q0 -78 20 -151t57 -137.5t89 -118t116 -92t138.5 -60t155.5 -21.5q119 0 224.5 45.5t184 124t124 184t45.5 226.5q0 106 -34 197.5t-92 163.5t-135.5 122
t-164.5 74zM295 318l32 -54l-28 -17l-57 96l13 7q9 6 16 4l99 -10l-31 53l28 16l55 -95l-13 -7q-6 -2 -7 -2q-3 -2 -8 -2zM382 144l-61 73l109 92l62 -74l-25 -20l-41 46l-15 -14l31 -36l-25 -22l-31 37l-19 -14l39 -46zM477 201l22 25l86 -73l-20 -24l-31 26l-71 -85
l-25 22l70 83zM617 135l23 -16l-19 -152l-21 11q-1 3 -4 4q-3 3 -3 5q-2 4 -2 6v6l2 17l-47 28l-14 -10q-1 -1 -2.5 -1t-2.5 -1h-6q-2 -1 -3.5 -0.5t-2.5 0.5q-2 1 -4 1t-3 1l-18 11zM604 87l-2 -2q-4 -2 -3 -2l-1 -2q0 -1 -1 -1l-21 -15l22 -14l2 27q0 1 1 1.5t1 1.5
q0 2 0.5 2t0.5 1t0.5 1.5t0.5 1.5zM751 8l-13 -31l-47 19l-18 -49l-33 13l53 131l87 -34l-10 -30l-58 21l-8 -21zM762 -13q1 8 6 19q6 6 11 14q3 4 6.5 7t6.5 6q5 3 9 4.5t9 3.5q4 2 9 2.5t10 1.5h9.5t9.5 -2t9.5 -3t8.5 -3q10 -5 16 -10l7 -7t5 -7q7 -8 8 -18q2 -5 3 -9
t2 -9v-9.5t-1 -9.5q-1 -10 -7 -19q-3 -4 -5.5 -7.5t-5.5 -7.5q-4 -7 -13 -12q-5 -2 -9 -4t-9 -4t-9 -3t-9 -1h-9.5t-11.5 2q-5 1 -8.5 2t-8.5 3q-4 2 -8 4.5t-8 6.5q-4 3 -6.5 7t-5.5 7q-2 4 -4.5 8t-4.5 8q-2 12 -4 19v10t2 10zM796 -20q-1 -9 0 -16q1 -3 2 -6.5t3 -7.5
q4 -6 10 -11q3 -2 7 -3t9 -2q6 -3 14 0q9 1 14 4q7 6 11 12q2 4 4 7.5t3 6.5q2 8 0 17q-1 5 -7 13q-2 4 -4.5 6.5l-5.5 5.5q-4 2 -7 3t-8 3q-8 2 -14 0q-5 -2 -8.5 -3t-7.5 -3q-2 -2 -4.5 -5t-4.5 -7q-4 -4 -6 -14zM1047 -113l-30 -1l-65 95l1 -95l-34 -1l-2 143h15h13
q7 0 9 -1q4 -3 5 -5l50 -71q1 -1 1 -2t1 -2q0 -2 1 -2.5t1 -1.5q0 -4 1 -5l-3 91h35zM1063 -2l-6 33l112 20l6 -31l-39 -8l21 -107l-33 -6l-20 107zM1232 41q-4 0 -6 -2q-3 0 -3 -2l-2 -4q0 -1 1 -2q0 -3 3 -4q1 0 1.5 -1t2.5 -1h10h10h9t9 -1q4 -2 6.5 -2.5t6.5 -2.5
q7 -5 12 -9t7 -14q4 -9 3 -18q0 -6 -2 -9.5t-4 -8.5q-2 -4 -4.5 -7.5t-7.5 -8.5q-5 -2 -9 -4.5t-9 -4.5l-8 -2t-9 -1q-6 -2 -15 2q-8 1 -15 5q-3 2 -6 4.5t-5 6.5l7 10q2 2 4 3q3 3 4 3q3 1 10 1q2 0 3.5 -0.5t3.5 -0.5t3.5 -1t3.5 -1q5 0 7 2q3 0 4 0.5l3 1.5l5 5q2 2 2 7
v6l-3 3q-1 1 -5 1q-2 2 -4 2h-4h-10h-7t-8 1q-6 0 -14 2q-4 2 -7.5 4t-5.5 4q-5 5 -10 15q-2 5 -2 9.5v7.5q1 5 2 8.5t4 7.5q2 5 4.5 7.5t6.5 5.5q7 5 15 8q2 1 5 2t8 1q2 0 5 -1t7 -1q2 -1 5 -1.5t8 -2.5q2 -2 4.5 -2.5t4.5 -2.5l-6 -11q-1 -3 -3 -7q-3 -1 -5 -1.5t-4 -0.5
q-1 -1 -4 -1h-5h-5q-2 0 -3 -2zM1322 -20q0 2 -1 3.5t-1 3.5q0 5 2 7q0 2 3 7q1 3 6 5q3 1 4.5 1t3.5 1q2 0 3.5 -0.5t3.5 -0.5q5 -2 6 -4q3 -1 5 -7q4 -4 4 -7q0 -5 -2 -7t-2.5 -3.5t-1.5 -2.5q-1 -2 -2.5 -3t-3.5 -3q-6 -2 -7 -2q-5 0 -7 1q-5 0 -9 4q-3 2 -4 7zM1374 66
q2 -6 11 -11q3 -3 6.5 -4t7.5 -3q6 -2 15 0q4 0 7 2t7 4q3 2 5 4.5t5 4.5l6 9q2 7 7 11q2 2 4 2t4 1h8l12 -2q-1 -5 -2 -9.5t-3 -8.5q-1 -5 -6 -15q-3 -8 -10 -13q-7 -7 -11 -10q-5 -3 -9.5 -5.5t-9.5 -3.5q-8 -4 -18 -4q-5 -1 -9.5 -0.5t-9.5 1.5q-3 2 -7.5 2.5t-9.5 2.5
q-4 3 -8 5.5t-7 6.5q-4 3 -7.5 6t-6.5 7q-2 5 -4 9.5t-4 9.5q-1 4 -1.5 8.5t-2.5 9.5v9t2 9q1 9 5 18q3 4 5 8t6 8q3 4 7 7t9 6q7 4 13 7q4 2 7.5 2.5t8.5 2.5h17q5 0 9 -1t7 -2l-1 -13q-2 -4 -3 -7l-3 -3l-3 -3q-8 -4 -13 -4q-7 0 -11 -2q-5 -1 -12 -4q-7 -4 -10 -11
q-5 -8 -5 -14q-2 -8 0 -16q2 -10 6 -14zM1459 122q-4 4 -6.5 7.5t-5.5 8.5q-2 5 -3.5 9t-2.5 9q-2 5 -2 9v9t0.5 9.5t1.5 9.5t3 9t4 9q3 3 5.5 7t6.5 7q4 4 8 7l8 6q4 2 8 3.5t9 2.5q5 2 9 2h9h9.5t9.5 -2q5 -1 9.5 -2.5t8.5 -3.5q5 -3 8 -6t8 -7q3 -4 5.5 -7.5t5.5 -8.5
q2 -4 3.5 -8t3.5 -9q1 -5 1 -9.5v-9.5q0 -7 -2 -17q-1 -5 -3 -9.5t-4 -8.5q-4 -8 -12 -16q-4 -4 -7.5 -6.5t-7.5 -4.5q-5 -2 -9 -4t-9 -3q-9 -3 -19 -3q-9 0 -18 3q-5 1 -9 3t-9 4q-3 2 -7 5zM1483 146q3 -3 6.5 -5t7.5 -4q6 -2 14 -2q11 0 15 2q4 1 7 3.5t6 5.5q8 6 9 12
q3 7 3 15q0 7 -3 15q-1 7 -9 13q-6 7 -13 10q-6 3 -15 3q-4 0 -7 -0.5t-7 -1.5q-4 -2 -7.5 -4t-6.5 -6q-5 -4 -9 -13q-2 -3 -2 -7v-8q0 -10 2 -14t4 -7.5t5 -6.5zM1714 322l-18 -29l-58 37l41 -61l-15 -24l-71 13l55 -37l-19 -28l-119 78l13 19q3 5 9 8q3 1 6.5 1h5.5
l84 -13l-47 70q-2 4 -3 6.5t-1 5.5q0 4 1 6.5t3 5.5l13 19zM332 929l-7 -19l-133 50l18 47q3 10 8 15q7 9 15 11q4 2 7.5 3t8.5 1t9 -0.5t9 -1.5q9 -4 14 -11q5 -2 6.5 -5.5t3.5 -7.5t3 -8.5t2 -7.5q0 -9 -3 -18l-10 -30zM275 984q0 2 0.5 4.5t0.5 4.5q0 3 -0.5 5t-1.5 5
q-1 2 -2.5 4t-3.5 4q-3 3 -7 5q-3 1 -6 1h-5q-3 0 -5 -0.5t-4 -1.5q-2 -2 -4 -2.5t-4 -2.5q-4 -6 -5 -9l-11 -30l47 -17zM404 1084l-42 -77l-124 68l42 77l17 -10l-33 -59l36 -20l27 49l17 -9l-27 -48l37 -22l33 60zM424 1110l-12 -16l-113 87l30 41q4 2 7 5t6 5q4 3 7.5 4
t7.5 2h8t8 -1q9 -2 15 -8q3 -2 5 -4.5t4 -5.5q2 -2 3.5 -5l2.5 -5q1 -5 1 -8v-6q0 -6 -2 -12l75 -2l-7 -11q-3 -4 -8 -6q-3 -1 -5 -2t-4 -1l-63 2l-13 -17zM326 1185l35 -27l19 26q2 1 2.5 3t2.5 4v8q0 2 -1 4t-2 5q-4 4 -6 5q-4 4 -8 4q-2 1 -8 1q-2 -1 -4 -1t-4 -1
q-4 -2 -6 -6zM436 1301q-4 -1 -6 -1t-4 -1t-5 -4q-4 -3 -6 -7q-3 -3 -3 -8v-7q1 -3 4 -6q3 -4 6 -5h6q3 0 9 2q3 2 5.5 2.5t6.5 2.5q2 1 3.5 2t2.5 1q2 1 8 3q4 0 7 3q1 0 2.5 0.5t3.5 0.5q20 2 32 -12q10 -6 11 -16q1 -5 1.5 -8t0.5 -8q-1 -5 -2 -9.5t-3 -8.5
q-2 -5 -5.5 -8.5t-5.5 -6.5q-13 -12 -31 -15h-6q-3 2 -6 2q-2 0 -3.5 0.5t-2.5 0.5t-1 0.5t-1 0.5l1 5q1 2 1.5 3.5t1.5 3.5q8 5 12 5h3q3 0 9 2q4 1 10 6q2 2 2.5 4t2.5 4q3 4 3 11q2 4 0 9q0 3 -1.5 5t-3.5 4q-3 5 -9 5q-5 3 -9 0q-6 0 -9 -3q-8 -2 -11 -5q-4 -1 -14 -5
q-4 -2 -8 -2t-6 -1q-10 0 -14 1q-3 2 -7 4t-6 6q-7 6 -9 14q-2 9 -1 14q2 11 5 15q2 5 8 13q6 5 11 6q4 4 10 4q10 2 12 2q7 0 10 -1l-1 -6q0 -3 -4 -9q-3 -4 -7 -4zM496 1296q-2 4 -4.5 8.5t-3.5 9.5q-5 10 -5 18q-1 5 -0.5 9.5t0.5 9.5q2 5 3.5 9.5t3.5 8.5q2 5 4.5 8
t5.5 8q6 6 15 12q8 7 17 8q9 4 19 4q9 3 19 0q5 -1 8 -2.5t8 -3.5t9 -4.5t8 -5.5t6.5 -6.5t6.5 -8.5q2 -4 4.5 -8t3.5 -9q4 -9 4 -18q2 -10 0 -19q-1 -5 -2.5 -9t-3.5 -9q-5 -10 -11 -16q-4 -3 -6.5 -6.5t-7.5 -5.5q-14 -10 -26 -11q-15 -4 -29 0q-7 1 -13 3.5t-13 5.5
q-12 8 -20 20zM513 1308q4 -10 14 -15q8 -5 19 -7q10 -3 21 0q10 2 18 8q11 6 15 15q3 5 4.5 9t3.5 9q1 11 0 22q-2 4 -3.5 8.5t-5.5 9.5q-5 9 -15 15q-10 7 -18 8q-11 2 -20 0q-11 -2 -20 -9q-9 -6 -15 -15q-3 -5 -4.5 -9.5t-3.5 -9.5q-2 -9 0 -20q2 -5 3.5 -9.5t6.5 -9.5z
M682 1330l-19 -8l-54 132l14 6q4 2 8 2q5 0 6 -2l109 -70l1 -1q1 -2 1 -3q2 0 2 -0.5t1 -0.5l-46 109l19 7l54 -131l-14 -6q-4 -1 -8 -1q-5 0 -8 1l-106 70q-2 0 -2 0.5t-2 0.5q0 2 -1 3q-1 0 -1 1v2zM811 1523l19 3l88 -127l-11 -2q-2 -1 -4 -0.5t-4 0.5q-5 1 -7 6l-14 20
l-71 -14l-5 -24q-2 -5 -5 -8q-1 -2 -3.5 -3t-4.5 -1l-11 -2zM825 1494l-14 -64l55 11l-37 53q-2 2 -2 4t-2 4v-4v-4zM919 1396l-5 143l19 1l5 -123l63 3l1 -21zM1080 1448q-2 -8 0 -15q1 -3 2.5 -6.5t3.5 -5.5q2 -3 4.5 -5.5l4.5 -4.5q4 -2 7.5 -4t7.5 -3q10 0 14 1q5 0 8 2
l6 4q6 4 10 10q2 3 3.5 6.5t3.5 7.5l14 85l20 -2l-17 -87q-1 -3 -1.5 -6.5t-2.5 -7.5l-3.5 -7t-3.5 -6q-3 -2 -6.5 -4.5t-5.5 -4.5q-5 -4 -12 -6q-4 -2 -8 -2.5t-7 -1.5q-10 0 -15 1q-5 0 -8 1.5l-7 3.5q-4 1 -6.5 3t-5.5 4q-7 5 -11 11q-2 5 -6 13q-3 7 -3 15q0 10 1 15
l14 85l20 -4zM1265 1466q-1 2 -2.5 3.5t-2.5 3.5q-2 1 -4 1.5t-4 1.5q-3 2 -9 2h-7q-3 -3 -7 -4q-3 -3 -3 -6q-3 -5 -1 -8q0 -4 2 -6q1 -2 2 -3.5t4 -3.5q3 -3 9 -7q2 -2 3 -3.5t3 -2.5t3 -2.5t3 -2.5l2.5 -2.5t3.5 -2.5l1.5 -3t2.5 -3q10 -15 4 -33q-2 -5 -4.5 -9t-4.5 -7
q-5 -3 -8.5 -5.5t-7.5 -3.5q-8 -4 -17 -4q-5 0 -9 0.5t-9 1.5q-18 8 -27 23q0 1 -1.5 2.5l-2.5 2.5q0 2 -0.5 3t-0.5 3q-1 1 -1 4v3l6 2q4 0 7 -2q6 -1 9 -7v-1l3 -4.5t3 -3.5q4 -2 6 -3.5t5 -2.5q2 0 4.5 -0.5t4.5 -0.5h6t5 1q7 2 9 5q5 5 6 9q3 6 0 10q0 2 -1 4l-2 4
q-2 2 -3.5 4t-3.5 4q-2 1 -4 2.5t-6 3.5q-2 3 -5 5.5t-5 5.5q-3 2 -5 5t-4 7q-2 2 -3.5 5t-1.5 6q-2 7 3 17q1 8 7 14q7 6 13 7q5 2 8.5 2.5t6.5 0.5q4 0 8 -1t9 -2q4 -1 9 -6q5 -4 9 -9l4 -4t3 -4q1 -3 1.5 -5t1.5 -4l-6 -3q-5 -2 -10 0q-5 4 -7 6zM1339 1300l-78 41
l64 127l78 -41l-8 -18l-60 32l-19 -37l49 -25l-10 -18l-49 26l-19 -37l61 -32zM1428 1328q7 10 16 13q3 3 7 5l8 4q5 2 9.5 2t9.5 1h9.5t9.5 -1q9 -2 18 -6q7 -3 15 -11q4 -3 8 -6.5t6 -8.5q6 -7 7 -16q4 -8 4 -18v-9.5t-1 -9.5q-2 -5 -3 -9.5t-3 -8.5q-5 -10 -11 -15
q-4 -5 -7 -8.5t-7 -6.5q-5 -2 -9 -4t-9 -3q-9 -3 -18 -3h-9.5t-9.5 1q-3 1 -7.5 2t-9.5 4q-5 2 -8.5 4.5t-8.5 4.5q-5 7 -9.5 12.5t-7.5 11.5q-2 7 -4 13.5t-3 13.5q0 16 4 28q5 15 14 24zM1444 1316q-9 -9 -12 -18q-2 -5 -2.5 -10t-0.5 -10q0 -6 1.5 -10.5t3.5 -9.5
q4 -5 6.5 -9.5t6.5 -7.5q5 -4 9.5 -6t9.5 -5q11 -3 19 -2q13 0 20 6q5 2 9.5 5t8.5 6q8 9 9 19q5 9 3 20q0 5 -1 10t-4 10q-2 5 -5 8.5t-7 7.5t-9 6.5t-10 4.5t-10 2.5t-10 0.5t-10 -2l-10 -4q-9 -5 -15 -12zM1506 1158l-12 14l114 86l11 -13q2 -4 3 -7v-8l-42 -120
q0 -1 -0.5 -1t-0.5 -1t-1 -1t-1 -1l-1 -2l95 70l12 -15l-114 -85l-9 12q-3 2 -5 7q0 5 1 7l41 122q0 1 1 1t1 1l1 1q1 2 2 3zM1576 1057l127 65l8 -16l-109 -57l29 -54l-18 -10zM1628 944l-7 18l57 22l2 1l4 2q0 2 0.5 2.5t0.5 1.5q3 0 3 2l47 73l3 -12q2 -4 2.5 -7t0.5 -5
q-1 -2 -2 -4.5t-2 -4.5l-31 -47l-2 -2l-1 -1h2q0 1 3 0l54 -16q2 -1 4.5 -2t4.5 -3q4 -2 5 -8l5 -13l-82 24q-2 0 -3 1h-4h-4q-3 0 -4 -1z" />
    <glyph glyph-name="two" unicode="2" horiz-adv-x="1995" 
d="M1335 326q-72 -60 -161 -96t-190 -36t-188.5 36t-159.5 96h699zM595 366q-62 70 -96 159t-34 190q0 96 30 178.5t87 151.5h690zM634 1103q71 63 160 98.5t190 35.5t189.5 -36t155.5 -98h-695zM1503 715q0 -96 -30.5 -179.5t-85.5 -153.5h-693l677 684q66 -82 99 -168.5
t33 -182.5zM1152 110q-41 -11 -82 -17t-86 -6q-89 0 -170.5 23t-151.5 65t-126.5 100t-96.5 127.5t-62 149t-22 163.5q0 89 23 171t65 152t100 127t128 97t149.5 62t163.5 22q136 0 251 -52t199 -139.5t131 -201.5t47 -238q0 -113 -36 -211t-98 -176t-146 -133.5t-180 -84.5
zM1136 1272q-34 11 -72 16.5t-80 5.5q-83 0 -158 -21.5t-139 -60t-115.5 -92.5t-88 -118t-56 -137t-19.5 -150q0 -78 20 -151t57 -137.5t89 -118t116 -92t138.5 -60t155.5 -21.5q119 0 224.5 45.5t184 124t124 184t45.5 226.5q0 106 -34 197.5t-92 163.5t-135.5 122
t-164.5 74zM295 318l32 -54l-28 -17l-57 96l13 7q9 6 16 4l99 -10l-31 53l28 16l55 -95l-13 -7q-6 -2 -7 -2q-3 -2 -8 -2zM382 144l-61 73l109 92l62 -74l-25 -20l-41 46l-15 -14l31 -36l-25 -22l-31 37l-19 -14l39 -46zM477 201l22 25l86 -73l-20 -24l-31 26l-71 -85
l-25 22l70 83zM617 135l23 -16l-19 -152l-21 11q-1 3 -4 4q-3 3 -3 5q-2 4 -2 6v6l2 17l-47 28l-14 -10q-1 -1 -2.5 -1t-2.5 -1h-6q-2 -1 -3.5 -0.5t-2.5 0.5q-2 1 -4 1t-3 1l-18 11zM604 87l-2 -2q-4 -2 -3 -2l-1 -2q0 -1 -1 -1l-21 -15l22 -14l2 27q0 1 1 1.5t1 1.5
q0 2 0.5 2t0.5 1t0.5 1.5t0.5 1.5zM751 8l-13 -31l-47 19l-18 -49l-33 13l53 131l87 -34l-10 -30l-58 21l-8 -21zM762 -13q1 8 6 19q6 6 11 14q3 4 6.5 7t6.5 6q5 3 9 4.5t9 3.5q4 2 9 2.5t10 1.5h9.5t9.5 -2t9.5 -3t8.5 -3q10 -5 16 -10l7 -7t5 -7q7 -8 8 -18q2 -5 3 -9
t2 -9v-9.5t-1 -9.5q-1 -10 -7 -19q-3 -4 -5.5 -7.5t-5.5 -7.5q-4 -7 -13 -12q-5 -2 -9 -4t-9 -4t-9 -3t-9 -1h-9.5t-11.5 2q-5 1 -8.5 2t-8.5 3q-4 2 -8 4.5t-8 6.5q-4 3 -6.5 7t-5.5 7q-2 4 -4.5 8t-4.5 8q-2 12 -4 19v10t2 10zM796 -20q-1 -9 0 -16q1 -3 2 -6.5t3 -7.5
q4 -6 10 -11q3 -2 7 -3t9 -2q6 -3 14 0q9 1 14 4q7 6 11 12q2 4 4 7.5t3 6.5q2 8 0 17q-1 5 -7 13q-2 4 -4.5 6.5l-5.5 5.5q-4 2 -7 3t-8 3q-8 2 -14 0q-5 -2 -8.5 -3t-7.5 -3q-2 -2 -4.5 -5t-4.5 -7q-4 -4 -6 -14zM1047 -113l-30 -1l-65 95l1 -95l-34 -1l-2 143h15h13
q7 0 9 -1q4 -3 5 -5l50 -71q1 -1 1 -2t1 -2q0 -2 1 -2.5t1 -1.5q0 -4 1 -5l-3 91h35zM1063 -2l-6 33l112 20l6 -31l-39 -8l21 -107l-33 -6l-20 107zM1232 41q-4 0 -6 -2q-3 0 -3 -2l-2 -4q0 -1 1 -2q0 -3 3 -4q1 0 1.5 -1t2.5 -1h10h10h9t9 -1q4 -2 6.5 -2.5t6.5 -2.5
q7 -5 12 -9t7 -14q4 -9 3 -18q0 -6 -2 -9.5t-4 -8.5q-2 -4 -4.5 -7.5t-7.5 -8.5q-5 -2 -9 -4.5t-9 -4.5l-8 -2t-9 -1q-6 -2 -15 2q-8 1 -15 5q-3 2 -6 4.5t-5 6.5l7 10q2 2 4 3q3 3 4 3q3 1 10 1q2 0 3.5 -0.5t3.5 -0.5t3.5 -1t3.5 -1q5 0 7 2q3 0 4 0.5l3 1.5l5 5q2 2 2 7
v6l-3 3q-1 1 -5 1q-2 2 -4 2h-4h-10h-7t-8 1q-6 0 -14 2q-4 2 -7.5 4t-5.5 4q-5 5 -10 15q-2 5 -2 9.5v7.5q1 5 2 8.5t4 7.5q2 5 4.5 7.5t6.5 5.5q7 5 15 8q2 1 5 2t8 1q2 0 5 -1t7 -1q2 -1 5 -1.5t8 -2.5q2 -2 4.5 -2.5t4.5 -2.5l-6 -11q-1 -3 -3 -7q-3 -1 -5 -1.5t-4 -0.5
q-1 -1 -4 -1h-5h-5q-2 0 -3 -2zM1322 -20q0 2 -1 3.5t-1 3.5q0 5 2 7q0 2 3 7q1 3 6 5q3 1 4.5 1t3.5 1q2 0 3.5 -0.5t3.5 -0.5q5 -2 6 -4q3 -1 5 -7q4 -4 4 -7q0 -5 -2 -7t-2.5 -3.5t-1.5 -2.5q-1 -2 -2.5 -3t-3.5 -3q-6 -2 -7 -2q-5 0 -7 1q-5 0 -9 4q-3 2 -4 7zM1374 66
q2 -6 11 -11q3 -3 6.5 -4t7.5 -3q6 -2 15 0q4 0 7 2t7 4q3 2 5 4.5t5 4.5l6 9q2 7 7 11q2 2 4 2t4 1h8l12 -2q-1 -5 -2 -9.5t-3 -8.5q-1 -5 -6 -15q-3 -8 -10 -13q-7 -7 -11 -10q-5 -3 -9.5 -5.5t-9.5 -3.5q-8 -4 -18 -4q-5 -1 -9.5 -0.5t-9.5 1.5q-3 2 -7.5 2.5t-9.5 2.5
q-4 3 -8 5.5t-7 6.5q-4 3 -7.5 6t-6.5 7q-2 5 -4 9.5t-4 9.5q-1 4 -1.5 8.5t-2.5 9.5v9t2 9q1 9 5 18q3 4 5 8t6 8q3 4 7 7t9 6q7 4 13 7q4 2 7.5 2.5t8.5 2.5h17q5 0 9 -1t7 -2l-1 -13q-2 -4 -3 -7l-3 -3l-3 -3q-8 -4 -13 -4q-7 0 -11 -2q-5 -1 -12 -4q-7 -4 -10 -11
q-5 -8 -5 -14q-2 -8 0 -16q2 -10 6 -14zM1459 122q-4 4 -6.5 7.5t-5.5 8.5q-2 5 -3.5 9t-2.5 9q-2 5 -2 9v9t0.5 9.5t1.5 9.5t3 9t4 9q3 3 5.5 7t6.5 7q4 4 8 7l8 6q4 2 8 3.5t9 2.5q5 2 9 2h9h9.5t9.5 -2q5 -1 9.5 -2.5t8.5 -3.5q5 -3 8 -6t8 -7q3 -4 5.5 -7.5t5.5 -8.5
q2 -4 3.5 -8t3.5 -9q1 -5 1 -9.5v-9.5q0 -7 -2 -17q-1 -5 -3 -9.5t-4 -8.5q-4 -8 -12 -16q-4 -4 -7.5 -6.5t-7.5 -4.5q-5 -2 -9 -4t-9 -3q-9 -3 -19 -3q-9 0 -18 3q-5 1 -9 3t-9 4q-3 2 -7 5zM1483 146q3 -3 6.5 -5t7.5 -4q6 -2 14 -2q11 0 15 2q4 1 7 3.5t6 5.5q8 6 9 12
q3 7 3 15q0 7 -3 15q-1 7 -9 13q-6 7 -13 10q-6 3 -15 3q-4 0 -7 -0.5t-7 -1.5q-4 -2 -7.5 -4t-6.5 -6q-5 -4 -9 -13q-2 -3 -2 -7v-8q0 -10 2 -14t4 -7.5t5 -6.5zM1714 322l-18 -29l-58 37l41 -61l-15 -24l-71 13l55 -37l-19 -28l-119 78l13 19q3 5 9 8q3 1 6.5 1h5.5
l84 -13l-47 70q-2 4 -3 6.5t-1 5.5q0 4 1 6.5t3 5.5l13 19zM332 929l-7 -19l-133 50l18 47q3 10 8 15q7 9 15 11q4 2 7.5 3t8.5 1t9 -0.5t9 -1.5q9 -4 14 -11q5 -2 6.5 -5.5t3.5 -7.5t3 -8.5t2 -7.5q0 -9 -3 -18l-10 -30zM275 984q0 2 0.5 4.5t0.5 4.5q0 3 -0.5 5t-1.5 5
q-1 2 -2.5 4t-3.5 4q-3 3 -7 5q-3 1 -6 1h-5q-3 0 -5 -0.5t-4 -1.5q-2 -2 -4 -2.5t-4 -2.5q-4 -6 -5 -9l-11 -30l47 -17zM404 1084l-42 -77l-124 68l42 77l17 -10l-33 -59l36 -20l27 49l17 -9l-27 -48l37 -22l33 60zM424 1110l-12 -16l-113 87l30 41q4 2 7 5t6 5q4 3 7.5 4
t7.5 2h8t8 -1q9 -2 15 -8q3 -2 5 -4.5t4 -5.5q2 -2 3.5 -5l2.5 -5q1 -5 1 -8v-6q0 -6 -2 -12l75 -2l-7 -11q-3 -4 -8 -6q-3 -1 -5 -2t-4 -1l-63 2l-13 -17zM326 1185l35 -27l19 26q2 1 2.5 3t2.5 4v8q0 2 -1 4t-2 5q-4 4 -6 5q-4 4 -8 4q-2 1 -8 1q-2 -1 -4 -1t-4 -1
q-4 -2 -6 -6zM436 1301q-4 -1 -6 -1t-4 -1t-5 -4q-4 -3 -6 -7q-3 -3 -3 -8v-7q1 -3 4 -6q3 -4 6 -5h6q3 0 9 2q3 2 5.5 2.5t6.5 2.5q2 1 3.5 2t2.5 1q2 1 8 3q4 0 7 3q1 0 2.5 0.5t3.5 0.5q20 2 32 -12q10 -6 11 -16q1 -5 1.5 -8t0.5 -8q-1 -5 -2 -9.5t-3 -8.5
q-2 -5 -5.5 -8.5t-5.5 -6.5q-13 -12 -31 -15h-6q-3 2 -6 2q-2 0 -3.5 0.5t-2.5 0.5t-1 0.5t-1 0.5l1 5q1 2 1.5 3.5t1.5 3.5q8 5 12 5h3q3 0 9 2q4 1 10 6q2 2 2.5 4t2.5 4q3 4 3 11q2 4 0 9q0 3 -1.5 5t-3.5 4q-3 5 -9 5q-5 3 -9 0q-6 0 -9 -3q-8 -2 -11 -5q-4 -1 -14 -5
q-4 -2 -8 -2t-6 -1q-10 0 -14 1q-3 2 -7 4t-6 6q-7 6 -9 14q-2 9 -1 14q2 11 5 15q2 5 8 13q6 5 11 6q4 4 10 4q10 2 12 2q7 0 10 -1l-1 -6q0 -3 -4 -9q-3 -4 -7 -4zM496 1296q-2 4 -4.5 8.5t-3.5 9.5q-5 10 -5 18q-1 5 -0.5 9.5t0.5 9.5q2 5 3.5 9.5t3.5 8.5q2 5 4.5 8
t5.5 8q6 6 15 12q8 7 17 8q9 4 19 4q9 3 19 0q5 -1 8 -2.5t8 -3.5t9 -4.5t8 -5.5t6.5 -6.5t6.5 -8.5q2 -4 4.5 -8t3.5 -9q4 -9 4 -18q2 -10 0 -19q-1 -5 -2.5 -9t-3.5 -9q-5 -10 -11 -16q-4 -3 -6.5 -6.5t-7.5 -5.5q-14 -10 -26 -11q-15 -4 -29 0q-7 1 -13 3.5t-13 5.5
q-12 8 -20 20zM513 1308q4 -10 14 -15q8 -5 19 -7q10 -3 21 0q10 2 18 8q11 6 15 15q3 5 4.5 9t3.5 9q1 11 0 22q-2 4 -3.5 8.5t-5.5 9.5q-5 9 -15 15q-10 7 -18 8q-11 2 -20 0q-11 -2 -20 -9q-9 -6 -15 -15q-3 -5 -4.5 -9.5t-3.5 -9.5q-2 -9 0 -20q2 -5 3.5 -9.5t6.5 -9.5z
M682 1330l-19 -8l-54 132l14 6q4 2 8 2q5 0 6 -2l109 -70l1 -1q1 -2 1 -3q2 0 2 -0.5t1 -0.5l-46 109l19 7l54 -131l-14 -6q-4 -1 -8 -1q-5 0 -8 1l-106 70q-2 0 -2 0.5t-2 0.5q0 2 -1 3q-1 0 -1 1v2zM811 1523l19 3l88 -127l-11 -2q-2 -1 -4 -0.5t-4 0.5q-5 1 -7 6l-14 20
l-71 -14l-5 -24q-2 -5 -5 -8q-1 -2 -3.5 -3t-4.5 -1l-11 -2zM825 1494l-14 -64l55 11l-37 53q-2 2 -2 4t-2 4v-4v-4zM919 1396l-5 143l19 1l5 -123l63 3l1 -21zM1080 1448q-2 -8 0 -15q1 -3 2.5 -6.5t3.5 -5.5q2 -3 4.5 -5.5l4.5 -4.5q4 -2 7.5 -4t7.5 -3q10 0 14 1q5 0 8 2
l6 4q6 4 10 10q2 3 3.5 6.5t3.5 7.5l14 85l20 -2l-17 -87q-1 -3 -1.5 -6.5t-2.5 -7.5l-3.5 -7t-3.5 -6q-3 -2 -6.5 -4.5t-5.5 -4.5q-5 -4 -12 -6q-4 -2 -8 -2.5t-7 -1.5q-10 0 -15 1q-5 0 -8 1.5l-7 3.5q-4 1 -6.5 3t-5.5 4q-7 5 -11 11q-2 5 -6 13q-3 7 -3 15q0 10 1 15
l14 85l20 -4zM1265 1466q-1 2 -2.5 3.5t-2.5 3.5q-2 1 -4 1.5t-4 1.5q-3 2 -9 2h-7q-3 -3 -7 -4q-3 -3 -3 -6q-3 -5 -1 -8q0 -4 2 -6q1 -2 2 -3.5t4 -3.5q3 -3 9 -7q2 -2 3 -3.5t3 -2.5t3 -2.5t3 -2.5l2.5 -2.5t3.5 -2.5l1.5 -3t2.5 -3q10 -15 4 -33q-2 -5 -4.5 -9t-4.5 -7
q-5 -3 -8.5 -5.5t-7.5 -3.5q-8 -4 -17 -4q-5 0 -9 0.5t-9 1.5q-18 8 -27 23q0 1 -1.5 2.5l-2.5 2.5q0 2 -0.5 3t-0.5 3q-1 1 -1 4v3l6 2q4 0 7 -2q6 -1 9 -7v-1l3 -4.5t3 -3.5q4 -2 6 -3.5t5 -2.5q2 0 4.5 -0.5t4.5 -0.5h6t5 1q7 2 9 5q5 5 6 9q3 6 0 10q0 2 -1 4l-2 4
q-2 2 -3.5 4t-3.5 4q-2 1 -4 2.5t-6 3.5q-2 3 -5 5.5t-5 5.5q-3 2 -5 5t-4 7q-2 2 -3.5 5t-1.5 6q-2 7 3 17q1 8 7 14q7 6 13 7q5 2 8.5 2.5t6.5 0.5q4 0 8 -1t9 -2q4 -1 9 -6q5 -4 9 -9l4 -4t3 -4q1 -3 1.5 -5t1.5 -4l-6 -3q-5 -2 -10 0q-5 4 -7 6zM1339 1300l-78 41
l64 127l78 -41l-8 -18l-60 32l-19 -37l49 -25l-10 -18l-49 26l-19 -37l61 -32zM1428 1328q7 10 16 13q3 3 7 5l8 4q5 2 9.5 2t9.5 1h9.5t9.5 -1q9 -2 18 -6q7 -3 15 -11q4 -3 8 -6.5t6 -8.5q6 -7 7 -16q4 -8 4 -18v-9.5t-1 -9.5q-2 -5 -3 -9.5t-3 -8.5q-5 -10 -11 -15
q-4 -5 -7 -8.5t-7 -6.5q-5 -2 -9 -4t-9 -3q-9 -3 -18 -3h-9.5t-9.5 1q-3 1 -7.5 2t-9.5 4q-5 2 -8.5 4.5t-8.5 4.5q-5 7 -9.5 12.5t-7.5 11.5q-2 7 -4 13.5t-3 13.5q0 16 4 28q5 15 14 24zM1444 1316q-9 -9 -12 -18q-2 -5 -2.5 -10t-0.5 -10q0 -6 1.5 -10.5t3.5 -9.5
q4 -5 6.5 -9.5t6.5 -7.5q5 -4 9.5 -6t9.5 -5q11 -3 19 -2q13 0 20 6q5 2 9.5 5t8.5 6q8 9 9 19q5 9 3 20q0 5 -1 10t-4 10q-2 5 -5 8.5t-7 7.5t-9 6.5t-10 4.5t-10 2.5t-10 0.5t-10 -2l-10 -4q-9 -5 -15 -12zM1506 1158l-12 14l114 86l11 -13q2 -4 3 -7v-8l-42 -120
q0 -1 -0.5 -1t-0.5 -1t-1 -1t-1 -1l-1 -2l95 70l12 -15l-114 -85l-9 12q-3 2 -5 7q0 5 1 7l41 122q0 1 1 1t1 1l1 1q1 2 2 3zM1576 1057l127 65l8 -16l-109 -57l29 -54l-18 -10zM1628 944l-7 18l57 22l2 1l4 2q0 2 0.5 2.5t0.5 1.5q3 0 3 2l47 73l3 -12q2 -4 2.5 -7t0.5 -5
q-1 -2 -2 -4.5t-2 -4.5l-31 -47l-2 -2l-1 -1h2q0 1 3 0l54 -16q2 -1 4.5 -2t4.5 -3q4 -2 5 -8l5 -13l-82 24q-2 0 -3 1h-4h-4q-3 0 -4 -1z" />
    <glyph glyph-name="three" unicode="3" horiz-adv-x="1995" 
d="M1335 326q-72 -60 -161 -96t-190 -36t-188.5 36t-159.5 96h699zM595 366q-62 70 -96 159t-34 190q0 96 30 178.5t87 151.5h690zM634 1103q71 63 160 98.5t190 35.5t189.5 -36t155.5 -98h-695zM1503 715q0 -96 -30.5 -179.5t-85.5 -153.5h-693l677 684q66 -82 99 -168.5
t33 -182.5zM1152 110q-41 -11 -82 -17t-86 -6q-89 0 -170.5 23t-151.5 65t-126.5 100t-96.5 127.5t-62 149t-22 163.5q0 89 23 171t65 152t100 127t128 97t149.5 62t163.5 22q136 0 251 -52t199 -139.5t131 -201.5t47 -238q0 -113 -36 -211t-98 -176t-146 -133.5t-180 -84.5
zM1136 1272q-34 11 -72 16.5t-80 5.5q-83 0 -158 -21.5t-139 -60t-115.5 -92.5t-88 -118t-56 -137t-19.5 -150q0 -78 20 -151t57 -137.5t89 -118t116 -92t138.5 -60t155.5 -21.5q119 0 224.5 45.5t184 124t124 184t45.5 226.5q0 106 -34 197.5t-92 163.5t-135.5 122
t-164.5 74zM295 318l32 -54l-28 -17l-57 96l13 7q9 6 16 4l99 -10l-31 53l28 16l55 -95l-13 -7q-6 -2 -7 -2q-3 -2 -8 -2zM382 144l-61 73l109 92l62 -74l-25 -20l-41 46l-15 -14l31 -36l-25 -22l-31 37l-19 -14l39 -46zM477 201l22 25l86 -73l-20 -24l-31 26l-71 -85
l-25 22l70 83zM617 135l23 -16l-19 -152l-21 11q-1 3 -4 4q-3 3 -3 5q-2 4 -2 6v6l2 17l-47 28l-14 -10q-1 -1 -2.5 -1t-2.5 -1h-6q-2 -1 -3.5 -0.5t-2.5 0.5q-2 1 -4 1t-3 1l-18 11zM604 87l-2 -2q-4 -2 -3 -2l-1 -2q0 -1 -1 -1l-21 -15l22 -14l2 27q0 1 1 1.5t1 1.5
q0 2 0.5 2t0.5 1t0.5 1.5t0.5 1.5zM751 8l-13 -31l-47 19l-18 -49l-33 13l53 131l87 -34l-10 -30l-58 21l-8 -21zM762 -13q1 8 6 19q6 6 11 14q3 4 6.5 7t6.5 6q5 3 9 4.5t9 3.5q4 2 9 2.5t10 1.5h9.5t9.5 -2t9.5 -3t8.5 -3q10 -5 16 -10l7 -7t5 -7q7 -8 8 -18q2 -5 3 -9
t2 -9v-9.5t-1 -9.5q-1 -10 -7 -19q-3 -4 -5.5 -7.5t-5.5 -7.5q-4 -7 -13 -12q-5 -2 -9 -4t-9 -4t-9 -3t-9 -1h-9.5t-11.5 2q-5 1 -8.5 2t-8.5 3q-4 2 -8 4.5t-8 6.5q-4 3 -6.5 7t-5.5 7q-2 4 -4.5 8t-4.5 8q-2 12 -4 19v10t2 10zM796 -20q-1 -9 0 -16q1 -3 2 -6.5t3 -7.5
q4 -6 10 -11q3 -2 7 -3t9 -2q6 -3 14 0q9 1 14 4q7 6 11 12q2 4 4 7.5t3 6.5q2 8 0 17q-1 5 -7 13q-2 4 -4.5 6.5l-5.5 5.5q-4 2 -7 3t-8 3q-8 2 -14 0q-5 -2 -8.5 -3t-7.5 -3q-2 -2 -4.5 -5t-4.5 -7q-4 -4 -6 -14zM1047 -113l-30 -1l-65 95l1 -95l-34 -1l-2 143h15h13
q7 0 9 -1q4 -3 5 -5l50 -71q1 -1 1 -2t1 -2q0 -2 1 -2.5t1 -1.5q0 -4 1 -5l-3 91h35zM1063 -2l-6 33l112 20l6 -31l-39 -8l21 -107l-33 -6l-20 107zM1232 41q-4 0 -6 -2q-3 0 -3 -2l-2 -4q0 -1 1 -2q0 -3 3 -4q1 0 1.5 -1t2.5 -1h10h10h9t9 -1q4 -2 6.5 -2.5t6.5 -2.5
q7 -5 12 -9t7 -14q4 -9 3 -18q0 -6 -2 -9.5t-4 -8.5q-2 -4 -4.5 -7.5t-7.5 -8.5q-5 -2 -9 -4.5t-9 -4.5l-8 -2t-9 -1q-6 -2 -15 2q-8 1 -15 5q-3 2 -6 4.5t-5 6.5l7 10q2 2 4 3q3 3 4 3q3 1 10 1q2 0 3.5 -0.5t3.5 -0.5t3.5 -1t3.5 -1q5 0 7 2q3 0 4 0.5l3 1.5l5 5q2 2 2 7
v6l-3 3q-1 1 -5 1q-2 2 -4 2h-4h-10h-7t-8 1q-6 0 -14 2q-4 2 -7.5 4t-5.5 4q-5 5 -10 15q-2 5 -2 9.5v7.5q1 5 2 8.5t4 7.5q2 5 4.5 7.5t6.5 5.5q7 5 15 8q2 1 5 2t8 1q2 0 5 -1t7 -1q2 -1 5 -1.5t8 -2.5q2 -2 4.5 -2.5t4.5 -2.5l-6 -11q-1 -3 -3 -7q-3 -1 -5 -1.5t-4 -0.5
q-1 -1 -4 -1h-5h-5q-2 0 -3 -2zM1322 -20q0 2 -1 3.5t-1 3.5q0 5 2 7q0 2 3 7q1 3 6 5q3 1 4.5 1t3.5 1q2 0 3.5 -0.5t3.5 -0.5q5 -2 6 -4q3 -1 5 -7q4 -4 4 -7q0 -5 -2 -7t-2.5 -3.5t-1.5 -2.5q-1 -2 -2.5 -3t-3.5 -3q-6 -2 -7 -2q-5 0 -7 1q-5 0 -9 4q-3 2 -4 7zM1374 66
q2 -6 11 -11q3 -3 6.5 -4t7.5 -3q6 -2 15 0q4 0 7 2t7 4q3 2 5 4.5t5 4.5l6 9q2 7 7 11q2 2 4 2t4 1h8l12 -2q-1 -5 -2 -9.5t-3 -8.5q-1 -5 -6 -15q-3 -8 -10 -13q-7 -7 -11 -10q-5 -3 -9.5 -5.5t-9.5 -3.5q-8 -4 -18 -4q-5 -1 -9.5 -0.5t-9.5 1.5q-3 2 -7.5 2.5t-9.5 2.5
q-4 3 -8 5.5t-7 6.5q-4 3 -7.5 6t-6.5 7q-2 5 -4 9.5t-4 9.5q-1 4 -1.5 8.5t-2.5 9.5v9t2 9q1 9 5 18q3 4 5 8t6 8q3 4 7 7t9 6q7 4 13 7q4 2 7.5 2.5t8.5 2.5h17q5 0 9 -1t7 -2l-1 -13q-2 -4 -3 -7l-3 -3l-3 -3q-8 -4 -13 -4q-7 0 -11 -2q-5 -1 -12 -4q-7 -4 -10 -11
q-5 -8 -5 -14q-2 -8 0 -16q2 -10 6 -14zM1459 122q-4 4 -6.5 7.5t-5.5 8.5q-2 5 -3.5 9t-2.5 9q-2 5 -2 9v9t0.5 9.5t1.5 9.5t3 9t4 9q3 3 5.5 7t6.5 7q4 4 8 7l8 6q4 2 8 3.5t9 2.5q5 2 9 2h9h9.5t9.5 -2q5 -1 9.5 -2.5t8.5 -3.5q5 -3 8 -6t8 -7q3 -4 5.5 -7.5t5.5 -8.5
q2 -4 3.5 -8t3.5 -9q1 -5 1 -9.5v-9.5q0 -7 -2 -17q-1 -5 -3 -9.5t-4 -8.5q-4 -8 -12 -16q-4 -4 -7.5 -6.5t-7.5 -4.5q-5 -2 -9 -4t-9 -3q-9 -3 -19 -3q-9 0 -18 3q-5 1 -9 3t-9 4q-3 2 -7 5zM1483 146q3 -3 6.5 -5t7.5 -4q6 -2 14 -2q11 0 15 2q4 1 7 3.5t6 5.5q8 6 9 12
q3 7 3 15q0 7 -3 15q-1 7 -9 13q-6 7 -13 10q-6 3 -15 3q-4 0 -7 -0.5t-7 -1.5q-4 -2 -7.5 -4t-6.5 -6q-5 -4 -9 -13q-2 -3 -2 -7v-8q0 -10 2 -14t4 -7.5t5 -6.5zM1714 322l-18 -29l-58 37l41 -61l-15 -24l-71 13l55 -37l-19 -28l-119 78l13 19q3 5 9 8q3 1 6.5 1h5.5
l84 -13l-47 70q-2 4 -3 6.5t-1 5.5q0 4 1 6.5t3 5.5l13 19zM332 929l-7 -19l-133 50l18 47q3 10 8 15q7 9 15 11q4 2 7.5 3t8.5 1t9 -0.5t9 -1.5q9 -4 14 -11q5 -2 6.5 -5.5t3.5 -7.5t3 -8.5t2 -7.5q0 -9 -3 -18l-10 -30zM275 984q0 2 0.5 4.5t0.5 4.5q0 3 -0.5 5t-1.5 5
q-1 2 -2.5 4t-3.5 4q-3 3 -7 5q-3 1 -6 1h-5q-3 0 -5 -0.5t-4 -1.5q-2 -2 -4 -2.5t-4 -2.5q-4 -6 -5 -9l-11 -30l47 -17zM404 1084l-42 -77l-124 68l42 77l17 -10l-33 -59l36 -20l27 49l17 -9l-27 -48l37 -22l33 60zM424 1110l-12 -16l-113 87l30 41q4 2 7 5t6 5q4 3 7.5 4
t7.5 2h8t8 -1q9 -2 15 -8q3 -2 5 -4.5t4 -5.5q2 -2 3.5 -5l2.5 -5q1 -5 1 -8v-6q0 -6 -2 -12l75 -2l-7 -11q-3 -4 -8 -6q-3 -1 -5 -2t-4 -1l-63 2l-13 -17zM326 1185l35 -27l19 26q2 1 2.5 3t2.5 4v8q0 2 -1 4t-2 5q-4 4 -6 5q-4 4 -8 4q-2 1 -8 1q-2 -1 -4 -1t-4 -1
q-4 -2 -6 -6zM436 1301q-4 -1 -6 -1t-4 -1t-5 -4q-4 -3 -6 -7q-3 -3 -3 -8v-7q1 -3 4 -6q3 -4 6 -5h6q3 0 9 2q3 2 5.5 2.5t6.5 2.5q2 1 3.5 2t2.5 1q2 1 8 3q4 0 7 3q1 0 2.5 0.5t3.5 0.5q20 2 32 -12q10 -6 11 -16q1 -5 1.5 -8t0.5 -8q-1 -5 -2 -9.5t-3 -8.5
q-2 -5 -5.5 -8.5t-5.5 -6.5q-13 -12 -31 -15h-6q-3 2 -6 2q-2 0 -3.5 0.5t-2.5 0.5t-1 0.5t-1 0.5l1 5q1 2 1.5 3.5t1.5 3.5q8 5 12 5h3q3 0 9 2q4 1 10 6q2 2 2.5 4t2.5 4q3 4 3 11q2 4 0 9q0 3 -1.5 5t-3.5 4q-3 5 -9 5q-5 3 -9 0q-6 0 -9 -3q-8 -2 -11 -5q-4 -1 -14 -5
q-4 -2 -8 -2t-6 -1q-10 0 -14 1q-3 2 -7 4t-6 6q-7 6 -9 14q-2 9 -1 14q2 11 5 15q2 5 8 13q6 5 11 6q4 4 10 4q10 2 12 2q7 0 10 -1l-1 -6q0 -3 -4 -9q-3 -4 -7 -4zM496 1296q-2 4 -4.5 8.5t-3.5 9.5q-5 10 -5 18q-1 5 -0.5 9.5t0.5 9.5q2 5 3.5 9.5t3.5 8.5q2 5 4.5 8
t5.5 8q6 6 15 12q8 7 17 8q9 4 19 4q9 3 19 0q5 -1 8 -2.5t8 -3.5t9 -4.5t8 -5.5t6.5 -6.5t6.5 -8.5q2 -4 4.5 -8t3.5 -9q4 -9 4 -18q2 -10 0 -19q-1 -5 -2.5 -9t-3.5 -9q-5 -10 -11 -16q-4 -3 -6.5 -6.5t-7.5 -5.5q-14 -10 -26 -11q-15 -4 -29 0q-7 1 -13 3.5t-13 5.5
q-12 8 -20 20zM513 1308q4 -10 14 -15q8 -5 19 -7q10 -3 21 0q10 2 18 8q11 6 15 15q3 5 4.5 9t3.5 9q1 11 0 22q-2 4 -3.5 8.5t-5.5 9.5q-5 9 -15 15q-10 7 -18 8q-11 2 -20 0q-11 -2 -20 -9q-9 -6 -15 -15q-3 -5 -4.5 -9.5t-3.5 -9.5q-2 -9 0 -20q2 -5 3.5 -9.5t6.5 -9.5z
M682 1330l-19 -8l-54 132l14 6q4 2 8 2q5 0 6 -2l109 -70l1 -1q1 -2 1 -3q2 0 2 -0.5t1 -0.5l-46 109l19 7l54 -131l-14 -6q-4 -1 -8 -1q-5 0 -8 1l-106 70q-2 0 -2 0.5t-2 0.5q0 2 -1 3q-1 0 -1 1v2zM811 1523l19 3l88 -127l-11 -2q-2 -1 -4 -0.5t-4 0.5q-5 1 -7 6l-14 20
l-71 -14l-5 -24q-2 -5 -5 -8q-1 -2 -3.5 -3t-4.5 -1l-11 -2zM825 1494l-14 -64l55 11l-37 53q-2 2 -2 4t-2 4v-4v-4zM919 1396l-5 143l19 1l5 -123l63 3l1 -21zM1080 1448q-2 -8 0 -15q1 -3 2.5 -6.5t3.5 -5.5q2 -3 4.5 -5.5l4.5 -4.5q4 -2 7.5 -4t7.5 -3q10 0 14 1q5 0 8 2
l6 4q6 4 10 10q2 3 3.5 6.5t3.5 7.5l14 85l20 -2l-17 -87q-1 -3 -1.5 -6.5t-2.5 -7.5l-3.5 -7t-3.5 -6q-3 -2 -6.5 -4.5t-5.5 -4.5q-5 -4 -12 -6q-4 -2 -8 -2.5t-7 -1.5q-10 0 -15 1q-5 0 -8 1.5l-7 3.5q-4 1 -6.5 3t-5.5 4q-7 5 -11 11q-2 5 -6 13q-3 7 -3 15q0 10 1 15
l14 85l20 -4zM1265 1466q-1 2 -2.5 3.5t-2.5 3.5q-2 1 -4 1.5t-4 1.5q-3 2 -9 2h-7q-3 -3 -7 -4q-3 -3 -3 -6q-3 -5 -1 -8q0 -4 2 -6q1 -2 2 -3.5t4 -3.5q3 -3 9 -7q2 -2 3 -3.5t3 -2.5t3 -2.5t3 -2.5l2.5 -2.5t3.5 -2.5l1.5 -3t2.5 -3q10 -15 4 -33q-2 -5 -4.5 -9t-4.5 -7
q-5 -3 -8.5 -5.5t-7.5 -3.5q-8 -4 -17 -4q-5 0 -9 0.5t-9 1.5q-18 8 -27 23q0 1 -1.5 2.5l-2.5 2.5q0 2 -0.5 3t-0.5 3q-1 1 -1 4v3l6 2q4 0 7 -2q6 -1 9 -7v-1l3 -4.5t3 -3.5q4 -2 6 -3.5t5 -2.5q2 0 4.5 -0.5t4.5 -0.5h6t5 1q7 2 9 5q5 5 6 9q3 6 0 10q0 2 -1 4l-2 4
q-2 2 -3.5 4t-3.5 4q-2 1 -4 2.5t-6 3.5q-2 3 -5 5.5t-5 5.5q-3 2 -5 5t-4 7q-2 2 -3.5 5t-1.5 6q-2 7 3 17q1 8 7 14q7 6 13 7q5 2 8.5 2.5t6.5 0.5q4 0 8 -1t9 -2q4 -1 9 -6q5 -4 9 -9l4 -4t3 -4q1 -3 1.5 -5t1.5 -4l-6 -3q-5 -2 -10 0q-5 4 -7 6zM1339 1300l-78 41
l64 127l78 -41l-8 -18l-60 32l-19 -37l49 -25l-10 -18l-49 26l-19 -37l61 -32zM1428 1328q7 10 16 13q3 3 7 5l8 4q5 2 9.5 2t9.5 1h9.5t9.5 -1q9 -2 18 -6q7 -3 15 -11q4 -3 8 -6.5t6 -8.5q6 -7 7 -16q4 -8 4 -18v-9.5t-1 -9.5q-2 -5 -3 -9.5t-3 -8.5q-5 -10 -11 -15
q-4 -5 -7 -8.5t-7 -6.5q-5 -2 -9 -4t-9 -3q-9 -3 -18 -3h-9.5t-9.5 1q-3 1 -7.5 2t-9.5 4q-5 2 -8.5 4.5t-8.5 4.5q-5 7 -9.5 12.5t-7.5 11.5q-2 7 -4 13.5t-3 13.5q0 16 4 28q5 15 14 24zM1444 1316q-9 -9 -12 -18q-2 -5 -2.5 -10t-0.5 -10q0 -6 1.5 -10.5t3.5 -9.5
q4 -5 6.5 -9.5t6.5 -7.5q5 -4 9.5 -6t9.5 -5q11 -3 19 -2q13 0 20 6q5 2 9.5 5t8.5 6q8 9 9 19q5 9 3 20q0 5 -1 10t-4 10q-2 5 -5 8.5t-7 7.5t-9 6.5t-10 4.5t-10 2.5t-10 0.5t-10 -2l-10 -4q-9 -5 -15 -12zM1506 1158l-12 14l114 86l11 -13q2 -4 3 -7v-8l-42 -120
q0 -1 -0.5 -1t-0.5 -1t-1 -1t-1 -1l-1 -2l95 70l12 -15l-114 -85l-9 12q-3 2 -5 7q0 5 1 7l41 122q0 1 1 1t1 1l1 1q1 2 2 3zM1576 1057l127 65l8 -16l-109 -57l29 -54l-18 -10zM1628 944l-7 18l57 22l2 1l4 2q0 2 0.5 2.5t0.5 1.5q3 0 3 2l47 73l3 -12q2 -4 2.5 -7t0.5 -5
q-1 -2 -2 -4.5t-2 -4.5l-31 -47l-2 -2l-1 -1h2q0 1 3 0l54 -16q2 -1 4.5 -2t4.5 -3q4 -2 5 -8l5 -13l-82 24q-2 0 -3 1h-4h-4q-3 0 -4 -1z" />
    <glyph glyph-name="four" unicode="4" horiz-adv-x="1995" 
d="M1335 326q-72 -60 -161 -96t-190 -36t-188.5 36t-159.5 96h699zM595 366q-62 70 -96 159t-34 190q0 96 30 178.5t87 151.5h690zM634 1103q71 63 160 98.5t190 35.5t189.5 -36t155.5 -98h-695zM1503 715q0 -96 -30.5 -179.5t-85.5 -153.5h-693l677 684q66 -82 99 -168.5
t33 -182.5zM1152 110q-41 -11 -82 -17t-86 -6q-89 0 -170.5 23t-151.5 65t-126.5 100t-96.5 127.5t-62 149t-22 163.5q0 89 23 171t65 152t100 127t128 97t149.5 62t163.5 22q136 0 251 -52t199 -139.5t131 -201.5t47 -238q0 -113 -36 -211t-98 -176t-146 -133.5t-180 -84.5
zM1136 1272q-34 11 -72 16.5t-80 5.5q-83 0 -158 -21.5t-139 -60t-115.5 -92.5t-88 -118t-56 -137t-19.5 -150q0 -78 20 -151t57 -137.5t89 -118t116 -92t138.5 -60t155.5 -21.5q119 0 224.5 45.5t184 124t124 184t45.5 226.5q0 106 -34 197.5t-92 163.5t-135.5 122
t-164.5 74zM295 318l32 -54l-28 -17l-57 96l13 7q9 6 16 4l99 -10l-31 53l28 16l55 -95l-13 -7q-6 -2 -7 -2q-3 -2 -8 -2zM382 144l-61 73l109 92l62 -74l-25 -20l-41 46l-15 -14l31 -36l-25 -22l-31 37l-19 -14l39 -46zM477 201l22 25l86 -73l-20 -24l-31 26l-71 -85
l-25 22l70 83zM617 135l23 -16l-19 -152l-21 11q-1 3 -4 4q-3 3 -3 5q-2 4 -2 6v6l2 17l-47 28l-14 -10q-1 -1 -2.5 -1t-2.5 -1h-6q-2 -1 -3.5 -0.5t-2.5 0.5q-2 1 -4 1t-3 1l-18 11zM604 87l-2 -2q-4 -2 -3 -2l-1 -2q0 -1 -1 -1l-21 -15l22 -14l2 27q0 1 1 1.5t1 1.5
q0 2 0.5 2t0.5 1t0.5 1.5t0.5 1.5zM751 8l-13 -31l-47 19l-18 -49l-33 13l53 131l87 -34l-10 -30l-58 21l-8 -21zM762 -13q1 8 6 19q6 6 11 14q3 4 6.5 7t6.5 6q5 3 9 4.5t9 3.5q4 2 9 2.5t10 1.5h9.5t9.5 -2t9.5 -3t8.5 -3q10 -5 16 -10l7 -7t5 -7q7 -8 8 -18q2 -5 3 -9
t2 -9v-9.5t-1 -9.5q-1 -10 -7 -19q-3 -4 -5.5 -7.5t-5.5 -7.5q-4 -7 -13 -12q-5 -2 -9 -4t-9 -4t-9 -3t-9 -1h-9.5t-11.5 2q-5 1 -8.5 2t-8.5 3q-4 2 -8 4.5t-8 6.5q-4 3 -6.5 7t-5.5 7q-2 4 -4.5 8t-4.5 8q-2 12 -4 19v10t2 10zM796 -20q-1 -9 0 -16q1 -3 2 -6.5t3 -7.5
q4 -6 10 -11q3 -2 7 -3t9 -2q6 -3 14 0q9 1 14 4q7 6 11 12q2 4 4 7.5t3 6.5q2 8 0 17q-1 5 -7 13q-2 4 -4.5 6.5l-5.5 5.5q-4 2 -7 3t-8 3q-8 2 -14 0q-5 -2 -8.5 -3t-7.5 -3q-2 -2 -4.5 -5t-4.5 -7q-4 -4 -6 -14zM1047 -113l-30 -1l-65 95l1 -95l-34 -1l-2 143h15h13
q7 0 9 -1q4 -3 5 -5l50 -71q1 -1 1 -2t1 -2q0 -2 1 -2.5t1 -1.5q0 -4 1 -5l-3 91h35zM1063 -2l-6 33l112 20l6 -31l-39 -8l21 -107l-33 -6l-20 107zM1232 41q-4 0 -6 -2q-3 0 -3 -2l-2 -4q0 -1 1 -2q0 -3 3 -4q1 0 1.5 -1t2.5 -1h10h10h9t9 -1q4 -2 6.5 -2.5t6.5 -2.5
q7 -5 12 -9t7 -14q4 -9 3 -18q0 -6 -2 -9.5t-4 -8.5q-2 -4 -4.5 -7.5t-7.5 -8.5q-5 -2 -9 -4.5t-9 -4.5l-8 -2t-9 -1q-6 -2 -15 2q-8 1 -15 5q-3 2 -6 4.5t-5 6.5l7 10q2 2 4 3q3 3 4 3q3 1 10 1q2 0 3.5 -0.5t3.5 -0.5t3.5 -1t3.5 -1q5 0 7 2q3 0 4 0.5l3 1.5l5 5q2 2 2 7
v6l-3 3q-1 1 -5 1q-2 2 -4 2h-4h-10h-7t-8 1q-6 0 -14 2q-4 2 -7.5 4t-5.5 4q-5 5 -10 15q-2 5 -2 9.5v7.5q1 5 2 8.5t4 7.5q2 5 4.5 7.5t6.5 5.5q7 5 15 8q2 1 5 2t8 1q2 0 5 -1t7 -1q2 -1 5 -1.5t8 -2.5q2 -2 4.5 -2.5t4.5 -2.5l-6 -11q-1 -3 -3 -7q-3 -1 -5 -1.5t-4 -0.5
q-1 -1 -4 -1h-5h-5q-2 0 -3 -2zM1322 -20q0 2 -1 3.5t-1 3.5q0 5 2 7q0 2 3 7q1 3 6 5q3 1 4.5 1t3.5 1q2 0 3.5 -0.5t3.5 -0.5q5 -2 6 -4q3 -1 5 -7q4 -4 4 -7q0 -5 -2 -7t-2.5 -3.5t-1.5 -2.5q-1 -2 -2.5 -3t-3.5 -3q-6 -2 -7 -2q-5 0 -7 1q-5 0 -9 4q-3 2 -4 7zM1374 66
q2 -6 11 -11q3 -3 6.5 -4t7.5 -3q6 -2 15 0q4 0 7 2t7 4q3 2 5 4.5t5 4.5l6 9q2 7 7 11q2 2 4 2t4 1h8l12 -2q-1 -5 -2 -9.5t-3 -8.5q-1 -5 -6 -15q-3 -8 -10 -13q-7 -7 -11 -10q-5 -3 -9.5 -5.5t-9.5 -3.5q-8 -4 -18 -4q-5 -1 -9.5 -0.5t-9.5 1.5q-3 2 -7.5 2.5t-9.5 2.5
q-4 3 -8 5.5t-7 6.5q-4 3 -7.5 6t-6.5 7q-2 5 -4 9.5t-4 9.5q-1 4 -1.5 8.5t-2.5 9.5v9t2 9q1 9 5 18q3 4 5 8t6 8q3 4 7 7t9 6q7 4 13 7q4 2 7.5 2.5t8.5 2.5h17q5 0 9 -1t7 -2l-1 -13q-2 -4 -3 -7l-3 -3l-3 -3q-8 -4 -13 -4q-7 0 -11 -2q-5 -1 -12 -4q-7 -4 -10 -11
q-5 -8 -5 -14q-2 -8 0 -16q2 -10 6 -14zM1459 122q-4 4 -6.5 7.5t-5.5 8.5q-2 5 -3.5 9t-2.5 9q-2 5 -2 9v9t0.5 9.5t1.5 9.5t3 9t4 9q3 3 5.5 7t6.5 7q4 4 8 7l8 6q4 2 8 3.5t9 2.5q5 2 9 2h9h9.5t9.5 -2q5 -1 9.5 -2.5t8.5 -3.5q5 -3 8 -6t8 -7q3 -4 5.5 -7.5t5.5 -8.5
q2 -4 3.5 -8t3.5 -9q1 -5 1 -9.5v-9.5q0 -7 -2 -17q-1 -5 -3 -9.5t-4 -8.5q-4 -8 -12 -16q-4 -4 -7.5 -6.5t-7.5 -4.5q-5 -2 -9 -4t-9 -3q-9 -3 -19 -3q-9 0 -18 3q-5 1 -9 3t-9 4q-3 2 -7 5zM1483 146q3 -3 6.5 -5t7.5 -4q6 -2 14 -2q11 0 15 2q4 1 7 3.5t6 5.5q8 6 9 12
q3 7 3 15q0 7 -3 15q-1 7 -9 13q-6 7 -13 10q-6 3 -15 3q-4 0 -7 -0.5t-7 -1.5q-4 -2 -7.5 -4t-6.5 -6q-5 -4 -9 -13q-2 -3 -2 -7v-8q0 -10 2 -14t4 -7.5t5 -6.5zM1714 322l-18 -29l-58 37l41 -61l-15 -24l-71 13l55 -37l-19 -28l-119 78l13 19q3 5 9 8q3 1 6.5 1h5.5
l84 -13l-47 70q-2 4 -3 6.5t-1 5.5q0 4 1 6.5t3 5.5l13 19zM332 929l-7 -19l-133 50l18 47q3 10 8 15q7 9 15 11q4 2 7.5 3t8.5 1t9 -0.5t9 -1.5q9 -4 14 -11q5 -2 6.5 -5.5t3.5 -7.5t3 -8.5t2 -7.5q0 -9 -3 -18l-10 -30zM275 984q0 2 0.5 4.5t0.5 4.5q0 3 -0.5 5t-1.5 5
q-1 2 -2.5 4t-3.5 4q-3 3 -7 5q-3 1 -6 1h-5q-3 0 -5 -0.5t-4 -1.5q-2 -2 -4 -2.5t-4 -2.5q-4 -6 -5 -9l-11 -30l47 -17zM404 1084l-42 -77l-124 68l42 77l17 -10l-33 -59l36 -20l27 49l17 -9l-27 -48l37 -22l33 60zM424 1110l-12 -16l-113 87l30 41q4 2 7 5t6 5q4 3 7.5 4
t7.5 2h8t8 -1q9 -2 15 -8q3 -2 5 -4.5t4 -5.5q2 -2 3.5 -5l2.5 -5q1 -5 1 -8v-6q0 -6 -2 -12l75 -2l-7 -11q-3 -4 -8 -6q-3 -1 -5 -2t-4 -1l-63 2l-13 -17zM326 1185l35 -27l19 26q2 1 2.5 3t2.5 4v8q0 2 -1 4t-2 5q-4 4 -6 5q-4 4 -8 4q-2 1 -8 1q-2 -1 -4 -1t-4 -1
q-4 -2 -6 -6zM436 1301q-4 -1 -6 -1t-4 -1t-5 -4q-4 -3 -6 -7q-3 -3 -3 -8v-7q1 -3 4 -6q3 -4 6 -5h6q3 0 9 2q3 2 5.5 2.5t6.5 2.5q2 1 3.5 2t2.5 1q2 1 8 3q4 0 7 3q1 0 2.5 0.5t3.5 0.5q20 2 32 -12q10 -6 11 -16q1 -5 1.5 -8t0.5 -8q-1 -5 -2 -9.5t-3 -8.5
q-2 -5 -5.5 -8.5t-5.5 -6.5q-13 -12 -31 -15h-6q-3 2 -6 2q-2 0 -3.5 0.5t-2.5 0.5t-1 0.5t-1 0.5l1 5q1 2 1.5 3.5t1.5 3.5q8 5 12 5h3q3 0 9 2q4 1 10 6q2 2 2.5 4t2.5 4q3 4 3 11q2 4 0 9q0 3 -1.5 5t-3.5 4q-3 5 -9 5q-5 3 -9 0q-6 0 -9 -3q-8 -2 -11 -5q-4 -1 -14 -5
q-4 -2 -8 -2t-6 -1q-10 0 -14 1q-3 2 -7 4t-6 6q-7 6 -9 14q-2 9 -1 14q2 11 5 15q2 5 8 13q6 5 11 6q4 4 10 4q10 2 12 2q7 0 10 -1l-1 -6q0 -3 -4 -9q-3 -4 -7 -4zM496 1296q-2 4 -4.5 8.5t-3.5 9.5q-5 10 -5 18q-1 5 -0.5 9.5t0.5 9.5q2 5 3.5 9.5t3.5 8.5q2 5 4.5 8
t5.5 8q6 6 15 12q8 7 17 8q9 4 19 4q9 3 19 0q5 -1 8 -2.5t8 -3.5t9 -4.5t8 -5.5t6.5 -6.5t6.5 -8.5q2 -4 4.5 -8t3.5 -9q4 -9 4 -18q2 -10 0 -19q-1 -5 -2.5 -9t-3.5 -9q-5 -10 -11 -16q-4 -3 -6.5 -6.5t-7.5 -5.5q-14 -10 -26 -11q-15 -4 -29 0q-7 1 -13 3.5t-13 5.5
q-12 8 -20 20zM513 1308q4 -10 14 -15q8 -5 19 -7q10 -3 21 0q10 2 18 8q11 6 15 15q3 5 4.5 9t3.5 9q1 11 0 22q-2 4 -3.5 8.5t-5.5 9.5q-5 9 -15 15q-10 7 -18 8q-11 2 -20 0q-11 -2 -20 -9q-9 -6 -15 -15q-3 -5 -4.5 -9.5t-3.5 -9.5q-2 -9 0 -20q2 -5 3.5 -9.5t6.5 -9.5z
M682 1330l-19 -8l-54 132l14 6q4 2 8 2q5 0 6 -2l109 -70l1 -1q1 -2 1 -3q2 0 2 -0.5t1 -0.5l-46 109l19 7l54 -131l-14 -6q-4 -1 -8 -1q-5 0 -8 1l-106 70q-2 0 -2 0.5t-2 0.5q0 2 -1 3q-1 0 -1 1v2zM811 1523l19 3l88 -127l-11 -2q-2 -1 -4 -0.5t-4 0.5q-5 1 -7 6l-14 20
l-71 -14l-5 -24q-2 -5 -5 -8q-1 -2 -3.5 -3t-4.5 -1l-11 -2zM825 1494l-14 -64l55 11l-37 53q-2 2 -2 4t-2 4v-4v-4zM919 1396l-5 143l19 1l5 -123l63 3l1 -21zM1080 1448q-2 -8 0 -15q1 -3 2.5 -6.5t3.5 -5.5q2 -3 4.5 -5.5l4.5 -4.5q4 -2 7.5 -4t7.5 -3q10 0 14 1q5 0 8 2
l6 4q6 4 10 10q2 3 3.5 6.5t3.5 7.5l14 85l20 -2l-17 -87q-1 -3 -1.5 -6.5t-2.5 -7.5l-3.5 -7t-3.5 -6q-3 -2 -6.5 -4.5t-5.5 -4.5q-5 -4 -12 -6q-4 -2 -8 -2.5t-7 -1.5q-10 0 -15 1q-5 0 -8 1.5l-7 3.5q-4 1 -6.5 3t-5.5 4q-7 5 -11 11q-2 5 -6 13q-3 7 -3 15q0 10 1 15
l14 85l20 -4zM1265 1466q-1 2 -2.5 3.5t-2.5 3.5q-2 1 -4 1.5t-4 1.5q-3 2 -9 2h-7q-3 -3 -7 -4q-3 -3 -3 -6q-3 -5 -1 -8q0 -4 2 -6q1 -2 2 -3.5t4 -3.5q3 -3 9 -7q2 -2 3 -3.5t3 -2.5t3 -2.5t3 -2.5l2.5 -2.5t3.5 -2.5l1.5 -3t2.5 -3q10 -15 4 -33q-2 -5 -4.5 -9t-4.5 -7
q-5 -3 -8.5 -5.5t-7.5 -3.5q-8 -4 -17 -4q-5 0 -9 0.5t-9 1.5q-18 8 -27 23q0 1 -1.5 2.5l-2.5 2.5q0 2 -0.5 3t-0.5 3q-1 1 -1 4v3l6 2q4 0 7 -2q6 -1 9 -7v-1l3 -4.5t3 -3.5q4 -2 6 -3.5t5 -2.5q2 0 4.5 -0.5t4.5 -0.5h6t5 1q7 2 9 5q5 5 6 9q3 6 0 10q0 2 -1 4l-2 4
q-2 2 -3.5 4t-3.5 4q-2 1 -4 2.5t-6 3.5q-2 3 -5 5.5t-5 5.5q-3 2 -5 5t-4 7q-2 2 -3.5 5t-1.5 6q-2 7 3 17q1 8 7 14q7 6 13 7q5 2 8.5 2.5t6.5 0.5q4 0 8 -1t9 -2q4 -1 9 -6q5 -4 9 -9l4 -4t3 -4q1 -3 1.5 -5t1.5 -4l-6 -3q-5 -2 -10 0q-5 4 -7 6zM1339 1300l-78 41
l64 127l78 -41l-8 -18l-60 32l-19 -37l49 -25l-10 -18l-49 26l-19 -37l61 -32zM1428 1328q7 10 16 13q3 3 7 5l8 4q5 2 9.5 2t9.5 1h9.5t9.5 -1q9 -2 18 -6q7 -3 15 -11q4 -3 8 -6.5t6 -8.5q6 -7 7 -16q4 -8 4 -18v-9.5t-1 -9.5q-2 -5 -3 -9.5t-3 -8.5q-5 -10 -11 -15
q-4 -5 -7 -8.5t-7 -6.5q-5 -2 -9 -4t-9 -3q-9 -3 -18 -3h-9.5t-9.5 1q-3 1 -7.5 2t-9.5 4q-5 2 -8.5 4.5t-8.5 4.5q-5 7 -9.5 12.5t-7.5 11.5q-2 7 -4 13.5t-3 13.5q0 16 4 28q5 15 14 24zM1444 1316q-9 -9 -12 -18q-2 -5 -2.5 -10t-0.5 -10q0 -6 1.5 -10.5t3.5 -9.5
q4 -5 6.5 -9.5t6.5 -7.5q5 -4 9.5 -6t9.5 -5q11 -3 19 -2q13 0 20 6q5 2 9.5 5t8.5 6q8 9 9 19q5 9 3 20q0 5 -1 10t-4 10q-2 5 -5 8.5t-7 7.5t-9 6.5t-10 4.5t-10 2.5t-10 0.5t-10 -2l-10 -4q-9 -5 -15 -12zM1506 1158l-12 14l114 86l11 -13q2 -4 3 -7v-8l-42 -120
q0 -1 -0.5 -1t-0.5 -1t-1 -1t-1 -1l-1 -2l95 70l12 -15l-114 -85l-9 12q-3 2 -5 7q0 5 1 7l41 122q0 1 1 1t1 1l1 1q1 2 2 3zM1576 1057l127 65l8 -16l-109 -57l29 -54l-18 -10zM1628 944l-7 18l57 22l2 1l4 2q0 2 0.5 2.5t0.5 1.5q3 0 3 2l47 73l3 -12q2 -4 2.5 -7t0.5 -5
q-1 -2 -2 -4.5t-2 -4.5l-31 -47l-2 -2l-1 -1h2q0 1 3 0l54 -16q2 -1 4.5 -2t4.5 -3q4 -2 5 -8l5 -13l-82 24q-2 0 -3 1h-4h-4q-3 0 -4 -1z" />
    <glyph glyph-name="five" unicode="5" horiz-adv-x="1995" 
d="M1335 326q-72 -60 -161 -96t-190 -36t-188.5 36t-159.5 96h699zM595 366q-62 70 -96 159t-34 190q0 96 30 178.5t87 151.5h690zM634 1103q71 63 160 98.5t190 35.5t189.5 -36t155.5 -98h-695zM1503 715q0 -96 -30.5 -179.5t-85.5 -153.5h-693l677 684q66 -82 99 -168.5
t33 -182.5zM1152 110q-41 -11 -82 -17t-86 -6q-89 0 -170.5 23t-151.5 65t-126.5 100t-96.5 127.5t-62 149t-22 163.5q0 89 23 171t65 152t100 127t128 97t149.5 62t163.5 22q136 0 251 -52t199 -139.5t131 -201.5t47 -238q0 -113 -36 -211t-98 -176t-146 -133.5t-180 -84.5
zM1136 1272q-34 11 -72 16.5t-80 5.5q-83 0 -158 -21.5t-139 -60t-115.5 -92.5t-88 -118t-56 -137t-19.5 -150q0 -78 20 -151t57 -137.5t89 -118t116 -92t138.5 -60t155.5 -21.5q119 0 224.5 45.5t184 124t124 184t45.5 226.5q0 106 -34 197.5t-92 163.5t-135.5 122
t-164.5 74zM295 318l32 -54l-28 -17l-57 96l13 7q9 6 16 4l99 -10l-31 53l28 16l55 -95l-13 -7q-6 -2 -7 -2q-3 -2 -8 -2zM382 144l-61 73l109 92l62 -74l-25 -20l-41 46l-15 -14l31 -36l-25 -22l-31 37l-19 -14l39 -46zM477 201l22 25l86 -73l-20 -24l-31 26l-71 -85
l-25 22l70 83zM617 135l23 -16l-19 -152l-21 11q-1 3 -4 4q-3 3 -3 5q-2 4 -2 6v6l2 17l-47 28l-14 -10q-1 -1 -2.5 -1t-2.5 -1h-6q-2 -1 -3.5 -0.5t-2.5 0.5q-2 1 -4 1t-3 1l-18 11zM604 87l-2 -2q-4 -2 -3 -2l-1 -2q0 -1 -1 -1l-21 -15l22 -14l2 27q0 1 1 1.5t1 1.5
q0 2 0.5 2t0.5 1t0.5 1.5t0.5 1.5zM751 8l-13 -31l-47 19l-18 -49l-33 13l53 131l87 -34l-10 -30l-58 21l-8 -21zM762 -13q1 8 6 19q6 6 11 14q3 4 6.5 7t6.5 6q5 3 9 4.5t9 3.5q4 2 9 2.5t10 1.5h9.5t9.5 -2t9.5 -3t8.5 -3q10 -5 16 -10l7 -7t5 -7q7 -8 8 -18q2 -5 3 -9
t2 -9v-9.5t-1 -9.5q-1 -10 -7 -19q-3 -4 -5.5 -7.5t-5.5 -7.5q-4 -7 -13 -12q-5 -2 -9 -4t-9 -4t-9 -3t-9 -1h-9.5t-11.5 2q-5 1 -8.5 2t-8.5 3q-4 2 -8 4.5t-8 6.5q-4 3 -6.5 7t-5.5 7q-2 4 -4.5 8t-4.5 8q-2 12 -4 19v10t2 10zM796 -20q-1 -9 0 -16q1 -3 2 -6.5t3 -7.5
q4 -6 10 -11q3 -2 7 -3t9 -2q6 -3 14 0q9 1 14 4q7 6 11 12q2 4 4 7.5t3 6.5q2 8 0 17q-1 5 -7 13q-2 4 -4.5 6.5l-5.5 5.5q-4 2 -7 3t-8 3q-8 2 -14 0q-5 -2 -8.5 -3t-7.5 -3q-2 -2 -4.5 -5t-4.5 -7q-4 -4 -6 -14zM1047 -113l-30 -1l-65 95l1 -95l-34 -1l-2 143h15h13
q7 0 9 -1q4 -3 5 -5l50 -71q1 -1 1 -2t1 -2q0 -2 1 -2.5t1 -1.5q0 -4 1 -5l-3 91h35zM1063 -2l-6 33l112 20l6 -31l-39 -8l21 -107l-33 -6l-20 107zM1232 41q-4 0 -6 -2q-3 0 -3 -2l-2 -4q0 -1 1 -2q0 -3 3 -4q1 0 1.5 -1t2.5 -1h10h10h9t9 -1q4 -2 6.5 -2.5t6.5 -2.5
q7 -5 12 -9t7 -14q4 -9 3 -18q0 -6 -2 -9.5t-4 -8.5q-2 -4 -4.5 -7.5t-7.5 -8.5q-5 -2 -9 -4.5t-9 -4.5l-8 -2t-9 -1q-6 -2 -15 2q-8 1 -15 5q-3 2 -6 4.5t-5 6.5l7 10q2 2 4 3q3 3 4 3q3 1 10 1q2 0 3.5 -0.5t3.5 -0.5t3.5 -1t3.5 -1q5 0 7 2q3 0 4 0.5l3 1.5l5 5q2 2 2 7
v6l-3 3q-1 1 -5 1q-2 2 -4 2h-4h-10h-7t-8 1q-6 0 -14 2q-4 2 -7.5 4t-5.5 4q-5 5 -10 15q-2 5 -2 9.5v7.5q1 5 2 8.5t4 7.5q2 5 4.5 7.5t6.5 5.5q7 5 15 8q2 1 5 2t8 1q2 0 5 -1t7 -1q2 -1 5 -1.5t8 -2.5q2 -2 4.5 -2.5t4.5 -2.5l-6 -11q-1 -3 -3 -7q-3 -1 -5 -1.5t-4 -0.5
q-1 -1 -4 -1h-5h-5q-2 0 -3 -2zM1322 -20q0 2 -1 3.5t-1 3.5q0 5 2 7q0 2 3 7q1 3 6 5q3 1 4.5 1t3.5 1q2 0 3.5 -0.5t3.5 -0.5q5 -2 6 -4q3 -1 5 -7q4 -4 4 -7q0 -5 -2 -7t-2.5 -3.5t-1.5 -2.5q-1 -2 -2.5 -3t-3.5 -3q-6 -2 -7 -2q-5 0 -7 1q-5 0 -9 4q-3 2 -4 7zM1374 66
q2 -6 11 -11q3 -3 6.5 -4t7.5 -3q6 -2 15 0q4 0 7 2t7 4q3 2 5 4.5t5 4.5l6 9q2 7 7 11q2 2 4 2t4 1h8l12 -2q-1 -5 -2 -9.5t-3 -8.5q-1 -5 -6 -15q-3 -8 -10 -13q-7 -7 -11 -10q-5 -3 -9.5 -5.5t-9.5 -3.5q-8 -4 -18 -4q-5 -1 -9.5 -0.5t-9.5 1.5q-3 2 -7.5 2.5t-9.5 2.5
q-4 3 -8 5.5t-7 6.5q-4 3 -7.5 6t-6.5 7q-2 5 -4 9.5t-4 9.5q-1 4 -1.5 8.5t-2.5 9.5v9t2 9q1 9 5 18q3 4 5 8t6 8q3 4 7 7t9 6q7 4 13 7q4 2 7.5 2.5t8.5 2.5h17q5 0 9 -1t7 -2l-1 -13q-2 -4 -3 -7l-3 -3l-3 -3q-8 -4 -13 -4q-7 0 -11 -2q-5 -1 -12 -4q-7 -4 -10 -11
q-5 -8 -5 -14q-2 -8 0 -16q2 -10 6 -14zM1459 122q-4 4 -6.5 7.5t-5.5 8.5q-2 5 -3.5 9t-2.5 9q-2 5 -2 9v9t0.5 9.5t1.5 9.5t3 9t4 9q3 3 5.5 7t6.5 7q4 4 8 7l8 6q4 2 8 3.5t9 2.5q5 2 9 2h9h9.5t9.5 -2q5 -1 9.5 -2.5t8.5 -3.5q5 -3 8 -6t8 -7q3 -4 5.5 -7.5t5.5 -8.5
q2 -4 3.5 -8t3.5 -9q1 -5 1 -9.5v-9.5q0 -7 -2 -17q-1 -5 -3 -9.5t-4 -8.5q-4 -8 -12 -16q-4 -4 -7.5 -6.5t-7.5 -4.5q-5 -2 -9 -4t-9 -3q-9 -3 -19 -3q-9 0 -18 3q-5 1 -9 3t-9 4q-3 2 -7 5zM1483 146q3 -3 6.5 -5t7.5 -4q6 -2 14 -2q11 0 15 2q4 1 7 3.5t6 5.5q8 6 9 12
q3 7 3 15q0 7 -3 15q-1 7 -9 13q-6 7 -13 10q-6 3 -15 3q-4 0 -7 -0.5t-7 -1.5q-4 -2 -7.5 -4t-6.5 -6q-5 -4 -9 -13q-2 -3 -2 -7v-8q0 -10 2 -14t4 -7.5t5 -6.5zM1714 322l-18 -29l-58 37l41 -61l-15 -24l-71 13l55 -37l-19 -28l-119 78l13 19q3 5 9 8q3 1 6.5 1h5.5
l84 -13l-47 70q-2 4 -3 6.5t-1 5.5q0 4 1 6.5t3 5.5l13 19zM332 929l-7 -19l-133 50l18 47q3 10 8 15q7 9 15 11q4 2 7.5 3t8.5 1t9 -0.5t9 -1.5q9 -4 14 -11q5 -2 6.5 -5.5t3.5 -7.5t3 -8.5t2 -7.5q0 -9 -3 -18l-10 -30zM275 984q0 2 0.5 4.5t0.5 4.5q0 3 -0.5 5t-1.5 5
q-1 2 -2.5 4t-3.5 4q-3 3 -7 5q-3 1 -6 1h-5q-3 0 -5 -0.5t-4 -1.5q-2 -2 -4 -2.5t-4 -2.5q-4 -6 -5 -9l-11 -30l47 -17zM404 1084l-42 -77l-124 68l42 77l17 -10l-33 -59l36 -20l27 49l17 -9l-27 -48l37 -22l33 60zM424 1110l-12 -16l-113 87l30 41q4 2 7 5t6 5q4 3 7.5 4
t7.5 2h8t8 -1q9 -2 15 -8q3 -2 5 -4.5t4 -5.5q2 -2 3.5 -5l2.5 -5q1 -5 1 -8v-6q0 -6 -2 -12l75 -2l-7 -11q-3 -4 -8 -6q-3 -1 -5 -2t-4 -1l-63 2l-13 -17zM326 1185l35 -27l19 26q2 1 2.5 3t2.5 4v8q0 2 -1 4t-2 5q-4 4 -6 5q-4 4 -8 4q-2 1 -8 1q-2 -1 -4 -1t-4 -1
q-4 -2 -6 -6zM436 1301q-4 -1 -6 -1t-4 -1t-5 -4q-4 -3 -6 -7q-3 -3 -3 -8v-7q1 -3 4 -6q3 -4 6 -5h6q3 0 9 2q3 2 5.5 2.5t6.5 2.5q2 1 3.5 2t2.5 1q2 1 8 3q4 0 7 3q1 0 2.5 0.5t3.5 0.5q20 2 32 -12q10 -6 11 -16q1 -5 1.5 -8t0.5 -8q-1 -5 -2 -9.5t-3 -8.5
q-2 -5 -5.5 -8.5t-5.5 -6.5q-13 -12 -31 -15h-6q-3 2 -6 2q-2 0 -3.5 0.5t-2.5 0.5t-1 0.5t-1 0.5l1 5q1 2 1.5 3.5t1.5 3.5q8 5 12 5h3q3 0 9 2q4 1 10 6q2 2 2.5 4t2.5 4q3 4 3 11q2 4 0 9q0 3 -1.5 5t-3.5 4q-3 5 -9 5q-5 3 -9 0q-6 0 -9 -3q-8 -2 -11 -5q-4 -1 -14 -5
q-4 -2 -8 -2t-6 -1q-10 0 -14 1q-3 2 -7 4t-6 6q-7 6 -9 14q-2 9 -1 14q2 11 5 15q2 5 8 13q6 5 11 6q4 4 10 4q10 2 12 2q7 0 10 -1l-1 -6q0 -3 -4 -9q-3 -4 -7 -4zM496 1296q-2 4 -4.5 8.5t-3.5 9.5q-5 10 -5 18q-1 5 -0.5 9.5t0.5 9.5q2 5 3.5 9.5t3.5 8.5q2 5 4.5 8
t5.5 8q6 6 15 12q8 7 17 8q9 4 19 4q9 3 19 0q5 -1 8 -2.5t8 -3.5t9 -4.5t8 -5.5t6.5 -6.5t6.5 -8.5q2 -4 4.5 -8t3.5 -9q4 -9 4 -18q2 -10 0 -19q-1 -5 -2.5 -9t-3.5 -9q-5 -10 -11 -16q-4 -3 -6.5 -6.5t-7.5 -5.5q-14 -10 -26 -11q-15 -4 -29 0q-7 1 -13 3.5t-13 5.5
q-12 8 -20 20zM513 1308q4 -10 14 -15q8 -5 19 -7q10 -3 21 0q10 2 18 8q11 6 15 15q3 5 4.5 9t3.5 9q1 11 0 22q-2 4 -3.5 8.5t-5.5 9.5q-5 9 -15 15q-10 7 -18 8q-11 2 -20 0q-11 -2 -20 -9q-9 -6 -15 -15q-3 -5 -4.5 -9.5t-3.5 -9.5q-2 -9 0 -20q2 -5 3.5 -9.5t6.5 -9.5z
M682 1330l-19 -8l-54 132l14 6q4 2 8 2q5 0 6 -2l109 -70l1 -1q1 -2 1 -3q2 0 2 -0.5t1 -0.5l-46 109l19 7l54 -131l-14 -6q-4 -1 -8 -1q-5 0 -8 1l-106 70q-2 0 -2 0.5t-2 0.5q0 2 -1 3q-1 0 -1 1v2zM811 1523l19 3l88 -127l-11 -2q-2 -1 -4 -0.5t-4 0.5q-5 1 -7 6l-14 20
l-71 -14l-5 -24q-2 -5 -5 -8q-1 -2 -3.5 -3t-4.5 -1l-11 -2zM825 1494l-14 -64l55 11l-37 53q-2 2 -2 4t-2 4v-4v-4zM919 1396l-5 143l19 1l5 -123l63 3l1 -21zM1080 1448q-2 -8 0 -15q1 -3 2.5 -6.5t3.5 -5.5q2 -3 4.5 -5.5l4.5 -4.5q4 -2 7.5 -4t7.5 -3q10 0 14 1q5 0 8 2
l6 4q6 4 10 10q2 3 3.5 6.5t3.5 7.5l14 85l20 -2l-17 -87q-1 -3 -1.5 -6.5t-2.5 -7.5l-3.5 -7t-3.5 -6q-3 -2 -6.5 -4.5t-5.5 -4.5q-5 -4 -12 -6q-4 -2 -8 -2.5t-7 -1.5q-10 0 -15 1q-5 0 -8 1.5l-7 3.5q-4 1 -6.5 3t-5.5 4q-7 5 -11 11q-2 5 -6 13q-3 7 -3 15q0 10 1 15
l14 85l20 -4zM1265 1466q-1 2 -2.5 3.5t-2.5 3.5q-2 1 -4 1.5t-4 1.5q-3 2 -9 2h-7q-3 -3 -7 -4q-3 -3 -3 -6q-3 -5 -1 -8q0 -4 2 -6q1 -2 2 -3.5t4 -3.5q3 -3 9 -7q2 -2 3 -3.5t3 -2.5t3 -2.5t3 -2.5l2.5 -2.5t3.5 -2.5l1.5 -3t2.5 -3q10 -15 4 -33q-2 -5 -4.5 -9t-4.5 -7
q-5 -3 -8.5 -5.5t-7.5 -3.5q-8 -4 -17 -4q-5 0 -9 0.5t-9 1.5q-18 8 -27 23q0 1 -1.5 2.5l-2.5 2.5q0 2 -0.5 3t-0.5 3q-1 1 -1 4v3l6 2q4 0 7 -2q6 -1 9 -7v-1l3 -4.5t3 -3.5q4 -2 6 -3.5t5 -2.5q2 0 4.5 -0.5t4.5 -0.5h6t5 1q7 2 9 5q5 5 6 9q3 6 0 10q0 2 -1 4l-2 4
q-2 2 -3.5 4t-3.5 4q-2 1 -4 2.5t-6 3.5q-2 3 -5 5.5t-5 5.5q-3 2 -5 5t-4 7q-2 2 -3.5 5t-1.5 6q-2 7 3 17q1 8 7 14q7 6 13 7q5 2 8.5 2.5t6.5 0.5q4 0 8 -1t9 -2q4 -1 9 -6q5 -4 9 -9l4 -4t3 -4q1 -3 1.5 -5t1.5 -4l-6 -3q-5 -2 -10 0q-5 4 -7 6zM1339 1300l-78 41
l64 127l78 -41l-8 -18l-60 32l-19 -37l49 -25l-10 -18l-49 26l-19 -37l61 -32zM1428 1328q7 10 16 13q3 3 7 5l8 4q5 2 9.5 2t9.5 1h9.5t9.5 -1q9 -2 18 -6q7 -3 15 -11q4 -3 8 -6.5t6 -8.5q6 -7 7 -16q4 -8 4 -18v-9.5t-1 -9.5q-2 -5 -3 -9.5t-3 -8.5q-5 -10 -11 -15
q-4 -5 -7 -8.5t-7 -6.5q-5 -2 -9 -4t-9 -3q-9 -3 -18 -3h-9.5t-9.5 1q-3 1 -7.5 2t-9.5 4q-5 2 -8.5 4.5t-8.5 4.5q-5 7 -9.5 12.5t-7.5 11.5q-2 7 -4 13.5t-3 13.5q0 16 4 28q5 15 14 24zM1444 1316q-9 -9 -12 -18q-2 -5 -2.5 -10t-0.5 -10q0 -6 1.5 -10.5t3.5 -9.5
q4 -5 6.5 -9.5t6.5 -7.5q5 -4 9.5 -6t9.5 -5q11 -3 19 -2q13 0 20 6q5 2 9.5 5t8.5 6q8 9 9 19q5 9 3 20q0 5 -1 10t-4 10q-2 5 -5 8.5t-7 7.5t-9 6.5t-10 4.5t-10 2.5t-10 0.5t-10 -2l-10 -4q-9 -5 -15 -12zM1506 1158l-12 14l114 86l11 -13q2 -4 3 -7v-8l-42 -120
q0 -1 -0.5 -1t-0.5 -1t-1 -1t-1 -1l-1 -2l95 70l12 -15l-114 -85l-9 12q-3 2 -5 7q0 5 1 7l41 122q0 1 1 1t1 1l1 1q1 2 2 3zM1576 1057l127 65l8 -16l-109 -57l29 -54l-18 -10zM1628 944l-7 18l57 22l2 1l4 2q0 2 0.5 2.5t0.5 1.5q3 0 3 2l47 73l3 -12q2 -4 2.5 -7t0.5 -5
q-1 -2 -2 -4.5t-2 -4.5l-31 -47l-2 -2l-1 -1h2q0 1 3 0l54 -16q2 -1 4.5 -2t4.5 -3q4 -2 5 -8l5 -13l-82 24q-2 0 -3 1h-4h-4q-3 0 -4 -1z" />
    <glyph glyph-name="six" unicode="6" horiz-adv-x="1995" 
d="M1335 326q-72 -60 -161 -96t-190 -36t-188.5 36t-159.5 96h699zM595 366q-62 70 -96 159t-34 190q0 96 30 178.5t87 151.5h690zM634 1103q71 63 160 98.5t190 35.5t189.5 -36t155.5 -98h-695zM1503 715q0 -96 -30.5 -179.5t-85.5 -153.5h-693l677 684q66 -82 99 -168.5
t33 -182.5zM1152 110q-41 -11 -82 -17t-86 -6q-89 0 -170.5 23t-151.5 65t-126.5 100t-96.5 127.5t-62 149t-22 163.5q0 89 23 171t65 152t100 127t128 97t149.5 62t163.5 22q136 0 251 -52t199 -139.5t131 -201.5t47 -238q0 -113 -36 -211t-98 -176t-146 -133.5t-180 -84.5
zM1136 1272q-34 11 -72 16.5t-80 5.5q-83 0 -158 -21.5t-139 -60t-115.5 -92.5t-88 -118t-56 -137t-19.5 -150q0 -78 20 -151t57 -137.5t89 -118t116 -92t138.5 -60t155.5 -21.5q119 0 224.5 45.5t184 124t124 184t45.5 226.5q0 106 -34 197.5t-92 163.5t-135.5 122
t-164.5 74zM295 318l32 -54l-28 -17l-57 96l13 7q9 6 16 4l99 -10l-31 53l28 16l55 -95l-13 -7q-6 -2 -7 -2q-3 -2 -8 -2zM382 144l-61 73l109 92l62 -74l-25 -20l-41 46l-15 -14l31 -36l-25 -22l-31 37l-19 -14l39 -46zM477 201l22 25l86 -73l-20 -24l-31 26l-71 -85
l-25 22l70 83zM617 135l23 -16l-19 -152l-21 11q-1 3 -4 4q-3 3 -3 5q-2 4 -2 6v6l2 17l-47 28l-14 -10q-1 -1 -2.5 -1t-2.5 -1h-6q-2 -1 -3.5 -0.5t-2.5 0.5q-2 1 -4 1t-3 1l-18 11zM604 87l-2 -2q-4 -2 -3 -2l-1 -2q0 -1 -1 -1l-21 -15l22 -14l2 27q0 1 1 1.5t1 1.5
q0 2 0.5 2t0.5 1t0.5 1.5t0.5 1.5zM751 8l-13 -31l-47 19l-18 -49l-33 13l53 131l87 -34l-10 -30l-58 21l-8 -21zM762 -13q1 8 6 19q6 6 11 14q3 4 6.5 7t6.5 6q5 3 9 4.5t9 3.5q4 2 9 2.5t10 1.5h9.5t9.5 -2t9.5 -3t8.5 -3q10 -5 16 -10l7 -7t5 -7q7 -8 8 -18q2 -5 3 -9
t2 -9v-9.5t-1 -9.5q-1 -10 -7 -19q-3 -4 -5.5 -7.5t-5.5 -7.5q-4 -7 -13 -12q-5 -2 -9 -4t-9 -4t-9 -3t-9 -1h-9.5t-11.5 2q-5 1 -8.5 2t-8.5 3q-4 2 -8 4.5t-8 6.5q-4 3 -6.5 7t-5.5 7q-2 4 -4.5 8t-4.5 8q-2 12 -4 19v10t2 10zM796 -20q-1 -9 0 -16q1 -3 2 -6.5t3 -7.5
q4 -6 10 -11q3 -2 7 -3t9 -2q6 -3 14 0q9 1 14 4q7 6 11 12q2 4 4 7.5t3 6.5q2 8 0 17q-1 5 -7 13q-2 4 -4.5 6.5l-5.5 5.5q-4 2 -7 3t-8 3q-8 2 -14 0q-5 -2 -8.5 -3t-7.5 -3q-2 -2 -4.5 -5t-4.5 -7q-4 -4 -6 -14zM1047 -113l-30 -1l-65 95l1 -95l-34 -1l-2 143h15h13
q7 0 9 -1q4 -3 5 -5l50 -71q1 -1 1 -2t1 -2q0 -2 1 -2.5t1 -1.5q0 -4 1 -5l-3 91h35zM1063 -2l-6 33l112 20l6 -31l-39 -8l21 -107l-33 -6l-20 107zM1232 41q-4 0 -6 -2q-3 0 -3 -2l-2 -4q0 -1 1 -2q0 -3 3 -4q1 0 1.5 -1t2.5 -1h10h10h9t9 -1q4 -2 6.5 -2.5t6.5 -2.5
q7 -5 12 -9t7 -14q4 -9 3 -18q0 -6 -2 -9.5t-4 -8.5q-2 -4 -4.5 -7.5t-7.5 -8.5q-5 -2 -9 -4.5t-9 -4.5l-8 -2t-9 -1q-6 -2 -15 2q-8 1 -15 5q-3 2 -6 4.5t-5 6.5l7 10q2 2 4 3q3 3 4 3q3 1 10 1q2 0 3.5 -0.5t3.5 -0.5t3.5 -1t3.5 -1q5 0 7 2q3 0 4 0.5l3 1.5l5 5q2 2 2 7
v6l-3 3q-1 1 -5 1q-2 2 -4 2h-4h-10h-7t-8 1q-6 0 -14 2q-4 2 -7.5 4t-5.5 4q-5 5 -10 15q-2 5 -2 9.5v7.5q1 5 2 8.5t4 7.5q2 5 4.5 7.5t6.5 5.5q7 5 15 8q2 1 5 2t8 1q2 0 5 -1t7 -1q2 -1 5 -1.5t8 -2.5q2 -2 4.5 -2.5t4.5 -2.5l-6 -11q-1 -3 -3 -7q-3 -1 -5 -1.5t-4 -0.5
q-1 -1 -4 -1h-5h-5q-2 0 -3 -2zM1322 -20q0 2 -1 3.5t-1 3.5q0 5 2 7q0 2 3 7q1 3 6 5q3 1 4.5 1t3.5 1q2 0 3.5 -0.5t3.5 -0.5q5 -2 6 -4q3 -1 5 -7q4 -4 4 -7q0 -5 -2 -7t-2.5 -3.5t-1.5 -2.5q-1 -2 -2.5 -3t-3.5 -3q-6 -2 -7 -2q-5 0 -7 1q-5 0 -9 4q-3 2 -4 7zM1374 66
q2 -6 11 -11q3 -3 6.5 -4t7.5 -3q6 -2 15 0q4 0 7 2t7 4q3 2 5 4.5t5 4.5l6 9q2 7 7 11q2 2 4 2t4 1h8l12 -2q-1 -5 -2 -9.5t-3 -8.5q-1 -5 -6 -15q-3 -8 -10 -13q-7 -7 -11 -10q-5 -3 -9.5 -5.5t-9.5 -3.5q-8 -4 -18 -4q-5 -1 -9.5 -0.5t-9.5 1.5q-3 2 -7.5 2.5t-9.5 2.5
q-4 3 -8 5.5t-7 6.5q-4 3 -7.5 6t-6.5 7q-2 5 -4 9.5t-4 9.5q-1 4 -1.5 8.5t-2.5 9.5v9t2 9q1 9 5 18q3 4 5 8t6 8q3 4 7 7t9 6q7 4 13 7q4 2 7.5 2.5t8.5 2.5h17q5 0 9 -1t7 -2l-1 -13q-2 -4 -3 -7l-3 -3l-3 -3q-8 -4 -13 -4q-7 0 -11 -2q-5 -1 -12 -4q-7 -4 -10 -11
q-5 -8 -5 -14q-2 -8 0 -16q2 -10 6 -14zM1459 122q-4 4 -6.5 7.5t-5.5 8.5q-2 5 -3.5 9t-2.5 9q-2 5 -2 9v9t0.5 9.5t1.5 9.5t3 9t4 9q3 3 5.5 7t6.5 7q4 4 8 7l8 6q4 2 8 3.5t9 2.5q5 2 9 2h9h9.5t9.5 -2q5 -1 9.5 -2.5t8.5 -3.5q5 -3 8 -6t8 -7q3 -4 5.5 -7.5t5.5 -8.5
q2 -4 3.5 -8t3.5 -9q1 -5 1 -9.5v-9.5q0 -7 -2 -17q-1 -5 -3 -9.5t-4 -8.5q-4 -8 -12 -16q-4 -4 -7.5 -6.5t-7.5 -4.5q-5 -2 -9 -4t-9 -3q-9 -3 -19 -3q-9 0 -18 3q-5 1 -9 3t-9 4q-3 2 -7 5zM1483 146q3 -3 6.5 -5t7.5 -4q6 -2 14 -2q11 0 15 2q4 1 7 3.5t6 5.5q8 6 9 12
q3 7 3 15q0 7 -3 15q-1 7 -9 13q-6 7 -13 10q-6 3 -15 3q-4 0 -7 -0.5t-7 -1.5q-4 -2 -7.5 -4t-6.5 -6q-5 -4 -9 -13q-2 -3 -2 -7v-8q0 -10 2 -14t4 -7.5t5 -6.5zM1714 322l-18 -29l-58 37l41 -61l-15 -24l-71 13l55 -37l-19 -28l-119 78l13 19q3 5 9 8q3 1 6.5 1h5.5
l84 -13l-47 70q-2 4 -3 6.5t-1 5.5q0 4 1 6.5t3 5.5l13 19zM332 929l-7 -19l-133 50l18 47q3 10 8 15q7 9 15 11q4 2 7.5 3t8.5 1t9 -0.5t9 -1.5q9 -4 14 -11q5 -2 6.5 -5.5t3.5 -7.5t3 -8.5t2 -7.5q0 -9 -3 -18l-10 -30zM275 984q0 2 0.5 4.5t0.5 4.5q0 3 -0.5 5t-1.5 5
q-1 2 -2.5 4t-3.5 4q-3 3 -7 5q-3 1 -6 1h-5q-3 0 -5 -0.5t-4 -1.5q-2 -2 -4 -2.5t-4 -2.5q-4 -6 -5 -9l-11 -30l47 -17zM404 1084l-42 -77l-124 68l42 77l17 -10l-33 -59l36 -20l27 49l17 -9l-27 -48l37 -22l33 60zM424 1110l-12 -16l-113 87l30 41q4 2 7 5t6 5q4 3 7.5 4
t7.5 2h8t8 -1q9 -2 15 -8q3 -2 5 -4.5t4 -5.5q2 -2 3.5 -5l2.5 -5q1 -5 1 -8v-6q0 -6 -2 -12l75 -2l-7 -11q-3 -4 -8 -6q-3 -1 -5 -2t-4 -1l-63 2l-13 -17zM326 1185l35 -27l19 26q2 1 2.5 3t2.5 4v8q0 2 -1 4t-2 5q-4 4 -6 5q-4 4 -8 4q-2 1 -8 1q-2 -1 -4 -1t-4 -1
q-4 -2 -6 -6zM436 1301q-4 -1 -6 -1t-4 -1t-5 -4q-4 -3 -6 -7q-3 -3 -3 -8v-7q1 -3 4 -6q3 -4 6 -5h6q3 0 9 2q3 2 5.5 2.5t6.5 2.5q2 1 3.5 2t2.5 1q2 1 8 3q4 0 7 3q1 0 2.5 0.5t3.5 0.5q20 2 32 -12q10 -6 11 -16q1 -5 1.5 -8t0.5 -8q-1 -5 -2 -9.5t-3 -8.5
q-2 -5 -5.5 -8.5t-5.5 -6.5q-13 -12 -31 -15h-6q-3 2 -6 2q-2 0 -3.5 0.5t-2.5 0.5t-1 0.5t-1 0.5l1 5q1 2 1.5 3.5t1.5 3.5q8 5 12 5h3q3 0 9 2q4 1 10 6q2 2 2.5 4t2.5 4q3 4 3 11q2 4 0 9q0 3 -1.5 5t-3.5 4q-3 5 -9 5q-5 3 -9 0q-6 0 -9 -3q-8 -2 -11 -5q-4 -1 -14 -5
q-4 -2 -8 -2t-6 -1q-10 0 -14 1q-3 2 -7 4t-6 6q-7 6 -9 14q-2 9 -1 14q2 11 5 15q2 5 8 13q6 5 11 6q4 4 10 4q10 2 12 2q7 0 10 -1l-1 -6q0 -3 -4 -9q-3 -4 -7 -4zM496 1296q-2 4 -4.5 8.5t-3.5 9.5q-5 10 -5 18q-1 5 -0.5 9.5t0.5 9.5q2 5 3.5 9.5t3.5 8.5q2 5 4.5 8
t5.5 8q6 6 15 12q8 7 17 8q9 4 19 4q9 3 19 0q5 -1 8 -2.5t8 -3.5t9 -4.5t8 -5.5t6.5 -6.5t6.5 -8.5q2 -4 4.5 -8t3.5 -9q4 -9 4 -18q2 -10 0 -19q-1 -5 -2.5 -9t-3.5 -9q-5 -10 -11 -16q-4 -3 -6.5 -6.5t-7.5 -5.5q-14 -10 -26 -11q-15 -4 -29 0q-7 1 -13 3.5t-13 5.5
q-12 8 -20 20zM513 1308q4 -10 14 -15q8 -5 19 -7q10 -3 21 0q10 2 18 8q11 6 15 15q3 5 4.5 9t3.5 9q1 11 0 22q-2 4 -3.5 8.5t-5.5 9.5q-5 9 -15 15q-10 7 -18 8q-11 2 -20 0q-11 -2 -20 -9q-9 -6 -15 -15q-3 -5 -4.5 -9.5t-3.5 -9.5q-2 -9 0 -20q2 -5 3.5 -9.5t6.5 -9.5z
M682 1330l-19 -8l-54 132l14 6q4 2 8 2q5 0 6 -2l109 -70l1 -1q1 -2 1 -3q2 0 2 -0.5t1 -0.5l-46 109l19 7l54 -131l-14 -6q-4 -1 -8 -1q-5 0 -8 1l-106 70q-2 0 -2 0.5t-2 0.5q0 2 -1 3q-1 0 -1 1v2zM811 1523l19 3l88 -127l-11 -2q-2 -1 -4 -0.5t-4 0.5q-5 1 -7 6l-14 20
l-71 -14l-5 -24q-2 -5 -5 -8q-1 -2 -3.5 -3t-4.5 -1l-11 -2zM825 1494l-14 -64l55 11l-37 53q-2 2 -2 4t-2 4v-4v-4zM919 1396l-5 143l19 1l5 -123l63 3l1 -21zM1080 1448q-2 -8 0 -15q1 -3 2.5 -6.5t3.5 -5.5q2 -3 4.5 -5.5l4.5 -4.5q4 -2 7.5 -4t7.5 -3q10 0 14 1q5 0 8 2
l6 4q6 4 10 10q2 3 3.5 6.5t3.5 7.5l14 85l20 -2l-17 -87q-1 -3 -1.5 -6.5t-2.5 -7.5l-3.5 -7t-3.5 -6q-3 -2 -6.5 -4.5t-5.5 -4.5q-5 -4 -12 -6q-4 -2 -8 -2.5t-7 -1.5q-10 0 -15 1q-5 0 -8 1.5l-7 3.5q-4 1 -6.5 3t-5.5 4q-7 5 -11 11q-2 5 -6 13q-3 7 -3 15q0 10 1 15
l14 85l20 -4zM1265 1466q-1 2 -2.5 3.5t-2.5 3.5q-2 1 -4 1.5t-4 1.5q-3 2 -9 2h-7q-3 -3 -7 -4q-3 -3 -3 -6q-3 -5 -1 -8q0 -4 2 -6q1 -2 2 -3.5t4 -3.5q3 -3 9 -7q2 -2 3 -3.5t3 -2.5t3 -2.5t3 -2.5l2.5 -2.5t3.5 -2.5l1.5 -3t2.5 -3q10 -15 4 -33q-2 -5 -4.5 -9t-4.5 -7
q-5 -3 -8.5 -5.5t-7.5 -3.5q-8 -4 -17 -4q-5 0 -9 0.5t-9 1.5q-18 8 -27 23q0 1 -1.5 2.5l-2.5 2.5q0 2 -0.5 3t-0.5 3q-1 1 -1 4v3l6 2q4 0 7 -2q6 -1 9 -7v-1l3 -4.5t3 -3.5q4 -2 6 -3.5t5 -2.5q2 0 4.5 -0.5t4.5 -0.5h6t5 1q7 2 9 5q5 5 6 9q3 6 0 10q0 2 -1 4l-2 4
q-2 2 -3.5 4t-3.5 4q-2 1 -4 2.5t-6 3.5q-2 3 -5 5.5t-5 5.5q-3 2 -5 5t-4 7q-2 2 -3.5 5t-1.5 6q-2 7 3 17q1 8 7 14q7 6 13 7q5 2 8.5 2.5t6.5 0.5q4 0 8 -1t9 -2q4 -1 9 -6q5 -4 9 -9l4 -4t3 -4q1 -3 1.5 -5t1.5 -4l-6 -3q-5 -2 -10 0q-5 4 -7 6zM1339 1300l-78 41
l64 127l78 -41l-8 -18l-60 32l-19 -37l49 -25l-10 -18l-49 26l-19 -37l61 -32zM1428 1328q7 10 16 13q3 3 7 5l8 4q5 2 9.5 2t9.5 1h9.5t9.5 -1q9 -2 18 -6q7 -3 15 -11q4 -3 8 -6.5t6 -8.5q6 -7 7 -16q4 -8 4 -18v-9.5t-1 -9.5q-2 -5 -3 -9.5t-3 -8.5q-5 -10 -11 -15
q-4 -5 -7 -8.5t-7 -6.5q-5 -2 -9 -4t-9 -3q-9 -3 -18 -3h-9.5t-9.5 1q-3 1 -7.5 2t-9.5 4q-5 2 -8.5 4.5t-8.5 4.5q-5 7 -9.5 12.5t-7.5 11.5q-2 7 -4 13.5t-3 13.5q0 16 4 28q5 15 14 24zM1444 1316q-9 -9 -12 -18q-2 -5 -2.5 -10t-0.5 -10q0 -6 1.5 -10.5t3.5 -9.5
q4 -5 6.5 -9.5t6.5 -7.5q5 -4 9.5 -6t9.5 -5q11 -3 19 -2q13 0 20 6q5 2 9.5 5t8.5 6q8 9 9 19q5 9 3 20q0 5 -1 10t-4 10q-2 5 -5 8.5t-7 7.5t-9 6.5t-10 4.5t-10 2.5t-10 0.5t-10 -2l-10 -4q-9 -5 -15 -12zM1506 1158l-12 14l114 86l11 -13q2 -4 3 -7v-8l-42 -120
q0 -1 -0.5 -1t-0.5 -1t-1 -1t-1 -1l-1 -2l95 70l12 -15l-114 -85l-9 12q-3 2 -5 7q0 5 1 7l41 122q0 1 1 1t1 1l1 1q1 2 2 3zM1576 1057l127 65l8 -16l-109 -57l29 -54l-18 -10zM1628 944l-7 18l57 22l2 1l4 2q0 2 0.5 2.5t0.5 1.5q3 0 3 2l47 73l3 -12q2 -4 2.5 -7t0.5 -5
q-1 -2 -2 -4.5t-2 -4.5l-31 -47l-2 -2l-1 -1h2q0 1 3 0l54 -16q2 -1 4.5 -2t4.5 -3q4 -2 5 -8l5 -13l-82 24q-2 0 -3 1h-4h-4q-3 0 -4 -1z" />
    <glyph glyph-name="seven" unicode="7" horiz-adv-x="1995" 
d="M1335 326q-72 -60 -161 -96t-190 -36t-188.5 36t-159.5 96h699zM595 366q-62 70 -96 159t-34 190q0 96 30 178.5t87 151.5h690zM634 1103q71 63 160 98.5t190 35.5t189.5 -36t155.5 -98h-695zM1503 715q0 -96 -30.5 -179.5t-85.5 -153.5h-693l677 684q66 -82 99 -168.5
t33 -182.5zM1152 110q-41 -11 -82 -17t-86 -6q-89 0 -170.5 23t-151.5 65t-126.5 100t-96.5 127.5t-62 149t-22 163.5q0 89 23 171t65 152t100 127t128 97t149.5 62t163.5 22q136 0 251 -52t199 -139.5t131 -201.5t47 -238q0 -113 -36 -211t-98 -176t-146 -133.5t-180 -84.5
zM1136 1272q-34 11 -72 16.5t-80 5.5q-83 0 -158 -21.5t-139 -60t-115.5 -92.5t-88 -118t-56 -137t-19.5 -150q0 -78 20 -151t57 -137.5t89 -118t116 -92t138.5 -60t155.5 -21.5q119 0 224.5 45.5t184 124t124 184t45.5 226.5q0 106 -34 197.5t-92 163.5t-135.5 122
t-164.5 74zM295 318l32 -54l-28 -17l-57 96l13 7q9 6 16 4l99 -10l-31 53l28 16l55 -95l-13 -7q-6 -2 -7 -2q-3 -2 -8 -2zM382 144l-61 73l109 92l62 -74l-25 -20l-41 46l-15 -14l31 -36l-25 -22l-31 37l-19 -14l39 -46zM477 201l22 25l86 -73l-20 -24l-31 26l-71 -85
l-25 22l70 83zM617 135l23 -16l-19 -152l-21 11q-1 3 -4 4q-3 3 -3 5q-2 4 -2 6v6l2 17l-47 28l-14 -10q-1 -1 -2.5 -1t-2.5 -1h-6q-2 -1 -3.5 -0.5t-2.5 0.5q-2 1 -4 1t-3 1l-18 11zM604 87l-2 -2q-4 -2 -3 -2l-1 -2q0 -1 -1 -1l-21 -15l22 -14l2 27q0 1 1 1.5t1 1.5
q0 2 0.5 2t0.5 1t0.5 1.5t0.5 1.5zM751 8l-13 -31l-47 19l-18 -49l-33 13l53 131l87 -34l-10 -30l-58 21l-8 -21zM762 -13q1 8 6 19q6 6 11 14q3 4 6.5 7t6.5 6q5 3 9 4.5t9 3.5q4 2 9 2.5t10 1.5h9.5t9.5 -2t9.5 -3t8.5 -3q10 -5 16 -10l7 -7t5 -7q7 -8 8 -18q2 -5 3 -9
t2 -9v-9.5t-1 -9.5q-1 -10 -7 -19q-3 -4 -5.5 -7.5t-5.5 -7.5q-4 -7 -13 -12q-5 -2 -9 -4t-9 -4t-9 -3t-9 -1h-9.5t-11.5 2q-5 1 -8.5 2t-8.5 3q-4 2 -8 4.5t-8 6.5q-4 3 -6.5 7t-5.5 7q-2 4 -4.5 8t-4.5 8q-2 12 -4 19v10t2 10zM796 -20q-1 -9 0 -16q1 -3 2 -6.5t3 -7.5
q4 -6 10 -11q3 -2 7 -3t9 -2q6 -3 14 0q9 1 14 4q7 6 11 12q2 4 4 7.5t3 6.5q2 8 0 17q-1 5 -7 13q-2 4 -4.5 6.5l-5.5 5.5q-4 2 -7 3t-8 3q-8 2 -14 0q-5 -2 -8.5 -3t-7.5 -3q-2 -2 -4.5 -5t-4.5 -7q-4 -4 -6 -14zM1047 -113l-30 -1l-65 95l1 -95l-34 -1l-2 143h15h13
q7 0 9 -1q4 -3 5 -5l50 -71q1 -1 1 -2t1 -2q0 -2 1 -2.5t1 -1.5q0 -4 1 -5l-3 91h35zM1063 -2l-6 33l112 20l6 -31l-39 -8l21 -107l-33 -6l-20 107zM1232 41q-4 0 -6 -2q-3 0 -3 -2l-2 -4q0 -1 1 -2q0 -3 3 -4q1 0 1.5 -1t2.5 -1h10h10h9t9 -1q4 -2 6.5 -2.5t6.5 -2.5
q7 -5 12 -9t7 -14q4 -9 3 -18q0 -6 -2 -9.5t-4 -8.5q-2 -4 -4.5 -7.5t-7.5 -8.5q-5 -2 -9 -4.5t-9 -4.5l-8 -2t-9 -1q-6 -2 -15 2q-8 1 -15 5q-3 2 -6 4.5t-5 6.5l7 10q2 2 4 3q3 3 4 3q3 1 10 1q2 0 3.5 -0.5t3.5 -0.5t3.5 -1t3.5 -1q5 0 7 2q3 0 4 0.5l3 1.5l5 5q2 2 2 7
v6l-3 3q-1 1 -5 1q-2 2 -4 2h-4h-10h-7t-8 1q-6 0 -14 2q-4 2 -7.5 4t-5.5 4q-5 5 -10 15q-2 5 -2 9.5v7.5q1 5 2 8.5t4 7.5q2 5 4.5 7.5t6.5 5.5q7 5 15 8q2 1 5 2t8 1q2 0 5 -1t7 -1q2 -1 5 -1.5t8 -2.5q2 -2 4.5 -2.5t4.5 -2.5l-6 -11q-1 -3 -3 -7q-3 -1 -5 -1.5t-4 -0.5
q-1 -1 -4 -1h-5h-5q-2 0 -3 -2zM1322 -20q0 2 -1 3.5t-1 3.5q0 5 2 7q0 2 3 7q1 3 6 5q3 1 4.5 1t3.5 1q2 0 3.5 -0.5t3.5 -0.5q5 -2 6 -4q3 -1 5 -7q4 -4 4 -7q0 -5 -2 -7t-2.5 -3.5t-1.5 -2.5q-1 -2 -2.5 -3t-3.5 -3q-6 -2 -7 -2q-5 0 -7 1q-5 0 -9 4q-3 2 -4 7zM1374 66
q2 -6 11 -11q3 -3 6.5 -4t7.5 -3q6 -2 15 0q4 0 7 2t7 4q3 2 5 4.5t5 4.5l6 9q2 7 7 11q2 2 4 2t4 1h8l12 -2q-1 -5 -2 -9.5t-3 -8.5q-1 -5 -6 -15q-3 -8 -10 -13q-7 -7 -11 -10q-5 -3 -9.5 -5.5t-9.5 -3.5q-8 -4 -18 -4q-5 -1 -9.5 -0.5t-9.5 1.5q-3 2 -7.5 2.5t-9.5 2.5
q-4 3 -8 5.5t-7 6.5q-4 3 -7.5 6t-6.5 7q-2 5 -4 9.5t-4 9.5q-1 4 -1.5 8.5t-2.5 9.5v9t2 9q1 9 5 18q3 4 5 8t6 8q3 4 7 7t9 6q7 4 13 7q4 2 7.5 2.5t8.5 2.5h17q5 0 9 -1t7 -2l-1 -13q-2 -4 -3 -7l-3 -3l-3 -3q-8 -4 -13 -4q-7 0 -11 -2q-5 -1 -12 -4q-7 -4 -10 -11
q-5 -8 -5 -14q-2 -8 0 -16q2 -10 6 -14zM1459 122q-4 4 -6.5 7.5t-5.5 8.5q-2 5 -3.5 9t-2.5 9q-2 5 -2 9v9t0.5 9.5t1.5 9.5t3 9t4 9q3 3 5.5 7t6.5 7q4 4 8 7l8 6q4 2 8 3.5t9 2.5q5 2 9 2h9h9.5t9.5 -2q5 -1 9.5 -2.5t8.5 -3.5q5 -3 8 -6t8 -7q3 -4 5.5 -7.5t5.5 -8.5
q2 -4 3.5 -8t3.5 -9q1 -5 1 -9.5v-9.5q0 -7 -2 -17q-1 -5 -3 -9.5t-4 -8.5q-4 -8 -12 -16q-4 -4 -7.5 -6.5t-7.5 -4.5q-5 -2 -9 -4t-9 -3q-9 -3 -19 -3q-9 0 -18 3q-5 1 -9 3t-9 4q-3 2 -7 5zM1483 146q3 -3 6.5 -5t7.5 -4q6 -2 14 -2q11 0 15 2q4 1 7 3.5t6 5.5q8 6 9 12
q3 7 3 15q0 7 -3 15q-1 7 -9 13q-6 7 -13 10q-6 3 -15 3q-4 0 -7 -0.5t-7 -1.5q-4 -2 -7.5 -4t-6.5 -6q-5 -4 -9 -13q-2 -3 -2 -7v-8q0 -10 2 -14t4 -7.5t5 -6.5zM1714 322l-18 -29l-58 37l41 -61l-15 -24l-71 13l55 -37l-19 -28l-119 78l13 19q3 5 9 8q3 1 6.5 1h5.5
l84 -13l-47 70q-2 4 -3 6.5t-1 5.5q0 4 1 6.5t3 5.5l13 19zM332 929l-7 -19l-133 50l18 47q3 10 8 15q7 9 15 11q4 2 7.5 3t8.5 1t9 -0.5t9 -1.5q9 -4 14 -11q5 -2 6.5 -5.5t3.5 -7.5t3 -8.5t2 -7.5q0 -9 -3 -18l-10 -30zM275 984q0 2 0.5 4.5t0.5 4.5q0 3 -0.5 5t-1.5 5
q-1 2 -2.5 4t-3.5 4q-3 3 -7 5q-3 1 -6 1h-5q-3 0 -5 -0.5t-4 -1.5q-2 -2 -4 -2.5t-4 -2.5q-4 -6 -5 -9l-11 -30l47 -17zM404 1084l-42 -77l-124 68l42 77l17 -10l-33 -59l36 -20l27 49l17 -9l-27 -48l37 -22l33 60zM424 1110l-12 -16l-113 87l30 41q4 2 7 5t6 5q4 3 7.5 4
t7.5 2h8t8 -1q9 -2 15 -8q3 -2 5 -4.5t4 -5.5q2 -2 3.5 -5l2.5 -5q1 -5 1 -8v-6q0 -6 -2 -12l75 -2l-7 -11q-3 -4 -8 -6q-3 -1 -5 -2t-4 -1l-63 2l-13 -17zM326 1185l35 -27l19 26q2 1 2.5 3t2.5 4v8q0 2 -1 4t-2 5q-4 4 -6 5q-4 4 -8 4q-2 1 -8 1q-2 -1 -4 -1t-4 -1
q-4 -2 -6 -6zM436 1301q-4 -1 -6 -1t-4 -1t-5 -4q-4 -3 -6 -7q-3 -3 -3 -8v-7q1 -3 4 -6q3 -4 6 -5h6q3 0 9 2q3 2 5.5 2.5t6.5 2.5q2 1 3.5 2t2.5 1q2 1 8 3q4 0 7 3q1 0 2.5 0.5t3.5 0.5q20 2 32 -12q10 -6 11 -16q1 -5 1.5 -8t0.5 -8q-1 -5 -2 -9.5t-3 -8.5
q-2 -5 -5.5 -8.5t-5.5 -6.5q-13 -12 -31 -15h-6q-3 2 -6 2q-2 0 -3.5 0.5t-2.5 0.5t-1 0.5t-1 0.5l1 5q1 2 1.5 3.5t1.5 3.5q8 5 12 5h3q3 0 9 2q4 1 10 6q2 2 2.5 4t2.5 4q3 4 3 11q2 4 0 9q0 3 -1.5 5t-3.5 4q-3 5 -9 5q-5 3 -9 0q-6 0 -9 -3q-8 -2 -11 -5q-4 -1 -14 -5
q-4 -2 -8 -2t-6 -1q-10 0 -14 1q-3 2 -7 4t-6 6q-7 6 -9 14q-2 9 -1 14q2 11 5 15q2 5 8 13q6 5 11 6q4 4 10 4q10 2 12 2q7 0 10 -1l-1 -6q0 -3 -4 -9q-3 -4 -7 -4zM496 1296q-2 4 -4.5 8.5t-3.5 9.5q-5 10 -5 18q-1 5 -0.5 9.5t0.5 9.5q2 5 3.5 9.5t3.5 8.5q2 5 4.5 8
t5.5 8q6 6 15 12q8 7 17 8q9 4 19 4q9 3 19 0q5 -1 8 -2.5t8 -3.5t9 -4.5t8 -5.5t6.5 -6.5t6.5 -8.5q2 -4 4.5 -8t3.5 -9q4 -9 4 -18q2 -10 0 -19q-1 -5 -2.5 -9t-3.5 -9q-5 -10 -11 -16q-4 -3 -6.5 -6.5t-7.5 -5.5q-14 -10 -26 -11q-15 -4 -29 0q-7 1 -13 3.5t-13 5.5
q-12 8 -20 20zM513 1308q4 -10 14 -15q8 -5 19 -7q10 -3 21 0q10 2 18 8q11 6 15 15q3 5 4.5 9t3.5 9q1 11 0 22q-2 4 -3.5 8.5t-5.5 9.5q-5 9 -15 15q-10 7 -18 8q-11 2 -20 0q-11 -2 -20 -9q-9 -6 -15 -15q-3 -5 -4.5 -9.5t-3.5 -9.5q-2 -9 0 -20q2 -5 3.5 -9.5t6.5 -9.5z
M682 1330l-19 -8l-54 132l14 6q4 2 8 2q5 0 6 -2l109 -70l1 -1q1 -2 1 -3q2 0 2 -0.5t1 -0.5l-46 109l19 7l54 -131l-14 -6q-4 -1 -8 -1q-5 0 -8 1l-106 70q-2 0 -2 0.5t-2 0.5q0 2 -1 3q-1 0 -1 1v2zM811 1523l19 3l88 -127l-11 -2q-2 -1 -4 -0.5t-4 0.5q-5 1 -7 6l-14 20
l-71 -14l-5 -24q-2 -5 -5 -8q-1 -2 -3.5 -3t-4.5 -1l-11 -2zM825 1494l-14 -64l55 11l-37 53q-2 2 -2 4t-2 4v-4v-4zM919 1396l-5 143l19 1l5 -123l63 3l1 -21zM1080 1448q-2 -8 0 -15q1 -3 2.5 -6.5t3.5 -5.5q2 -3 4.5 -5.5l4.5 -4.5q4 -2 7.5 -4t7.5 -3q10 0 14 1q5 0 8 2
l6 4q6 4 10 10q2 3 3.5 6.5t3.5 7.5l14 85l20 -2l-17 -87q-1 -3 -1.5 -6.5t-2.5 -7.5l-3.5 -7t-3.5 -6q-3 -2 -6.5 -4.5t-5.5 -4.5q-5 -4 -12 -6q-4 -2 -8 -2.5t-7 -1.5q-10 0 -15 1q-5 0 -8 1.5l-7 3.5q-4 1 -6.5 3t-5.5 4q-7 5 -11 11q-2 5 -6 13q-3 7 -3 15q0 10 1 15
l14 85l20 -4zM1265 1466q-1 2 -2.5 3.5t-2.5 3.5q-2 1 -4 1.5t-4 1.5q-3 2 -9 2h-7q-3 -3 -7 -4q-3 -3 -3 -6q-3 -5 -1 -8q0 -4 2 -6q1 -2 2 -3.5t4 -3.5q3 -3 9 -7q2 -2 3 -3.5t3 -2.5t3 -2.5t3 -2.5l2.5 -2.5t3.5 -2.5l1.5 -3t2.5 -3q10 -15 4 -33q-2 -5 -4.5 -9t-4.5 -7
q-5 -3 -8.5 -5.5t-7.5 -3.5q-8 -4 -17 -4q-5 0 -9 0.5t-9 1.5q-18 8 -27 23q0 1 -1.5 2.5l-2.5 2.5q0 2 -0.5 3t-0.5 3q-1 1 -1 4v3l6 2q4 0 7 -2q6 -1 9 -7v-1l3 -4.5t3 -3.5q4 -2 6 -3.5t5 -2.5q2 0 4.5 -0.5t4.5 -0.5h6t5 1q7 2 9 5q5 5 6 9q3 6 0 10q0 2 -1 4l-2 4
q-2 2 -3.5 4t-3.5 4q-2 1 -4 2.5t-6 3.5q-2 3 -5 5.5t-5 5.5q-3 2 -5 5t-4 7q-2 2 -3.5 5t-1.5 6q-2 7 3 17q1 8 7 14q7 6 13 7q5 2 8.5 2.5t6.5 0.5q4 0 8 -1t9 -2q4 -1 9 -6q5 -4 9 -9l4 -4t3 -4q1 -3 1.5 -5t1.5 -4l-6 -3q-5 -2 -10 0q-5 4 -7 6zM1339 1300l-78 41
l64 127l78 -41l-8 -18l-60 32l-19 -37l49 -25l-10 -18l-49 26l-19 -37l61 -32zM1428 1328q7 10 16 13q3 3 7 5l8 4q5 2 9.5 2t9.5 1h9.5t9.5 -1q9 -2 18 -6q7 -3 15 -11q4 -3 8 -6.5t6 -8.5q6 -7 7 -16q4 -8 4 -18v-9.5t-1 -9.5q-2 -5 -3 -9.5t-3 -8.5q-5 -10 -11 -15
q-4 -5 -7 -8.5t-7 -6.5q-5 -2 -9 -4t-9 -3q-9 -3 -18 -3h-9.5t-9.5 1q-3 1 -7.5 2t-9.5 4q-5 2 -8.5 4.5t-8.5 4.5q-5 7 -9.5 12.5t-7.5 11.5q-2 7 -4 13.5t-3 13.5q0 16 4 28q5 15 14 24zM1444 1316q-9 -9 -12 -18q-2 -5 -2.5 -10t-0.5 -10q0 -6 1.5 -10.5t3.5 -9.5
q4 -5 6.5 -9.5t6.5 -7.5q5 -4 9.5 -6t9.5 -5q11 -3 19 -2q13 0 20 6q5 2 9.5 5t8.5 6q8 9 9 19q5 9 3 20q0 5 -1 10t-4 10q-2 5 -5 8.5t-7 7.5t-9 6.5t-10 4.5t-10 2.5t-10 0.5t-10 -2l-10 -4q-9 -5 -15 -12zM1506 1158l-12 14l114 86l11 -13q2 -4 3 -7v-8l-42 -120
q0 -1 -0.5 -1t-0.5 -1t-1 -1t-1 -1l-1 -2l95 70l12 -15l-114 -85l-9 12q-3 2 -5 7q0 5 1 7l41 122q0 1 1 1t1 1l1 1q1 2 2 3zM1576 1057l127 65l8 -16l-109 -57l29 -54l-18 -10zM1628 944l-7 18l57 22l2 1l4 2q0 2 0.5 2.5t0.5 1.5q3 0 3 2l47 73l3 -12q2 -4 2.5 -7t0.5 -5
q-1 -2 -2 -4.5t-2 -4.5l-31 -47l-2 -2l-1 -1h2q0 1 3 0l54 -16q2 -1 4.5 -2t4.5 -3q4 -2 5 -8l5 -13l-82 24q-2 0 -3 1h-4h-4q-3 0 -4 -1z" />
    </font>
</defs>
</svg>
