<svg xmlns="http://www.w3.org/2000/svg" viewBox="0 0 48 48">
	<title>Email</title>
	<path fill="currentColor" d="M46.3 31.7C45 35.2 41.7 37.6 37.9 37.6C34.3 37.6 31.2 35.3 29.8 32.2C27.9 33.8 25.5 34.8 22.8 34.8C16.8 34.8 12 29.9 12 24C12 18.1 16.9 13.2 22.8 13.3C25.2 13.3 27.3 14 29.1 15.3L29.1 14.6C29.1 13.3 30.1 12.3 31.4 12.3C32.7 12.3 33.7 13.4 33.7 14.6L33.7 28.7C33.7 31.1 35.6 33 38 33C39.9 33 41.5 31.8 42.1 30.1C42.9 27.8 43.2 25.3 43.1 22.8C42.6 13.5 35.3 5.9 26.1 5C20.3 4.5 14.8 6.4 10.7 10.5C6.6 14.6 4.6 20.2 5.2 25.9C6.1 34.9 13.2 42 22.2 42.9C26.6 43.3 30.9 42.3 34.6 39.8C35.6 39.1 37 39.4 37.7 40.4C38.4 41.4 38.1 42.8 37.1 43.5C33.2 46.2 28.8 47.5 24.1 47.5C23.3 47.5 22.5 47.5 21.7 47.4C10.6 46.3 1.7 37.5 0.6 26.4C-0.1 19.3 2.4 12.4 7.4 7.4C12.4 2.4 19.3 -0.1 26.4 0.6C37.8 1.8 46.8 11.2 47.5 22.6C47.6 25.7 47.2 28.7 46.3 31.7ZM29.1 24C29.1 20.5 26.3 17.7 22.8 17.7C19.3 17.7 16.5 20.5 16.5 24C16.5 27.5 19.3 30.3 22.8 30.3C26.2 30.3 29.1 27.5 29.1 24Z" />
</svg>
