<svg version="1.2"
  xmlns="http://www.w3.org/2000/svg" viewBox="0 0 100 100">
  <title>GitHub</title>
  <path fill="currentColor" d="m37 96.9c0-1.6-0.1-6.7-0.1-12.1-16.3 3-20.6-4-21.9-7.7-0.7-1.8-3.9-7.6-6.6-9.1-2.3-1.2-5.5-4.3-0.1-4.3 5.1-0.1 8.8 4.7 10 6.6 5.8 9.9 15.2 7.1 18.9 5.4 0.6-4.2 2.3-7.1 4.1-8.7-14.4-1.6-29.5-7.2-29.5-32.1 0-7.1 2.5-12.9 6.7-17.5-0.7-1.6-3-8.2 0.6-17.2 0 0 5.4-1.7 17.9 6.7 5.2-1.5 10.7-2.2 16.2-2.2 5.5 0 11.1 0.7 16.3 2.2 12.4-8.4 17.8-6.7 17.8-6.7 3.6 9 1.3 15.6 0.7 17.2 4.1 4.6 6.6 10.4 6.6 17.5 0 24.9-15.2 30.5-29.6 32.1 2.3 2 4.4 5.9 4.4 12 0 8.7-0.1 15.7-0.1 17.9q0 0.2 0 0.4v1.2c0 0.8-0.7 1.5-1.5 1.5h-29.3c-0.9 0-1.6-0.7-1.6-1.5v-1.1q0.1-0.3 0.1-0.5z"/>
</svg>