<svg version="1.2" xmlns="http://www.w3.org/2000/svg" viewBox="0 0 24 24">
	<title>Instagram</title>
	<path fill="currentColor" d="M20.44 0C20.91 0 21.37 0.09 21.8 0.27C22.23 0.45 22.62 0.72 22.95 1.05C23.28 1.38 23.55 1.77 23.73 2.2C23.91 2.63 24 3.09 24 3.56L24 20.44C24 20.91 23.91 21.37 23.73 21.8C23.55 22.23 23.28 22.62 22.95 22.95C22.62 23.28 22.23 23.55 21.8 23.73C21.37 23.91 20.91 24 20.44 24L3.56 24C3.09 24 2.63 23.91 2.2 23.73C1.77 23.55 1.38 23.28 1.05 22.95C0.72 22.62 0.45 22.23 0.27 21.8C0.09 21.37 0 20.91 0 20.44L0 3.56C0 3.09 0.09 2.63 0.27 2.2C0.45 1.77 0.72 1.38 1.05 1.05C1.38 0.72 1.77 0.45 2.2 0.27C2.63 0.09 3.09 0 3.56 0L20.44 0ZM22 3.56C22 3.36 21.96 3.15 21.88 2.96C21.8 2.77 21.69 2.6 21.54 2.46C21.4 2.31 21.23 2.2 21.04 2.12C20.85 2.04 20.64 2 20.44 2L3.56 2C3.36 2 3.15 2.04 2.96 2.12C2.77 2.2 2.6 2.31 2.46 2.46C2.31 2.6 2.2 2.77 2.12 2.96C2.04 3.15 2 3.36 2 3.56L2 20.44C2 20.64 2.04 20.85 2.12 21.04C2.2 21.23 2.31 21.4 2.46 21.54C2.6 21.69 2.77 21.8 2.96 21.88C3.15 21.96 3.36 22 3.56 22L20.44 22C20.64 22 20.85 21.96 21.04 21.88C21.23 21.8 21.4 21.69 21.54 21.54C21.69 21.4 21.8 21.23 21.88 21.04C21.96 20.85 22 20.64 22 20.44L22 3.56Z" />
	<path fill="currentColor" d="M12 6C12.79 6 13.57 6.16 14.3 6.46C15.02 6.76 15.69 7.2 16.24 7.76C16.8 8.31 17.24 8.98 17.54 9.7C17.84 10.43 18 11.21 18 12C18 14.43 16.54 16.61 14.3 17.54C12.05 18.47 9.47 17.96 7.76 16.24C6.04 14.53 5.53 11.95 6.46 9.7C7.39 7.46 9.57 6 12 6ZM13.53 15.7C14.02 15.49 14.46 15.2 14.83 14.83C15.2 14.46 15.49 14.02 15.7 13.53C15.9 13.05 16 12.53 16 12C16 10.38 15.03 8.92 13.53 8.3C12.04 7.69 10.32 8.03 9.17 9.17C8.03 10.32 7.69 12.04 8.3 13.53C8.92 15.03 10.38 16 12 16C12.53 16 13.05 15.9 13.53 15.7Z" />
	<path fill="currentColor" d="M18.5 7C17.67 7 17 6.33 17 5.5C17 4.67 17.67 4 18.5 4C19.33 4 20 4.67 20 5.5C20 6.33 19.33 7 18.5 7Z" />
</svg>
