<svg version="1.2"
  xmlns="http://www.w3.org/2000/svg" viewBox="0 0 100 100">
  <title>LinkedIn</title>
  <path fill="currentColor" d="m0 88.9v-77.8c0-6.1 5-11.1 11.1-11.1h77.8c6.1 0 11.1 5 11.1 11.1v77.8c0 6.1-5 11.1-11.1 11.1h-77.8c-6.1 0-11.1-5-11.1-11.1zm86.1-33.3c0-12.9-7.3-19.1-17.5-19.1-10.2 0-14.5 7.9-14.5 7.9v-6.4h-14.3v48.1h14.3v-25.3c0-6.7 3.1-10.8 9.1-10.8 5.4 0 8.1 3.9 8.1 10.8v25.3h14.8zm-54.6-32.8c0-4.9-3.9-8.9-8.8-8.9-4.9 0-8.8 4-8.8 8.9 0 4.9 3.9 8.8 8.8 8.8 4.9 0 8.8-3.9 8.8-8.8zm-16.2 63.3h14.9v-48.2h-14.9z"/>
</svg>