<svg xmlns="http://www.w3.org/2000/svg" viewBox="0 0 86 86">
	<title>LinkedIn</title>
	<path fill="currentColor" d="M24 12C24 18.6 18.6 24 12 24C5.4 24 0 18.6 0 12C0 5.4 5.4 0 12 0C18.6 0 24 5.4 24 12ZM4 12C4 16.44 7.56 20 12 20C16.44 20 20 16.44 20 12C20 7.56 16.44 4 12 4C7.56 4 4 7.56 4 12ZM81.19 32.38C84.75 36.55 86 42.33 86 49L86 65C86.01 66.06 85.06 67.03 84 67.03C82.94 67.03 81.99 66.06 82 65L82 49C82 42.85 80.79 38.09 78.13 34.97C75.46 31.84 71.17 30 64 30C56.5 30 52.92 34.06 49.56 38.25C49.05 38.89 48.11 39.16 47.34 38.89C46.56 38.62 46 37.82 46 37L46 32L34 32L34 82L47 82L47 78L46 78C44.95 78.05 43.95 77.14 43.91 76.09C43.86 75.05 44.77 74.05 45.81 74C46.19 74 46.61 74 47 74L47 70L46 70C44.95 70.05 43.95 69.14 43.91 68.09C43.86 67.05 44.77 66.05 45.81 66C46.19 66 46.61 66 47 66L47 54C47 50.66 48 47.52 49.72 45.13C51.44 42.73 54.01 41 57 41L59 41C61.99 41 64.56 42.73 66.28 45.13C68 47.52 69 50.66 69 54L69 82L82 82L82 73C81.99 71.94 82.94 70.97 84 70.97C85.06 70.97 86.01 71.94 86 73L86 84C86 85.05 85.05 86 84 86L67 86C65.95 86 65 85.05 65 84L65 54C65 51.47 64.2 49.07 63.03 47.44C61.86 45.8 60.44 45 59 45L57 45C55.56 45 54.14 45.8 52.97 47.44C51.8 49.07 51 51.47 51 54L51 84C51 85.05 50.05 86 49 86L32 86C30.95 86 30 85.05 30 84L30 30C30 28.95 30.95 28 32 28L48 28C49.05 28 50 28.95 50 30L50 31.84C53.26 28.72 57.61 26 64 26C71.9 26 77.62 28.2 81.19 32.38ZM21 28C22.05 28 23 28.95 23 30L23 84C23 85.05 22.05 86 21 86L4 86C2.95 86 2 85.05 2 84L2 30C2 29.01 2.83 28.09 3.81 28C9.52 28 15.28 28 21 28ZM6 82L19 82L19 78L18 78C16.95 78.05 15.95 77.14 15.91 76.09C15.86 75.05 16.77 74.05 17.81 74C18.19 74 18.61 74 19 74L19 70L18 70C16.95 70.05 15.95 69.14 15.91 68.09C15.86 67.05 16.77 66.05 17.81 66C18.19 66 18.61 66 19 66L19 32L6 32L6 82Z" />
</svg>
