<svg version="1.2"
  xmlns="http://www.w3.org/2000/svg" viewBox="0 0 100 100">
  <title>Rivian</title>
  <path fill="currentColor" d="m99.6 46.3c-5.6-5.8-36.2-37.3-41.8-41.9-2.1-1.5-4.6-2.7-7.8-2.7-3.3 0-5.8 1.2-7.8 2.7-5.8 4.6-36.3 36.1-42.1 41.9-0.3 0.5 0 1.3 0.7 1.3h13.2c1.4 0 1.9-0.1 2.7-1.2 0.9-1 5.3-5.6 5.3-5.6 5.6-5.9 19-19.1 23.9-23.2 1.9-1.5 3.9-1.5 3.9-1.5 0 0 2.2 0 3.9 1.5 5.1 4.3 18.6 17.3 24.1 23.2 0 0 4.4 4.8 5.2 5.6 0.9 1.1 1.4 1.2 2.7 1.2h13.2c0.7 0 1.2-0.8 0.7-1.3zm-99.5 7.6c5.6 5.8 36.3 37.3 41.9 41.9 2 1.5 4.6 2.7 7.8 2.7 3.2 0 5.8-1.2 7.8-2.7 5.8-4.6 36.3-36.1 41.9-41.9 0.5-0.5 0-1.4-0.7-1.4h-13.2c-1.4 0-1.9 0.2-2.8 1.2-0.8 1-5.2 5.6-5.2 5.6-5.6 6-19 19.2-23.9 23.2-1.9 1.6-3.9 1.6-3.9 1.6 0 0-2.2 0-3.9-1.6-4.9-4-18.5-17.2-23.9-23.2 0 0-4.4-4.7-5.3-5.6-0.8-1-1.3-1.2-2.7-1.2h-13.2c-0.7-0.1-1 0.7-0.7 1.4zm46.1 6.6c-2.5-2.4-6.9-6.6-8.6-8.5-0.7-0.8-0.7-1.8-0.7-1.8 0 0 0-1 0.7-1.9 1.7-1.9 6.1-6.3 8.6-8.5 1.1-1 1.4-1.5 1.4-2.7v-13c0-0.5-0.7-0.9-1-0.4-5.6 5.3-18.2 17.7-22.4 22.4-2 2.2-1.9 4.2-1.9 4.2 0 0-0.1 2.2 1.9 4.3 4.2 4.7 16.8 17.3 22.4 22.3 0.5 0.6 1 0.2 1-0.5v-13c-0.2-1.4-0.3-1.9-1.4-2.9zm7.3 0c2.6-2.4 7-6.6 8.7-8.5 0.6-0.8 0.6-1.8 0.6-1.8 0 0 0-1-0.6-1.9-1.7-1.9-6.1-6.3-8.7-8.5-1-1-1.3-1.5-1.3-2.7v-13c0-0.7 0.5-0.9 1-0.5 5.6 5.2 18.1 17.6 22.4 22.3 2 2.2 1.8 4.3 1.8 4.3 0 0 0.2 2.2-1.8 4.2-4.3 4.8-16.8 17.3-22.4 22.4-0.5 0.5-1 0.1-1-0.5v-13.1c0.1-1.2 0.3-1.7 1.3-2.7z"/>
</svg>
